{
.appVersion = "1346";
classes = (
{
automatic = 1;
code = "A Aacute Abreve Acaron Acircumflex Adieresis Agrave Amacron Aogonek Aring Atilde AE B C Cacute Ccaron Ccedilla Cdotaccent D Eth Dcaron Dcroat E Eacute Ecaron Ecircumflex Edieresis Edotaccent Egrave Emacron Eogonek F G Gbreve Gcommaaccent Gdotaccent H Hbar I Iacute Icaron Icircumflex Idieresis Idotaccent Igrave Imacron Iogonek J K Kcommaaccent L Lacute Lcaron Lcommaaccent Lslash M N Nacute Ncaron Ncommaaccent Eng Ntilde O Oacute Ocaron Ocircumflex Odieresis Ograve Ohungarumlaut Omacron Oslash Otilde OE P Thorn Q R Racute Rcaron Rcommaaccent S Sacute Scaron Scedilla Scommaaccent Germandbls T Tbar Tcaron Tcedilla Tcommaaccent U Uacute Ucaron Ucircumflex Udieresis Udieresisacute Udieresiscaron Udieresisgrave Udieresismacron Ugrave Uhungarumlaut Umacron Uogonek Uring V W Wacute Wcircumflex Wdieresis Wgrave X Y Yacute Ycircumflex Ydieresis Ygrave Z Zacute Zcaron Zdotaccent K.ss01 Kcommaaccent.ss01 R.ss01 Racute.ss01 Rcommaaccent.ss01 Delta";
name = Uppercase;
}
);
copyright = "Copyright © 2020 by Adam Półtawski, Mateusz Machalski, Borys Kosmynka, Ania Wieluńska. All rights reserved.";
customParameters = (
{
name = "Use Extension Kerning";
value = 1;
}
);
date = "2020-11-29 13:13:36 +0000";
designer = "Adam Półtawski, Mateusz Machalski, Borys Kosmynka, Ania Wieluńska";
designerURL = www.capitalics.wtf;
familyName = "Poltawski Nowy";
featurePrefixes = (
{
automatic = 1;
code = "languagesystem DFLT dflt;\012\012languagesystem latn dflt;\012languagesystem latn AZE;\012languagesystem latn CRT;\012languagesystem latn KAZ;\012languagesystem latn TAT;\012languagesystem latn TRK;\012languagesystem latn ROM;\012languagesystem latn MOL;\012";
name = Languagesystems;
}
);
features = (
{
automatic = 1;

glyphs = (
{
glyphname = A;
lastChange = "2020-11-29 15:05:20 +0000";
layers = (
{
anchors = (
{
name = bottom;
position = "{292, 0}";
},
{
name = ogonek;
position = "{514, 0}";
},
{
name = top;
position = "{442, 700}";
}
);
layerId = "45069982-2EFC-4B7D-8C53-1932E6EAC4CA";
paths = (
{
closed = 1;
nodes = (
"-14 0 OFFCURVE",
"11 0 OFFCURVE",
"35 0 CURVE SMOOTH",
"58 0 OFFCURVE",
"103 0 OFFCURVE",
"158 -2 CURVE",
"162 8 OFFCURVE",
"166 25 OFFCURVE",
"166 35 CURVE",
"87 35 LINE",
"107 103 OFFCURVE",
"138 159 OFFCURVE",
"169 210 CURVE SMOOTH",
"380 561 LINE",
"483 720 LINE",
"465 723 OFFCURVE",
"443 723 OFFCURVE",
"422 720 CURVE",
"383 652 OFFCURVE",
"331 569 OFFCURVE",
"301 519 CURVE SMOOTH",
"115 210 LINE SMOOTH",
"77 147 OFFCURVE",
"43 95 OFFCURVE",
"-1 35 CURVE",
"-53 35 LINE",
"-57 25 OFFCURVE",
"-61 9 OFFCURVE",
"-61 -2 CURVE"
);
},
{
closed = 1;
nodes = (
"528 105 OFFCURVE",
"523 159 OFFCURVE",
"519 210 CURVE SMOOTH",
"494 500 LINE SMOOTH",
"486 596 OFFCURVE",
"482 653 OFFCURVE",
"483 720 CURVE",
"380 561 LINE",
"408 210 LINE SMOOTH",
"413 152 OFFCURVE",
"412 94 OFFCURVE",
"409 35 CURVE",
"340 35 LINE",
"336 25 OFFCURVE",
"332 9 OFFCURVE",
"332 -2 CURVE",
"377 0 OFFCURVE",
"427 0 OFFCURVE",
"473 0 CURVE SMOOTH",
"516 0 OFFCURVE",
"548 0 OFFCURVE",
"594 -2 CURVE",
"598 8 OFFCURVE",
"602 25 OFFCURVE",
"602 35 CURVE",
"540 35 LINE"
);
},
{
closed = 1;
nodes = (
"444 275 LINE",
"184 275 LINE",
"175 235 LINE",
"435 235 LINE"
);
}
);
width = 653;
},
{
anchors = (
{
name = bottom;
position = "{298, 0}";
},
{
name = ogonek;
position = "{525, 0}";
},
{
name = top;
position = "{449, 700}";
}
);
layerId = "503E420B-61F7-4277-A1BE-A8852071B452";
paths = (
{
closed = 1;
nodes = (
"-21 0 OFFCURVE",
"4 0 OFFCURVE",
"28 0 CURVE SMOOTH",
"51 0 OFFCURVE",
"106 0 OFFCURVE",
"161 -2 CURVE",
"165 8 OFFCURVE",
"169 25 OFFCURVE",
"169 35 CURVE",
"78 35 LINE",
"101 98 OFFCURVE",
"134 163 OFFCURVE",
"162 210 CURVE SMOOTH",
"363 545 LINE",
"507 720 LINE",
"488 723 OFFCURVE",
"431 723 OFFCURVE",
"410 720 CURVE",
"375 652 OFFCURVE",
"325 570 OFFCURVE",
"294 519 CURVE SMOOTH",
"109 210 LINE SMOOTH",
"73 150 OFFCURVE",
"37 94 OFFCURVE",
"-9 35 CURVE",
"-60 35 LINE",
"-64 25 OFFCURVE",
"-68 9 OFFCURVE",
"-68 -2 CURVE"
);
},
{
closed = 1;
nodes = (
"556 91 OFFCURVE",
"548 146 OFFCURVE",
"542 210 CURVE SMOOTH",
"513 518 LINE SMOOTH",
"506 593 OFFCURVE",
"504 652 OFFCURVE",
"507 720 CURVE",
"363 545 LINE",
"395 210 LINE SMOOTH",
"401 149 OFFCURVE",
"406 96 OFFCURVE",
"405 35 CURVE",
"335 35 LINE",
"331 25 OFFCURVE",
"327 9 OFFCURVE",
"327 -2 CURVE",
"372 0 OFFCURVE",
"418 0 OFFCURVE",
"469 0 CURVE SMOOTH",
"539 0 OFFCURVE",
"571 0 OFFCURVE",
"617 -2 CURVE",
"621 8 OFFCURVE",
"625 24 OFFCURVE",
"625 35 CURVE",
"573 35 LINE"
);
},
{
closed = 1;
nodes = (
"434 270 LINE",
"169 270 LINE",
"160 230 LINE",
"425 230 LINE"
);
}
);
width = 672;
},
{
associatedMasterId = "503E420B-61F7-4277-A1BE-A8852071B452";
layerId = "0382C2FF-F800-4864-8231-4D40843BB73E";
name = "Nov 3 20, 17:23";
paths = (
{
closed = 1;
nodes = (
"641 0 LINE",
"641 32 LINE",
"588 32 LINE",
"564 77 OFFCURVE",
"542 124 OFFCURVE",
"524 172 CURVE SMOOTH",
"381 560 LINE SMOOTH",
"363 610 OFFCURVE",
"348 662 OFFCURVE",
"336 714 CURVE",
"286 714 LINE",
"277 662 OFFCURVE",
"264 610 OFFCURVE",
"247 560 CURVE SMOOTH",
"118 172 LINE SMOOTH",
"102 124 OFFCURVE",
"83 77 OFFCURVE",
"60 32 CURVE",
"7 32 LINE",
"7 0 LINE",
"170 0 LINE",
"170 32 LINE",
"118 32 LINE",
"125 80 OFFCURVE",
"137 126 OFFCURVE",
"152 172 CURVE SMOOTH",
"175 241 LINE",
"355 241 LINE",
"381 172 LINE SMOOTH",
"397 126 OFFCURVE",
"411 80 OFFCURVE",
"420 32 CURVE",
"367 32 LINE",
"367 0 LINE"
);
},
{
closed = 1;
nodes = (
"343 273 LINE",
"186 273 LINE",
"260 498 LINE"
);
}
);
width = 600;
},
{
associatedMasterId = "45069982-2EFC-4B7D-8C53-1932E6EAC4CA";
layerId = "2E6632BE-65B1-4B7E-A6E7-2954410A0793";
name = "Nov 3 20, 17:23";
paths = (
{
closed = 1;
nodes = (
"633 0 LINE",
"633 28 LINE",
"580 28 LINE",
"556 73 OFFCURVE",
"534 120 OFFCURVE",
"516 168 CURVE SMOOTH",
"372 560 LINE SMOOTH",
"353 610 OFFCURVE",
"338 662 OFFCURVE",
"327 714 CURVE",
"290 714 LINE",
"281 662 OFFCURVE",
"268 610 OFFCURVE",
"251 560 CURVE SMOOTH",
"120 168 LINE SMOOTH",
"104 120 OFFCURVE",
"85 73 OFFCURVE",
"62 28 CURVE",
"9 28 LINE",
"9 0 LINE",
"168 0 LINE",
"168 28 LINE",
"115 28 LINE",
"123 76 OFFCURVE",
"135 122 OFFCURVE",
"150 168 CURVE SMOOTH",
"176 245 LINE",
"383 245 LINE",
"411 168 LINE SMOOTH",
"428 122 OFFCURVE",
"441 76 OFFCURVE",
"451 28 CURVE",
"398 28 LINE",
"398 0 LINE"
);
},
{
closed = 1;
nodes = (
"372 273 LINE",
"185 273 LINE",
"274 540 LINE"
);
}
);
width = 600;
},
{
anchors = (
{
name = bottom;
position = "{361, 0}";
},
{
name = ogonek;
position = "{641, 10}";
},
{
name = top;
position = "{502, 700}";
}
);
associatedMasterId = "45069982-2EFC-4B7D-8C53-1932E6EAC4CA";
backgroundImage = {
crop = "{{0, 0}, {291, 102}}";
imagePath = ../../aniawielunska/Dropbox/POLTAWSKI_NOVA/POLTAWSKII_NOVA_MATERIALY/Idzkowski_AP/kursywa/kursywa_94.gif;
locked = "1";
transform = "{10.996, 0, 0, 10.996, -683, -212}";
};
layerId = "C8F49939-06DE-43BB-8618-7F68C6E67FD1";
name = "Nov 17 20, 04:13";
paths = (
{
closed = 1;
nodes = (
"55 0 OFFCURVE",
"80 0 OFFCURVE",
"104 0 CURVE SMOOTH",
"127 0 OFFCURVE",
"172 0 OFFCURVE",
"227 -2 CURVE",
"231 8 OFFCURVE",
"235 25 OFFCURVE",
"235 35 CURVE",
"154 35 LINE",
"174 103 OFFCURVE",
"205 159 OFFCURVE",
"236 210 CURVE SMOOTH",
"450 560 LINE",
"558 720 LINE",
"540 723 OFFCURVE",
"519 723 OFFCURVE",
"498 720 CURVE",
"464 652 OFFCURVE",
"406 570 OFFCURVE",
"375 519 CURVE SMOOTH",
"189 210 LINE SMOOTH",
"151 147 OFFCURVE",
"117 95 OFFCURVE",
"73 35 CURVE",
"16 35 LINE",
"12 25 OFFCURVE",
"8 9 OFFCURVE",
"8 -2 CURVE"
);
},
{
closed = 1;
nodes = (
"599 105 OFFCURVE",
"594 159 OFFCURVE",
"590 210 CURVE SMOOTH",
"565 500 LINE SMOOTH",
"557 596 OFFCURVE",
"555 653 OFFCURVE",
"558 720 CURVE",
"450 560 LINE",
"477 210 LINE SMOOTH",
"482 142 OFFCURVE",
"481 94 OFFCURVE",
"478 35 CURVE",
"409 35 LINE",
"405 25 OFFCURVE",
"401 9 OFFCURVE",
"401 -2 CURVE",
"446 0 OFFCURVE",
"496 0 OFFCURVE",
"542 0 CURVE SMOOTH",
"587 0 OFFCURVE",
"619 0 OFFCURVE",
"665 -2 CURVE",
"669 8 OFFCURVE",
"673 25 OFFCURVE",
"673 35 CURVE",
"611 35 LINE"
);
},
{
closed = 1;
nodes = (
"513 275 LINE",
"253 275 LINE",
"244 235 LINE",
"504 235 LINE"
);
}
);
width = 707;
}
);
leftKerningGroup = A;
rightKerningGroup = A;
unicode = 0041;
},
{
glyphname = AE;
lastChange = "2020-11-29 15:05:20 +0000";
layers = (
{
anchors = (
{
name = bottom;
position = "{618, 0}";
},
{
name = ogonek;
position = "{845, 0}";
},
{
name = top;
position = "{676, 700}";
},
{
name = topleft;
position = "{448, 700}";
}
);
layerId = "45069982-2EFC-4B7D-8C53-1932E6EAC4CA";
paths = (
{
closed = 1;
nodes = (
"828 95 OFFCURVE",
"785 40 OFFCURVE",
"681 40 CURVE SMOOTH",
"533 40 LINE",
"539 100 OFFCURVE",
"546 150 OFFCURVE",
"559 210 CURVE SMOOTH",
"619 490 LINE SMOOTH",
"632 550 OFFCURVE",
"645 600 OFFCURVE",
"665 660 CURVE",
"778 660 LINE SMOOTH",
"882 660 OFFCURVE",
"903 615 OFFCURVE",
"887 515 CURVE",
"898 513 OFFCURVE",
"908 513 OFFCURVE",
"919 515 CURVE",
"958 700 LINE",
"608 700 LINE SMOOTH",
"562 700 OFFCURVE",
"477 700 OFFCURVE",
"432 702 CURVE",
"428 692 OFFCURVE",
"424 675 OFFCURVE",
"424 665 CURVE",
"508 665 LINE",
"470 611 OFFCURVE",
"433 558 OFFCURVE",
"402 519 CURVE SMOOTH",
"155 210 LINE SMOOTH",
"106 149 OFFCURVE",
"61 95 OFFCURVE",
"3 35 CURVE",
"-42 35 LINE",
"-47 23 OFFCURVE",
"-49 10 OFFCURVE",
"-50 -2 CURVE",
"-2 0 OFFCURVE",
"23 0 OFFCURVE",
"47 0 CURVE SMOOTH",
"70 0 OFFCURVE",
"115 0 OFFCURVE",
"169 -2 CURVE",
"174 10 OFFCURVE",
"176 23 OFFCURVE",
"177 35 CURVE",
"101 35 LINE",
"133 95 OFFCURVE",
"170 149 OFFCURVE",
"219 210 CURVE SMOOTH",
"491 550 LINE SMOOTH",
"504 567 OFFCURVE",
"516 581 OFFCURVE",
"528 595 CURVE",
"523 559 OFFCURVE",
"517 528 OFFCURVE",
"509 490 CURVE SMOOTH",
"449 210 LINE SMOOTH",
"436 150 OFFCURVE",
"422 95 OFFCURVE",
"402 35 CURVE",
"330 35 LINE",
"326 25 OFFCURVE",
"322 8 OFFCURVE",
"322 -2 CURVE",
"369 0 OFFCURVE",
"414 0 OFFCURVE",
"460 0 CURVE SMOOTH",
"845 0 LINE",
"884 185 LINE",
"873 187 OFFCURVE",
"863 187 OFFCURVE",
"852 185 CURVE"
);
},
{
closed = 1;
nodes = (
"516 275 LINE",
"246 275 LINE",
"228 235 LINE",
"508 235 LINE"
);
},
{
closed = 1;
nodes = (
"795 398 OFFCURVE",
"776 380 OFFCURVE",
"730 380 CURVE SMOOTH",
"540 380 LINE",
"532 340 LINE",
"722 340 LINE SMOOTH",
"768 340 OFFCURVE",
"779 322 OFFCURVE",
"768 260 CURVE",
"778 258 OFFCURVE",
"788 258 OFFCURVE",
"800 260 CURVE",
"842 460 LINE",
"832 462 OFFCURVE",
"822 462 OFFCURVE",
"810 460 CURVE"
);
}
);
width = 937;
},
{
anchors = (
{
name = bottom;
position = "{689, 0}";
},
{
name = ogonek;
position = "{932, 0}";
},
{
name = top;
position = "{639, 700}";
},
{
name = topleft;
position = "{379, 700}";
}
);
layerId = "503E420B-61F7-4277-A1BE-A8852071B452";
paths = (
{
closed = 1;
nodes = (
"844 110 OFFCURVE",
"788 40 OFFCURVE",
"684 40 CURVE SMOOTH",
"576 40 LINE",
"582 100 OFFCURVE",
"589 150 OFFCURVE",
"602 210 CURVE SMOOTH",
"662 490 LINE SMOOTH",
"675 550 OFFCURVE",
"688 600 OFFCURVE",
"708 660 CURVE",
"781 660 LINE SMOOTH",
"885 660 OFFCURVE",
"913 600 OFFCURVE",
"899 510 CURVE",
"910 508 OFFCURVE",
"920 508 OFFCURVE",
"931 510 CURVE",
"971 700 LINE",
"631 700 LINE SMOOTH",
"585 700 OFFCURVE",
"549 700 OFFCURVE",
"424 702 CURVE",
"420 692 OFFCURVE",
"416 675 OFFCURVE",
"416 665 CURVE",
"506 665 LINE",
"468 611 OFFCURVE",
"430 558 OFFCURVE",
"399 519 CURVE SMOOTH",
"153 210 LINE SMOOTH",
"104 149 OFFCURVE",
"59 95 OFFCURVE",
"1 35 CURVE",
"-50 35 LINE",
"-55 23 OFFCURVE",
"-57 10 OFFCURVE",
"-58 -2 CURVE",
"-10 0 OFFCURVE",
"15 0 OFFCURVE",
"39 0 CURVE SMOOTH",
"62 0 OFFCURVE",
"117 0 OFFCURVE",
"171 -2 CURVE",
"176 10 OFFCURVE",
"178 23 OFFCURVE",
"179 35 CURVE",
"98 35 LINE",
"125 95 OFFCURVE",
"162 149 OFFCURVE",
"211 210 CURVE SMOOTH",
"483 550 LINE SMOOTH",
"501 573 OFFCURVE",
"517 592 OFFCURVE",
"534 611 CURVE",
"528 577 OFFCURVE",
"521 533 OFFCURVE",
"512 490 CURVE SMOOTH",
"452 210 LINE SMOOTH",
"439 150 OFFCURVE",
"424 90 OFFCURVE",
"405 35 CURVE",
"338 35 LINE",
"334 25 OFFCURVE",
"330 8 OFFCURVE",
"330 -2 CURVE",
"377 0 OFFCURVE",
"437 0 OFFCURVE",
"483 0 CURVE SMOOTH",
"858 0 LINE",
"898 190 LINE",
"887 192 OFFCURVE",
"877 192 OFFCURVE",
"866 190 CURVE"
);
},
{
closed = 1;
nodes = (
"508 275 LINE",
"238 275 LINE",
"220 235 LINE",
"500 235 LINE"
);
},
{
closed = 1;
nodes = (
"800 408 OFFCURVE",
"769 380 OFFCURVE",
"713 380 CURVE SMOOTH",
"563 380 LINE",
"555 340 LINE",
"705 340 LINE SMOOTH",
"761 340 OFFCURVE",
"780 312 OFFCURVE",
"769 250 CURVE",
"779 248 OFFCURVE",
"789 248 OFFCURVE",
"801 250 CURVE",
"848 470 LINE",
"837 472 OFFCURVE",
"827 472 OFFCURVE",
"816 470 CURVE"
);
}
);
width = 951;
}
);
rightKerningGroup = E;
unicode = 00C6;
},
{
glyphname = B;
lastChange = "2020-11-29 15:05:20 +0000";
layers = (
{
anchors = (
{
name = bottom;
position = "{263, 0}";
},
{
name = top;
position = "{412, 700}";
}
);
layerId = "45069982-2EFC-4B7D-8C53-1932E6EAC4CA";
paths = (
{
closed = 1;
nodes = (
"559 384 OFFCURVE",
"649 459 OFFCURVE",
"649 553 CURVE SMOOTH",
"649 649 OFFCURVE",
"554 700 OFFCURVE",
"432 700 CURVE SMOOTH",
"282 700 LINE SMOOTH",
"236 700 OFFCURVE",
"191 700 OFFCURVE",
"146 702 CURVE",
"142 692 OFFCURVE",
"138 675 OFFCURVE",
"138 665 CURVE",
"210 665 LINE",
"203 595 OFFCURVE",
"194 541 OFFCURVE",
"183 490 CURVE SMOOTH",
"123 210 LINE SMOOTH",
"112 159 OFFCURVE",
"96 95 OFFCURVE",
"76 35 CURVE",
"4 35 LINE",
"0 25 OFFCURVE",
"-4 9 OFFCURVE",
"-4 -2 CURVE",
"42 0 OFFCURVE",
"87 0 OFFCURVE",
"133 0 CURVE SMOOTH",
"313 0 LINE SMOOTH",
"505 0 OFFCURVE",
"624 92 OFFCURVE",
"624 213 CURVE SMOOTH",
"624 317 OFFCURVE",
"540 361 OFFCURVE",
"442 370 CURVE"
);
},
{
closed = 1;
nodes = (
"212 93 OFFCURVE",
"220 151 OFFCURVE",
"233 210 CURVE SMOOTH",
"294 495 LINE SMOOTH",
"308 562 OFFCURVE",
"319 599 OFFCURVE",
"339 660 CURVE",
"414 660 LINE SMOOTH",
"493 660 OFFCURVE",
"529 610 OFFCURVE",
"529 547 CURVE SMOOTH",
"529 457 OFFCURVE",
"457 385 OFFCURVE",
"375 385 CURVE SMOOTH",
"215 385 LINE",
"207 345 LINE",
"367 345 LINE SMOOTH",
"462 345 OFFCURVE",
"499 294 OFFCURVE",
"499 219 CURVE SMOOTH",
"499 123 OFFCURVE",
"439 40 OFFCURVE",
"332 40 CURVE SMOOTH",
"207 40 LINE"
);
}
);
width = 675;
},
{
anchors = (
{
name = bottom;
position = "{283, 0}";
},
{
name = top;
position = "{432, 700}";
}
);
layerId = "503E420B-61F7-4277-A1BE-A8852071B452";
paths = (
{
closed = 1;
nodes = (
"574 385 OFFCURVE",
"671 458 OFFCURVE",
"671 555 CURVE SMOOTH",
"671 652 OFFCURVE",
"574 700 OFFCURVE",
"435 700 CURVE SMOOTH",
"293 700 LINE SMOOTH",
"247 700 OFFCURVE",
"187 700 OFFCURVE",
"142 702 CURVE",
"138 692 OFFCURVE",
"134 675 OFFCURVE",
"134 665 CURVE",
"201 665 LINE",
"196 610 OFFCURVE",
"188 557 OFFCURVE",
"174 490 CURVE SMOOTH",
"114 210 LINE SMOOTH",
"101 150 OFFCURVE",
"86 93 OFFCURVE",
"67 35 CURVE",
"0 35 LINE",
"-4 25 OFFCURVE",
"-8 9 OFFCURVE",
"-8 -2 CURVE",
"38 0 OFFCURVE",
"98 0 OFFCURVE",
"144 0 CURVE SMOOTH",
"335 0 LINE SMOOTH",
"515 0 OFFCURVE",
"640 88 OFFCURVE",
"640 210 CURVE SMOOTH",
"640 310 OFFCURVE",
"563 366 OFFCURVE",
"445 371 CURVE"
);
},
{
closed = 1;
nodes = (
"244 105 OFFCURVE",
"253 158 OFFCURVE",
"264 210 CURVE SMOOTH",
"324 490 LINE SMOOTH",
"338 557 OFFCURVE",
"350 599 OFFCURVE",
"370 660 CURVE",
"397 660 LINE SMOOTH",
"470 660 OFFCURVE",
"506 626 OFFCURVE",
"506 555 CURVE SMOOTH",
"506 461 OFFCURVE",
"439 380 OFFCURVE",
"357 380 CURVE SMOOTH",
"232 380 LINE",
"224 340 LINE",
"369 340 LINE SMOOTH",
"435 340 OFFCURVE",
"475 301 OFFCURVE",
"475 225 CURVE SMOOTH",
"475 130 OFFCURVE",
"412 40 OFFCURVE",
"305 40 CURVE SMOOTH",
"238 40 LINE"
);
}
);
width = 689;
},
{
associatedMasterId = "45069982-2EFC-4B7D-8C53-1932E6EAC4CA";
layerId = "7A36FBBF-359E-4486-8001-DB64745F7A60";
name = "Nov 3 20, 00:31";
paths = (
{
closed = 1;
nodes = (
"552 294 OFFCURVE",
"483 354 OFFCURVE",
"382 372 CURVE",
"459 393 OFFCURVE",
"510 446 OFFCURVE",
"510 531 CURVE SMOOTH",
"510 644 OFFCURVE",
"420 700 OFFCURVE",
"298 700 CURVE SMOOTH",
"26 700 LINE",
"26 672 LINE",
"92 672 LINE",
"100 626 OFFCURVE",
"104 579 OFFCURVE",
"104 532 CURVE SMOOTH",
"104 168 LINE SMOOTH",
"104 121 OFFCURVE",
"100 74 OFFCURVE",
"92 28 CURVE",
"26 28 LINE",
"26 0 LINE",
"314 0 LINE SMOOTH",
"451 0 OFFCURVE",
"552 62 OFFCURVE",
"552 189 CURVE SMOOTH"
);
},
{
closed = 1;
nodes = (
"414 436 OFFCURVE",
"360 378 OFFCURVE",
"272 378 CURVE SMOOTH",
"214 378 LINE",
"214 532 LINE SMOOTH",
"214 579 OFFCURVE",
"218 626 OFFCURVE",
"226 672 CURVE",
"272 672 LINE SMOOTH",
"360 672 OFFCURVE",
"414 614 OFFCURVE",
"414 525 CURVE SMOOTH"
);
},
{
closed = 1;
nodes = (
"442 90 OFFCURVE",
"378 28 OFFCURVE",
"278 28 CURVE SMOOTH",
"226 28 LINE",
"218 74 OFFCURVE",
"214 121 OFFCURVE",
"214 168 CURVE SMOOTH",
"214 350 LINE",
"278 350 LINE SMOOTH",
"378 350 OFFCURVE",
"442 288 OFFCURVE",
"442 189 CURVE SMOOTH"
);
}
);
width = 600;
},
{
associatedMasterId = "503E420B-61F7-4277-A1BE-A8852071B452";
layerId = "D4FE6D89-57D7-4DDE-A630-5A6B506E6BA9";
name = "Nov 3 20, 00:31";
paths = (
{
closed = 1;
nodes = (
"606 296 OFFCURVE",
"538 355 OFFCURVE",
"438 375 CURVE",
"512 397 OFFCURVE",
"560 448 OFFCURVE",
"560 531 CURVE SMOOTH",
"560 646 OFFCURVE",
"466 700 OFFCURVE",
"341 700 CURVE SMOOTH",
"22 700 LINE",
"22 668 LINE",
"88 668 LINE",
"96 622 OFFCURVE",
"100 575 OFFCURVE",
"100 528 CURVE SMOOTH",
"100 172 LINE SMOOTH",
"100 125 OFFCURVE",
"96 78 OFFCURVE",
"88 32 CURVE",
"22 32 LINE",
"22 0 LINE",
"358 0 LINE SMOOTH",
"500 0 OFFCURVE",
"606 60 OFFCURVE",
"606 191 CURVE SMOOTH"
);
},
{
closed = 1;
nodes = (
"434 441 OFFCURVE",
"391 382 OFFCURVE",
"312 382 CURVE SMOOTH",
"250 382 LINE",
"250 528 LINE SMOOTH",
"250 575 OFFCURVE",
"254 622 OFFCURVE",
"262 668 CURVE",
"312 668 LINE SMOOTH",
"391 668 OFFCURVE",
"434 609 OFFCURVE",
"434 525 CURVE SMOOTH"
);
},
{
closed = 1;
nodes = (
"466 95 OFFCURVE",
"409 32 OFFCURVE",
"314 32 CURVE SMOOTH",
"262 32 LINE",
"254 78 OFFCURVE",
"250 125 OFFCURVE",
"250 172 CURVE SMOOTH",
"250 350 LINE",
"314 350 LINE SMOOTH",
"409 350 OFFCURVE",
"466 287 OFFCURVE",
"466 191 CURVE SMOOTH"
);
}
);
width = 600;
}
);
leftKerningGroup = H;
unicode = 0042;
},
{
glyphname = C;
lastChange = "2020-11-29 15:05:20 +0000";
layers = (
{
anchors = (
{
name = bottom;
position = "{358, 0}";
},
{
name = top;
position = "{517, 700}";
}
);
layerId = "45069982-2EFC-4B7D-8C53-1932E6EAC4CA";
paths = (
{
closed = 1;
nodes = (
"470 -15 OFFCURVE",
"554 8 OFFCURVE",
"607 37 CURVE",
"645 210 LINE",
"634 212 OFFCURVE",
"624 212 OFFCURVE",
"613 210 CURVE",
"551 83 OFFCURVE",
"475 27 OFFCURVE",
"377 27 CURVE SMOOTH",
"243 27 OFFCURVE",
"199 132 OFFCURVE",
"199 273 CURVE SMOOTH",
"199 506 OFFCURVE",
"319 673 OFFCURVE",
"499 673 CURVE SMOOTH",
"600 673 OFFCURVE",
"666 622 OFFCURVE",
"664 495 CURVE",
"676 493 OFFCURVE",
"684 493 OFFCURVE",
"696 495 CURVE",
"733 670 LINE",
"689 689 OFFCURVE",
"611 715 OFFCURVE",
"511 715 CURVE SMOOTH",
"225 715 OFFCURVE",
"74 504 OFFCURVE",
"74 278 CURVE SMOOTH",
"74 81 OFFCURVE",
"188 -15 OFFCURVE",
"377 -15 CURVE SMOOTH"
);
}
);
width = 702;
},
{
anchors = (
{
name = bottom;
position = "{355, 0}";
},
{
name = top;
position = "{524, 700}";
}
);
layerId = "503E420B-61F7-4277-A1BE-A8852071B452";
paths = (
{
closed = 1;
nodes = (
"468 -15 OFFCURVE",
"540 3 OFFCURVE",
"613 35 CURVE",
"651 215 LINE",
"640 217 OFFCURVE",
"630 217 OFFCURVE",
"619 215 CURVE",
"561 84 OFFCURVE",
"474 27 OFFCURVE",
"389 27 CURVE SMOOTH",
"276 27 OFFCURVE",
"238 130 OFFCURVE",
"238 278 CURVE SMOOTH",
"238 499 OFFCURVE",
"323 673 OFFCURVE",
"506 673 CURVE SMOOTH",
"610 673 OFFCURVE",
"670 616 OFFCURVE",
"666 485 CURVE",
"677 483 OFFCURVE",
"687 483 OFFCURVE",
"698 485 CURVE",
"737 670 LINE",
"673 702 OFFCURVE",
"595 715 OFFCURVE",
"521 715 CURVE SMOOTH",
"233 715 OFFCURVE",
"68 519 OFFCURVE",
"68 289 CURVE SMOOTH",
"68 104 OFFCURVE",
"176 -15 OFFCURVE",
"387 -15 CURVE SMOOTH"
);
}
);
width = 705;
}
);
leftKerningGroup = O;
rightKerningGroup = C;
unicode = 0043;
},
{
glyphname = D;
lastChange = "2020-11-29 15:05:20 +0000";
layers = (
{
anchors = (
{
name = bottom;
position = "{343, 0}";
},
{
name = center;
position = "{418, 350}";
},
{
name = top;
position = "{492, 700}";
}
);
layerId = "45069982-2EFC-4B7D-8C53-1932E6EAC4CA";
paths = (
{
closed = 1;
nodes = (
"236 700 OFFCURVE",
"191 700 OFFCURVE",
"146 702 CURVE",
"142 692 OFFCURVE",
"138 675 OFFCURVE",
"138 665 CURVE",
"210 665 LINE",
"203 595 OFFCURVE",
"194 541 OFFCURVE",
"183 490 CURVE SMOOTH",
"123 210 LINE SMOOTH",
"112 159 OFFCURVE",
"96 95 OFFCURVE",
"76 35 CURVE",
"4 35 LINE",
"0 25 OFFCURVE",
"-4 9 OFFCURVE",
"-4 -2 CURVE",
"42 0 OFFCURVE",
"87 0 OFFCURVE",
"133 0 CURVE SMOOTH",
"308 0 LINE SMOOTH",
"570 0 OFFCURVE",
"771 187 OFFCURVE",
"771 435 CURVE SMOOTH",
"771 615 OFFCURVE",
"660 700 OFFCURVE",
"477 700 CURVE SMOOTH",
"282 700 LINE SMOOTH"
);
},
{
closed = 1;
nodes = (
"213 105 OFFCURVE",
"222 158 OFFCURVE",
"233 210 CURVE SMOOTH",
"293 490 LINE SMOOTH",
"307 557 OFFCURVE",
"319 599 OFFCURVE",
"339 660 CURVE",
"459 660 LINE SMOOTH",
"594 660 OFFCURVE",
"646 581 OFFCURVE",
"646 424 CURVE SMOOTH",
"646 213 OFFCURVE",
"511 40 OFFCURVE",
"307 40 CURVE SMOOTH",
"207 40 LINE"
);
}
);
width = 787;
},
{
anchors = (
{
name = bottom;
position = "{346, 0}";
},
{
name = center;
position = "{421, 350}";
},
{
name = top;
position = "{495, 700}";
}
);
layerId = "503E420B-61F7-4277-A1BE-A8852071B452";
paths = (
{
closed = 1;
nodes = (
"247 700 OFFCURVE",
"187 700 OFFCURVE",
"142 702 CURVE",
"138 692 OFFCURVE",
"134 675 OFFCURVE",
"134 665 CURVE",
"201 665 LINE",
"196 610 OFFCURVE",
"188 557 OFFCURVE",
"174 490 CURVE SMOOTH",
"114 210 LINE SMOOTH",
"101 150 OFFCURVE",
"86 93 OFFCURVE",
"67 35 CURVE",
"0 35 LINE",
"-4 25 OFFCURVE",
"-8 9 OFFCURVE",
"-8 -2 CURVE",
"38 0 OFFCURVE",
"98 0 OFFCURVE",
"144 0 CURVE SMOOTH",
"305 0 LINE SMOOTH",
"593 0 OFFCURVE",
"799 175 OFFCURVE",
"799 440 CURVE SMOOTH",
"799 610 OFFCURVE",
"684 700 OFFCURVE",
"474 700 CURVE SMOOTH",
"293 700 LINE SMOOTH"
);
},
{
closed = 1;
nodes = (
"244 105 OFFCURVE",
"253 158 OFFCURVE",
"264 210 CURVE SMOOTH",
"324 490 LINE SMOOTH",
"338 557 OFFCURVE",
"350 599 OFFCURVE",
"370 660 CURVE",
"456 660 LINE SMOOTH",
"582 660 OFFCURVE",
"629 577 OFFCURVE",
"629 433 CURVE SMOOTH",
"629 204 OFFCURVE",
"504 40 OFFCURVE",
"324 40 CURVE SMOOTH",
"238 40 LINE"
);
}
);
width = 812;
}
);
leftKerningGroup = H;
rightKerningGroup = D;
unicode = 0044;
},
{
glyphname = Eth;
lastChange = "2020-11-29 15:05:20 +0000";
layers = (
{
components = (
{
name = D;
transform = "{1, 0, 0, 1, 11, 0}";
}
);
layerId = "45069982-2EFC-4B7D-8C53-1932E6EAC4CA";
paths = (
{
closed = 1;
nodes = (
"464 357 OFFCURVE",
"468 373 OFFCURVE",
"468 390 CURVE",
"58 390 LINE",
"52 373 OFFCURVE",
"48 357 OFFCURVE",
"48 340 CURVE",
"458 340 LINE"
);
}
);
width = 798;
},
{
components = (
{
name = D;
transform = "{1, 0, 0, 1, 11, 0}";
}
);
layerId = "503E420B-61F7-4277-A1BE-A8852071B452";
paths = (
{
closed = 1;
nodes = (
"499 357 OFFCURVE",
"503 373 OFFCURVE",
"503 390 CURVE",
"53 390 LINE",
"47 373 OFFCURVE",
"43 357 OFFCURVE",
"43 340 CURVE",
"493 340 LINE"
);
}
);
width = 823;
}
);
leftKerningGroup = H;
rightKerningGroup = D;
unicode = 00D0;
},
{
glyphname = E;
lastChange = "2020-11-29 15:05:20 +0000";
layers = (
{
anchors = (
{
name = bottom;
position = "{291, 0}";
},
{
name = ogonek;
position = "{488, 0}";
},
{
name = top;
position = "{420, 700}";
},
{
name = topleft;
position = "{122, 700}";
}
);
layerId = "45069982-2EFC-4B7D-8C53-1932E6EAC4CA";
paths = (
{
closed = 1;
nodes = (
"42 0 OFFCURVE",
"87 0 OFFCURVE",
"133 0 CURVE SMOOTH",
"518 0 LINE",
"558 185 LINE",
"547 187 OFFCURVE",
"537 187 OFFCURVE",
"526 185 CURVE",
"502 95 OFFCURVE",
"459 40 OFFCURVE",
"355 40 CURVE SMOOTH",
"207 40 LINE",
"213 105 OFFCURVE",
"222 158 OFFCURVE",
"233 210 CURVE SMOOTH",
"293 490 LINE SMOOTH",
"307 557 OFFCURVE",
"319 599 OFFCURVE",
"339 660 CURVE",
"452 660 LINE SMOOTH",
"541 660 OFFCURVE",
"580 630 OFFCURVE",
"561 515 CURVE",
"572 513 OFFCURVE",
"582 513 OFFCURVE",
"593 515 CURVE",
"632 700 LINE",
"282 700 LINE SMOOTH",
"236 700 OFFCURVE",
"191 700 OFFCURVE",
"146 702 CURVE",
"142 692 OFFCURVE",
"138 675 OFFCURVE",
"138 665 CURVE",
"210 665 LINE",
"203 595 OFFCURVE",
"194 541 OFFCURVE",
"183 490 CURVE SMOOTH",
"123 210 LINE SMOOTH",
"112 159 OFFCURVE",
"96 95 OFFCURVE",
"76 35 CURVE",
"4 35 LINE",
"0 25 OFFCURVE",
"-4 9 OFFCURVE",
"-4 -2 CURVE"
);
},
{
closed = 1;
nodes = (
"454 258 OFFCURVE",
"462 258 OFFCURVE",
"474 260 CURVE",
"516 460 LINE",
"504 462 OFFCURVE",
"496 462 OFFCURVE",
"484 460 CURVE",
"469 398 OFFCURVE",
"450 380 OFFCURVE",
"404 380 CURVE SMOOTH",
"214 380 LINE",
"206 340 LINE",
"396 340 LINE SMOOTH",
"442 340 OFFCURVE",
"453 322 OFFCURVE",
"442 260 CURVE"
);
}
);
width = 611;
},
{
anchors = (
{
name = bottom;
position = "{276, 0}";
},
{
name = ogonek;
position = "{489, 0}";
},
{
name = top;
position = "{425, 700}";
},
{
name = topleft;
position = "{115, 700}";
}
);
layerId = "503E420B-61F7-4277-A1BE-A8852071B452";
paths = (
{
closed = 1;
nodes = (
"38 0 OFFCURVE",
"98 0 OFFCURVE",
"144 0 CURVE SMOOTH",
"529 0 LINE",
"570 190 LINE",
"559 192 OFFCURVE",
"549 192 OFFCURVE",
"538 190 CURVE",
"516 110 OFFCURVE",
"459 40 OFFCURVE",
"356 40 CURVE SMOOTH",
"238 40 LINE",
"244 105 OFFCURVE",
"253 158 OFFCURVE",
"264 210 CURVE SMOOTH",
"324 490 LINE SMOOTH",
"338 557 OFFCURVE",
"350 599 OFFCURVE",
"370 660 CURVE",
"453 660 LINE SMOOTH",
"556 660 OFFCURVE",
"585 600 OFFCURVE",
"571 510 CURVE",
"583 508 OFFCURVE",
"591 508 OFFCURVE",
"603 510 CURVE",
"643 700 LINE",
"293 700 LINE SMOOTH",
"247 700 OFFCURVE",
"187 700 OFFCURVE",
"142 702 CURVE",
"138 692 OFFCURVE",
"134 675 OFFCURVE",
"134 665 CURVE",
"201 665 LINE",
"196 610 OFFCURVE",
"188 557 OFFCURVE",
"174 490 CURVE SMOOTH",
"114 210 LINE SMOOTH",
"101 150 OFFCURVE",
"86 93 OFFCURVE",
"67 35 CURVE",
"0 35 LINE",
"-4 25 OFFCURVE",
"-8 9 OFFCURVE",
"-8 -2 CURVE"
);
},
{
closed = 1;
nodes = (
"451 248 OFFCURVE",
"461 248 OFFCURVE",
"473 250 CURVE",
"519 470 LINE",
"507 472 OFFCURVE",
"499 472 OFFCURVE",
"487 470 CURVE",
"472 408 OFFCURVE",
"441 380 OFFCURVE",
"385 380 CURVE SMOOTH",
"225 380 LINE",
"217 340 LINE",
"377 340 LINE SMOOTH",
"432 340 OFFCURVE",
"452 312 OFFCURVE",
"441 250 CURVE"
);
}
);
width = 623;
},
{
associatedMasterId = "45069982-2EFC-4B7D-8C53-1932E6EAC4CA";
layerId = "60009E37-1443-40CD-9C6F-0B5F08E8891D";
name = "Nov 1 20, 18:56";
paths = (
{
closed = 1;
nodes = (
"540 0 LINE",
"540 175 LINE",
"512 175 LINE",
"512 99 OFFCURVE",
"469 28 OFFCURVE",
"400 28 CURVE SMOOTH",
"232 28 LINE",
"224 74 OFFCURVE",
"220 121 OFFCURVE",
"220 168 CURVE SMOOTH",
"220 350 LINE",
"382 350 LINE SMOOTH",
"405 350 OFFCURVE",
"424 332 OFFCURVE",
"424 310 CURVE SMOOTH",
"424 284 LINE",
"452 284 LINE",
"452 444 LINE",
"424 444 LINE",
"424 418 LINE SMOOTH",
"424 396 OFFCURVE",
"405 378 OFFCURVE",
"382 378 CURVE SMOOTH",
"220 378 LINE",
"220 532 LINE SMOOTH",
"220 579 OFFCURVE",
"224 626 OFFCURVE",
"232 672 CURVE",
"356 672 LINE SMOOTH",
"425 672 OFFCURVE",
"468 601 OFFCURVE",
"468 525 CURVE",
"496 525 LINE",
"496 700 LINE",
"32 700 LINE",
"32 672 LINE",
"98 672 LINE",
"106 626 OFFCURVE",
"110 579 OFFCURVE",
"110 532 CURVE SMOOTH",
"110 168 LINE SMOOTH",
"110 121 OFFCURVE",
"106 74 OFFCURVE",
"98 28 CURVE",
"32 28 LINE",
"32 0 LINE"
);
}
);
width = 606;
}
);
leftKerningGroup = H;
rightKerningGroup = E;
unicode = 0045;
},
{
glyphname = F;
lastChange = "2020-11-29 15:05:20 +0000";
layers = (
{
anchors = (
{
name = bottom;
position = "{229, 0}";
},
{
name = top;
position = "{378, 700}";
}
);
layerId = "45069982-2EFC-4B7D-8C53-1932E6EAC4CA";
paths = (
{
closed = 1;
nodes = (
"42 0 OFFCURVE",
"87 0 OFFCURVE",
"133 0 CURVE SMOOTH",
"181 0 OFFCURVE",
"224 0 OFFCURVE",
"290 -2 CURVE",
"294 8 OFFCURVE",
"298 25 OFFCURVE",
"298 35 CURVE",
"206 35 LINE",
"212 103 OFFCURVE",
"223 161 OFFCURVE",
"233 210 CURVE SMOOTH",
"293 490 LINE SMOOTH",
"307 557 OFFCURVE",
"319 599 OFFCURVE",
"339 660 CURVE",
"447 660 LINE SMOOTH",
"544 660 OFFCURVE",
"574 628 OFFCURVE",
"557 520 CURVE",
"568 518 OFFCURVE",
"578 518 OFFCURVE",
"589 520 CURVE",
"627 700 LINE",
"282 700 LINE SMOOTH",
"236 700 OFFCURVE",
"191 700 OFFCURVE",
"146 702 CURVE",
"142 692 OFFCURVE",
"138 675 OFFCURVE",
"138 665 CURVE",
"210 665 LINE",
"203 595 OFFCURVE",
"194 541 OFFCURVE",
"183 490 CURVE SMOOTH",
"123 210 LINE SMOOTH",
"112 159 OFFCURVE",
"96 95 OFFCURVE",
"76 35 CURVE",
"4 35 LINE",
"0 25 OFFCURVE",
"-4 9 OFFCURVE",
"-4 -2 CURVE"
);
},
{
closed = 1;
nodes = (
"458 248 OFFCURVE",
"468 248 OFFCURVE",
"480 250 CURVE",
"522 450 LINE",
"511 452 OFFCURVE",
"501 452 OFFCURVE",
"490 450 CURVE",
"475 388 OFFCURVE",
"455 370 OFFCURVE",
"410 370 CURVE SMOOTH",
"212 370 LINE",
"204 330 LINE",
"402 330 LINE SMOOTH",
"447 330 OFFCURVE",
"459 312 OFFCURVE",
"448 250 CURVE"
);
}
);
width = 567;
},
{
anchors = (
{
name = bottom;
position = "{231, 0}";
},
{
name = top;
position = "{380, 700}";
}
);
layerId = "503E420B-61F7-4277-A1BE-A8852071B452";
paths = (
{
closed = 1;
nodes = (
"38 0 OFFCURVE",
"98 0 OFFCURVE",
"144 0 CURVE SMOOTH",
"190 0 OFFCURVE",
"250 0 OFFCURVE",
"326 -2 CURVE",
"330 8 OFFCURVE",
"334 25 OFFCURVE",
"334 35 CURVE",
"237 35 LINE",
"243 104 OFFCURVE",
"253 156 OFFCURVE",
"264 210 CURVE SMOOTH",
"324 490 LINE SMOOTH",
"338 557 OFFCURVE",
"350 599 OFFCURVE",
"370 660 CURVE",
"448 660 LINE SMOOTH",
"551 660 OFFCURVE",
"580 600 OFFCURVE",
"566 510 CURVE",
"578 508 OFFCURVE",
"586 508 OFFCURVE",
"598 510 CURVE",
"638 700 LINE",
"293 700 LINE SMOOTH",
"247 700 OFFCURVE",
"187 700 OFFCURVE",
"142 702 CURVE",
"138 692 OFFCURVE",
"134 675 OFFCURVE",
"134 665 CURVE",
"201 665 LINE",
"196 610 OFFCURVE",
"188 557 OFFCURVE",
"174 490 CURVE SMOOTH",
"114 210 LINE SMOOTH",
"101 150 OFFCURVE",
"86 93 OFFCURVE",
"67 35 CURVE",
"0 35 LINE",
"-4 25 OFFCURVE",
"-8 9 OFFCURVE",
"-8 -2 CURVE"
);
},
{
closed = 1;
nodes = (
"470 238 OFFCURVE",
"478 238 OFFCURVE",
"490 240 CURVE",
"537 460 LINE",
"525 462 OFFCURVE",
"517 462 OFFCURVE",
"505 460 CURVE",
"490 398 OFFCURVE",
"459 370 OFFCURVE",
"403 370 CURVE SMOOTH",
"223 370 LINE",
"215 330 LINE",
"395 330 LINE SMOOTH",
"450 330 OFFCURVE",
"470 302 OFFCURVE",
"458 240 CURVE"
);
}
);
width = 577;
}
);
leftKerningGroup = H;
unicode = 0046;
},
{
glyphname = G;
lastChange = "2020-11-29 15:05:20 +0000";
layers = (
{
anchors = (
{
name = bottom;
position = "{388, 0}";
},
{
name = top;
position = "{531, 700}";
}
);
layerId = "45069982-2EFC-4B7D-8C53-1932E6EAC4CA";
paths = (
{
closed = 1;
nodes = (
"481 -15 OFFCURVE",
"568 9 OFFCURVE",
"633 40 CURVE",
"654 137 OFFCURVE",
"672 203 OFFCURVE",
"691 265 CURVE",
"743 265 LINE",
"747 275 OFFCURVE",
"751 291 OFFCURVE",
"751 302 CURVE",
"705 300 OFFCURVE",
"680 300 OFFCURVE",
"634 300 CURVE SMOOTH",
"598 300 OFFCURVE",
"543 300 OFFCURVE",
"497 302 CURVE",
"493 292 OFFCURVE",
"489 275 OFFCURVE",
"489 265 CURVE",
"571 265 LINE",
"565 204 OFFCURVE",
"553 143 OFFCURVE",
"533 67 CURVE",
"499 43 OFFCURVE",
"438 27 OFFCURVE",
"387 27 CURVE SMOOTH",
"251 27 OFFCURVE",
"200 126 OFFCURVE",
"200 278 CURVE SMOOTH",
"200 525 OFFCURVE",
"335 673 OFFCURVE",
"515 673 CURVE SMOOTH",
"619 673 OFFCURVE",
"685 622 OFFCURVE",
"683 495 CURVE",
"695 493 OFFCURVE",
"703 493 OFFCURVE",
"715 495 CURVE",
"752 670 LINE",
"708 692 OFFCURVE",
"629 715 OFFCURVE",
"530 715 CURVE SMOOTH",
"261 715 OFFCURVE",
"75 543 OFFCURVE",
"75 278 CURVE SMOOTH",
"75 82 OFFCURVE",
"186 -15 OFFCURVE",
"378 -15 CURVE SMOOTH"
);
}
);
width = 763;
},
{
anchors = (
{
name = bottom;
position = "{370, 0}";
},
{
name = top;
position = "{529, 700}";
}
);
layerId = "503E420B-61F7-4277-A1BE-A8852071B452";
paths = (
{
closed = 1;
nodes = (
"463 -15 OFFCURVE",
"550 3 OFFCURVE",
"649 50 CURVE",
"671 150 OFFCURVE",
"685 204 OFFCURVE",
"705 265 CURVE",
"757 265 LINE",
"761 275 OFFCURVE",
"765 291 OFFCURVE",
"765 302 CURVE",
"719 300 OFFCURVE",
"674 300 OFFCURVE",
"628 300 CURVE SMOOTH",
"572 300 OFFCURVE",
"522 300 OFFCURVE",
"476 302 CURVE",
"472 292 OFFCURVE",
"468 275 OFFCURVE",
"468 265 CURVE",
"547 265 LINE",
"542 209 OFFCURVE",
"534 155 OFFCURVE",
"514 66 CURVE",
"479 40 OFFCURVE",
"440 27 OFFCURVE",
"398 27 CURVE SMOOTH",
"279 27 OFFCURVE",
"237 127 OFFCURVE",
"237 279 CURVE SMOOTH",
"237 539 OFFCURVE",
"358 673 OFFCURVE",
"519 673 CURVE SMOOTH",
"623 673 OFFCURVE",
"682 616 OFFCURVE",
"679 485 CURVE",
"690 483 OFFCURVE",
"700 483 OFFCURVE",
"711 485 CURVE",
"750 670 LINE",
"686 702 OFFCURVE",
"609 715 OFFCURVE",
"533 715 CURVE SMOOTH",
"255 715 OFFCURVE",
"67 534 OFFCURVE",
"67 284 CURVE SMOOTH",
"67 100 OFFCURVE",
"172 -15 OFFCURVE",
"382 -15 CURVE SMOOTH"
);
}
);
width = 771;
}
);
leftKerningGroup = O;
rightKerningGroup = G;
unicode = 0047;
},
{
glyphname = H;
lastChange = "2020-11-29 15:05:20 +0000";
layers = (
{
anchors = (
{
name = bottom;
position = "{358, 0}";
},
{
name = center;
position = "{433, 350}";
},
{
name = ogonek;
position = "{650, 0}";
},
{
name = top;
position = "{507, 700}";
},
{
name = topleft;
position = "{127, 700}";
}
);
layerId = "45069982-2EFC-4B7D-8C53-1932E6EAC4CA";
paths = (
{
closed = 1;
nodes = (
"492 0 OFFCURVE",
"537 0 OFFCURVE",
"583 0 CURVE SMOOTH",
"628 0 OFFCURVE",
"675 0 OFFCURVE",
"720 -2 CURVE",
"724 8 OFFCURVE",
"728 24 OFFCURVE",
"728 35 CURVE",
"656 35 LINE",
"662 99 OFFCURVE",
"671 155 OFFCURVE",
"683 210 CURVE SMOOTH",
"743 490 LINE SMOOTH",
"757 556 OFFCURVE",
"770 604 OFFCURVE",
"790 665 CURVE",
"862 665 LINE",
"866 675 OFFCURVE",
"870 693 OFFCURVE",
"870 702 CURVE",
"823 700 OFFCURVE",
"778 700 OFFCURVE",
"732 700 CURVE SMOOTH",
"686 700 OFFCURVE",
"641 700 OFFCURVE",
"596 702 CURVE",
"592 693 OFFCURVE",
"588 676 OFFCURVE",
"588 665 CURVE",
"660 665 LINE",
"653 595 OFFCURVE",
"644 541 OFFCURVE",
"633 490 CURVE SMOOTH",
"573 210 LINE SMOOTH",
"560 150 OFFCURVE",
"546 98 OFFCURVE",
"526 35 CURVE",
"454 35 LINE",
"450 25 OFFCURVE",
"446 9 OFFCURVE",
"446 -2 CURVE"
);
},
{
closed = 1;
nodes = (
"42 0 OFFCURVE",
"87 0 OFFCURVE",
"133 0 CURVE SMOOTH",
"180 0 OFFCURVE",
"224 0 OFFCURVE",
"270 -2 CURVE",
"274 8 OFFCURVE",
"278 25 OFFCURVE",
"278 35 CURVE",
"206 35 LINE",
"212 103 OFFCURVE",
"223 161 OFFCURVE",
"233 210 CURVE SMOOTH",
"293 490 LINE SMOOTH",
"307 556 OFFCURVE",
"320 604 OFFCURVE",
"340 665 CURVE",
"412 665 LINE",
"416 675 OFFCURVE",
"420 693 OFFCURVE",
"420 702 CURVE",
"373 700 OFFCURVE",
"328 700 OFFCURVE",
"282 700 CURVE SMOOTH",
"236 700 OFFCURVE",
"191 700 OFFCURVE",
"146 702 CURVE",
"142 692 OFFCURVE",
"138 675 OFFCURVE",
"138 665 CURVE",
"210 665 LINE",
"203 595 OFFCURVE",
"194 541 OFFCURVE",
"183 490 CURVE SMOOTH",
"123 210 LINE SMOOTH",
"112 159 OFFCURVE",
"96 95 OFFCURVE",
"76 35 CURVE",
"4 35 LINE",
"0 25 OFFCURVE",
"-4 9 OFFCURVE",
"-4 -2 CURVE"
);
},
{
closed = 1;
nodes = (
"635 350 LINE",
"643 390 LINE",
"199 390 LINE",
"191 350 LINE"
);
}
);
width = 812;
},
{
anchors = (
{
name = bottom;
position = "{369, 0}";
},
{
name = center;
position = "{444, 350}";
},
{
name = ogonek;
position = "{656, 0}";
},
{
name = top;
position = "{518, 700}";
},
{
name = topleft;
position = "{120, 700}";
}
);
layerId = "503E420B-61F7-4277-A1BE-A8852071B452";
paths = (
{
closed = 1;
nodes = (
"488 0 OFFCURVE",
"548 0 OFFCURVE",
"594 0 CURVE SMOOTH",
"639 0 OFFCURVE",
"701 0 OFFCURVE",
"746 -2 CURVE",
"750 8 OFFCURVE",
"754 24 OFFCURVE",
"754 35 CURVE",
"687 35 LINE",
"693 104 OFFCURVE",
"703 156 OFFCURVE",
"714 210 CURVE SMOOTH",
"774 490 LINE SMOOTH",
"787 550 OFFCURVE",
"802 607 OFFCURVE",
"821 665 CURVE",
"888 665 LINE",
"892 675 OFFCURVE",
"896 693 OFFCURVE",
"896 702 CURVE",
"849 700 OFFCURVE",
"789 700 OFFCURVE",
"743 700 CURVE SMOOTH",
"697 700 OFFCURVE",
"637 700 OFFCURVE",
"592 702 CURVE",
"588 693 OFFCURVE",
"584 676 OFFCURVE",
"584 665 CURVE",
"651 665 LINE",
"646 610 OFFCURVE",
"638 557 OFFCURVE",
"624 490 CURVE SMOOTH",
"564 210 LINE SMOOTH",
"551 150 OFFCURVE",
"536 93 OFFCURVE",
"517 35 CURVE",
"450 35 LINE",
"446 25 OFFCURVE",
"442 9 OFFCURVE",
"442 -2 CURVE"
);
},
{
closed = 1;
nodes = (
"38 0 OFFCURVE",
"98 0 OFFCURVE",
"144 0 CURVE SMOOTH",
"190 0 OFFCURVE",
"250 0 OFFCURVE",
"296 -2 CURVE",
"300 8 OFFCURVE",
"304 25 OFFCURVE",
"304 35 CURVE",
"237 35 LINE",
"243 104 OFFCURVE",
"253 156 OFFCURVE",
"264 210 CURVE SMOOTH",
"324 490 LINE SMOOTH",
"337 550 OFFCURVE",
"352 607 OFFCURVE",
"371 665 CURVE",
"438 665 LINE",
"442 675 OFFCURVE",
"446 693 OFFCURVE",
"446 702 CURVE",
"399 700 OFFCURVE",
"339 700 OFFCURVE",
"293 700 CURVE SMOOTH",
"247 700 OFFCURVE",
"187 700 OFFCURVE",
"142 702 CURVE",
"138 692 OFFCURVE",
"134 675 OFFCURVE",
"134 665 CURVE",
"201 665 LINE",
"196 610 OFFCURVE",
"188 557 OFFCURVE",
"174 490 CURVE SMOOTH",
"114 210 LINE SMOOTH",
"101 150 OFFCURVE",
"86 93 OFFCURVE",
"67 35 CURVE",
"0 35 LINE",
"-4 25 OFFCURVE",
"-8 9 OFFCURVE",
"-8 -2 CURVE"
);
},
{
closed = 1;
nodes = (
"653 350 LINE",
"661 390 LINE",
"217 390 LINE",
"209 350 LINE"
);
}
);
width = 837;
}
);
leftKerningGroup = H;
rightKerningGroup = H;
unicode = 0048;
},
{
glyphname = Hbar;
lastChange = "2020-11-29 15:05:20 +0000";
layers = (
{
components = (
{
name = H;
transform = "{1, 0, 0, 1, 6, 0}";
}
);
layerId = "45069982-2EFC-4B7D-8C53-1932E6EAC4CA";
paths = (
{
closed = 1;
nodes = (
"856 507 OFFCURVE",
"860 523 OFFCURVE",
"860 540 CURVE",
"99 540 LINE",
"93 523 OFFCURVE",
"89 507 OFFCURVE",
"89 490 CURVE",
"850 490 LINE"
);
}
);
width = 820;
},
{
components = (
{
name = H;
transform = "{1, 0, 0, 1, 1, 0}";
}
);
layerId = "503E420B-61F7-4277-A1BE-A8852071B452";
paths = (
{
closed = 1;
nodes = (
"862 507 OFFCURVE",
"866 523 OFFCURVE",
"866 540 CURVE",
"106 540 LINE",
"100 523 OFFCURVE",
"96 507 OFFCURVE",
"96 490 CURVE",
"856 490 LINE"
);
}
);
width = 840;
}
);
leftKerningGroup = H;
rightKerningGroup = H;
unicode = 0126;
},
{
glyphname = I;
lastChange = "2020-11-29 15:05:20 +0000";
layers = (
{
anchors = (
{
name = bottom;
position = "{133, 0}";
},
{
name = ogonek;
position = "{200, 0}";
},
{
name = top;
position = "{282, 700}";
},
{
name = topleft;
position = "{122, 700}";
}
);
layerId = "45069982-2EFC-4B7D-8C53-1932E6EAC4CA";
paths = (
{
closed = 1;
nodes = (
"42 0 OFFCURVE",
"87 0 OFFCURVE",
"133 0 CURVE SMOOTH",
"180 0 OFFCURVE",
"224 0 OFFCURVE",
"270 -2 CURVE",
"274 8 OFFCURVE",
"278 25 OFFCURVE",
"278 35 CURVE",
"206 35 LINE",
"212 103 OFFCURVE",
"223 161 OFFCURVE",
"233 210 CURVE SMOOTH",
"293 490 LINE SMOOTH",
"307 556 OFFCURVE",
"320 604 OFFCURVE",
"340 665 CURVE",
"412 665 LINE",
"416 675 OFFCURVE",
"420 693 OFFCURVE",
"420 702 CURVE",
"373 700 OFFCURVE",
"328 700 OFFCURVE",
"282 700 CURVE SMOOTH",
"236 700 OFFCURVE",
"191 700 OFFCURVE",
"146 702 CURVE",
"142 692 OFFCURVE",
"138 675 OFFCURVE",
"138 665 CURVE",
"210 665 LINE",
"203 595 OFFCURVE",
"194 541 OFFCURVE",
"183 490 CURVE SMOOTH",
"123 210 LINE SMOOTH",
"112 159 OFFCURVE",
"96 95 OFFCURVE",
"76 35 CURVE",
"4 35 LINE",
"0 25 OFFCURVE",
"-4 9 OFFCURVE",
"-4 -2 CURVE"
);
}
);
width = 362;
},
{
anchors = (
{
name = bottom;
position = "{144, 0}";
},
{
name = ogonek;
position = "{206, 0}";
},
{
name = top;
position = "{293, 700}";
},
{
name = topleft;
position = "{115, 700}";
}
);
layerId = "503E420B-61F7-4277-A1BE-A8852071B452";
paths = (
{
closed = 1;
nodes = (
"38 0 OFFCURVE",
"98 0 OFFCURVE",
"144 0 CURVE SMOOTH",
"190 0 OFFCURVE",
"250 0 OFFCURVE",
"296 -2 CURVE",
"300 8 OFFCURVE",
"304 25 OFFCURVE",
"304 35 CURVE",
"237 35 LINE",
"243 104 OFFCURVE",
"253 156 OFFCURVE",
"264 210 CURVE SMOOTH",
"324 490 LINE SMOOTH",
"337 550 OFFCURVE",
"352 607 OFFCURVE",
"371 665 CURVE",
"438 665 LINE",
"442 675 OFFCURVE",
"446 693 OFFCURVE",
"446 702 CURVE",
"399 700 OFFCURVE",
"339 700 OFFCURVE",
"293 700 CURVE SMOOTH",
"247 700 OFFCURVE",
"187 700 OFFCURVE",
"142 702 CURVE",
"138 692 OFFCURVE",
"134 675 OFFCURVE",
"134 665 CURVE",
"201 665 LINE",
"196 610 OFFCURVE",
"188 557 OFFCURVE",
"174 490 CURVE SMOOTH",
"114 210 LINE SMOOTH",
"101 150 OFFCURVE",
"86 93 OFFCURVE",
"67 35 CURVE",
"0 35 LINE",
"-4 25 OFFCURVE",
"-8 9 OFFCURVE",
"-8 -2 CURVE"
);
}
);
width = 387;
}
);
leftKerningGroup = H;
rightKerningGroup = H;
unicode = 0049;
},
{
glyphname = J;
lastChange = "2020-11-29 15:04:39 +0000";
layers = (
{
anchors = (
{
name = bottom;
position = "{158, 0}";
},
{
name = top;
position = "{307, 700}";
}
);
layerId = "45069982-2EFC-4B7D-8C53-1932E6EAC4CA";
paths = (
{
closed = 1;
nodes = (
"225 -15 OFFCURVE",
"302 35 OFFCURVE",
"325 145 CURVE SMOOTH",
"398 490 LINE SMOOTH",
"411 550 OFFCURVE",
"424 598 OFFCURVE",
"446 665 CURVE",
"518 665 LINE",
"522 676 OFFCURVE",
"525 693 OFFCURVE",
"525 702 CURVE",
"479 700 OFFCURVE",
"434 700 OFFCURVE",
"388 700 CURVE SMOOTH",
"342 700 OFFCURVE",
"297 700 OFFCURVE",
"231 702 CURVE",
"227 691 OFFCURVE",
"224 674 OFFCURVE",
"224 665 CURVE",
"316 665 LINE",
"310 605 OFFCURVE",
"299 545 OFFCURVE",
"288 490 CURVE SMOOTH",
"215 145 LINE SMOOTH",
"198 64 OFFCURVE",
"174 20 OFFCURVE",
"132 20 CURVE SMOOTH",
"93 20 OFFCURVE",
"85 53 OFFCURVE",
"105 145 CURVE",
"0 145 LINE",
"-25 28 OFFCURVE",
"27 -15 OFFCURVE",
"125 -15 CURVE SMOOTH"
);
}
);
width = 456;
},
{
anchors = (
{
name = bottom;
position = "{208, 0}";
},
{
name = top;
position = "{357, 700}";
}
);
layerId = "503E420B-61F7-4277-A1BE-A8852071B452";
paths = (
{
closed = 1;
nodes = (
"253 -15 OFFCURVE",
"364 15 OFFCURVE",
"396 165 CURVE SMOOTH",
"465 490 LINE SMOOTH",
"478 550 OFFCURVE",
"491 606 OFFCURVE",
"512 665 CURVE",
"579 665 LINE",
"583 675 OFFCURVE",
"587 692 OFFCURVE",
"587 702 CURVE",
"541 700 OFFCURVE",
"481 700 OFFCURVE",
"435 700 CURVE SMOOTH",
"389 700 OFFCURVE",
"329 700 OFFCURVE",
"253 702 CURVE",
"249 692 OFFCURVE",
"245 674 OFFCURVE",
"245 665 CURVE",
"342 665 LINE",
"338 612 OFFCURVE",
"329 557 OFFCURVE",
"315 490 CURVE SMOOTH",
"242 145 LINE SMOOTH",
"222 50 OFFCURVE",
"201 20 OFFCURVE",
"162 20 CURVE SMOOTH",
"122 20 OFFCURVE",
"115 65 OFFCURVE",
"136 165 CURVE",
"-4 165 LINE",
"-35 18 OFFCURVE",
"53 -15 OFFCURVE",
"157 -15 CURVE SMOOTH"
);
}
);
width = 517;
},
{
associatedMasterId = "503E420B-61F7-4277-A1BE-A8852071B452";
layerId = "1715D93D-F64C-41DC-AC19-451A84F52DCF";
name = "Nov 3 20, 17:00";
paths = (
{
closed = 1;
nodes = (
"445 668 LINE",
"445 700 LINE",
"139 700 LINE",
"139 668 LINE",
"205 668 LINE",
"213 622 OFFCURVE",
"217 575 OFFCURVE",
"217 528 CURVE SMOOTH",
"217 84 LINE SMOOTH",
"217 53 OFFCURVE",
"216 18 OFFCURVE",
"189 18 CURVE SMOOTH",
"162 18 OFFCURVE",
"161 53 OFFCURVE",
"161 84 CURVE SMOOTH",
"161 150 LINE",
"11 150 LINE",
"11 97 LINE",
"55 6 OFFCURVE",
"88 -14 OFFCURVE",
"189 -14 CURVE SMOOTH",
"296 -14 OFFCURVE",
"367 46 OFFCURVE",
"367 150 CURVE SMOOTH",
"367 528 LINE SMOOTH",
"367 575 OFFCURVE",
"371 622 OFFCURVE",
"379 668 CURVE"
);
}
);
width = 455;
},
{
associatedMasterId = "45069982-2EFC-4B7D-8C53-1932E6EAC4CA";
layerId = "0E9E6A32-06E3-42E8-A682-B4E78E34383A";
name = "Nov 3 20, 17:00";
paths = (
{
closed = 1;
nodes = (
"431 672 LINE",
"431 700 LINE",
"165 700 LINE",
"165 672 LINE",
"231 672 LINE",
"239 626 OFFCURVE",
"243 579 OFFCURVE",
"243 532 CURVE SMOOTH",
"243 70 LINE SMOOTH",
"243 38 OFFCURVE",
"215 14 OFFCURVE",
"183 14 CURVE SMOOTH",
"151 14 OFFCURVE",
"123 38 OFFCURVE",
"123 70 CURVE SMOOTH",
"123 125 LINE",
"13 125 LINE",
"13 81 LINE",
"62 2 OFFCURVE",
"91 -14 OFFCURVE",
"183 -14 CURVE SMOOTH",
"282 -14 OFFCURVE",
"353 33 OFFCURVE",
"353 125 CURVE SMOOTH",
"353 532 LINE SMOOTH",
"353 579 OFFCURVE",
"357 626 OFFCURVE",
"365 672 CURVE"
);
}
);
width = 451;
}
);
unicode = 004A;
},
{
glyphname = K;
lastChange = "2020-11-29 15:05:20 +0000";
layers = (
{
anchors = (
{
name = bottom;
position = "{361, 0}";
},
{
name = top;
position = "{468, 700}";
}
);
layerId = "45069982-2EFC-4B7D-8C53-1932E6EAC4CA";
paths = (
{
closed = 1;
nodes = (
"42 0 OFFCURVE",
"87 0 OFFCURVE",
"133 0 CURVE SMOOTH",
"180 0 OFFCURVE",
"224 0 OFFCURVE",
"270 -2 CURVE",
"274 8 OFFCURVE",
"278 25 OFFCURVE",
"278 35 CURVE",
"206 35 LINE",
"212 103 OFFCURVE",
"223 161 OFFCURVE",
"233 210 CURVE SMOOTH",
"293 490 LINE SMOOTH",
"307 556 OFFCURVE",
"320 604 OFFCURVE",
"340 665 CURVE",
"412 665 LINE",
"416 675 OFFCURVE",
"420 693 OFFCURVE",
"420 702 CURVE",
"373 700 OFFCURVE",
"328 700 OFFCURVE",
"282 700 CURVE SMOOTH",
"236 700 OFFCURVE",
"191 700 OFFCURVE",
"146 702 CURVE",
"142 692 OFFCURVE",
"138 675 OFFCURVE",
"138 665 CURVE",
"210 665 LINE",
"203 595 OFFCURVE",
"194 541 OFFCURVE",
"183 490 CURVE SMOOTH",
"123 210 LINE SMOOTH",
"112 159 OFFCURVE",
"96 95 OFFCURVE",
"76 35 CURVE",
"4 35 LINE",
"0 25 OFFCURVE",
"-4 9 OFFCURVE",
"-4 -2 CURVE"
);
},
{
closed = 1;
nodes = (
"582 -10 OFFCURVE",
"603 -9 OFFCURVE",
"634 0 CURVE",
"639 12 OFFCURVE",
"641 24 OFFCURVE",
"642 35 CURVE",
"583 39 OFFCURVE",
"568 52 OFFCURVE",
"566 107 CURVE SMOOTH",
"560 263 LINE SMOOTH",
"557 334 OFFCURVE",
"531 375 OFFCURVE",
"438 381 CURVE",
"469 388 OFFCURVE",
"499 402 OFFCURVE",
"527 438 CURVE SMOOTH",
"562 483 OFFCURVE",
"596 550 OFFCURVE",
"616 586 CURVE SMOOTH",
"639 627 OFFCURVE",
"656 650 OFFCURVE",
"674 665 CURVE",
"750 665 LINE",
"754 675 OFFCURVE",
"758 693 OFFCURVE",
"758 702 CURVE",
"701 700 OFFCURVE",
"660 700 OFFCURVE",
"634 700 CURVE SMOOTH",
"608 700 OFFCURVE",
"579 700 OFFCURVE",
"524 702 CURVE",
"520 693 OFFCURVE",
"516 676 OFFCURVE",
"516 665 CURVE",
"584 665 LINE",
"580 640 OFFCURVE",
"572 608 OFFCURVE",
"560 582 CURVE SMOOTH",
"538 534 OFFCURVE",
"509 489 OFFCURVE",
"483 455 CURVE SMOOTH",
"454 416 OFFCURVE",
"395 390 OFFCURVE",
"328 390 CURVE SMOOTH",
"266 390 LINE",
"258 350 LINE",
"337 350 LINE SMOOTH",
"432 350 OFFCURVE",
"446 312 OFFCURVE",
"448 243 CURVE SMOOTH",
"452 107 LINE SMOOTH",
"454 28 OFFCURVE",
"472 -10 OFFCURVE",
"551 -10 CURVE SMOOTH"
);
}
);
width = 697;
},
{
anchors = (
{
name = bottom;
position = "{380, 0}";
},
{
name = top;
position = "{483, 700}";
}
);
layerId = "503E420B-61F7-4277-A1BE-A8852071B452";
paths = (
{
closed = 1;
nodes = (
"38 0 OFFCURVE",
"98 0 OFFCURVE",
"144 0 CURVE SMOOTH",
"190 0 OFFCURVE",
"250 0 OFFCURVE",
"296 -2 CURVE",
"300 8 OFFCURVE",
"304 25 OFFCURVE",
"304 35 CURVE",
"237 35 LINE",
"243 104 OFFCURVE",
"252 156 OFFCURVE",
"264 210 CURVE SMOOTH",
"324 490 LINE SMOOTH",
"337 550 OFFCURVE",
"352 607 OFFCURVE",
"371 665 CURVE",
"438 665 LINE",
"442 675 OFFCURVE",
"446 693 OFFCURVE",
"446 702 CURVE",
"399 700 OFFCURVE",
"339 700 OFFCURVE",
"293 700 CURVE SMOOTH",
"247 700 OFFCURVE",
"187 700 OFFCURVE",
"142 702 CURVE",
"138 692 OFFCURVE",
"134 675 OFFCURVE",
"134 665 CURVE",
"201 665 LINE",
"196 610 OFFCURVE",
"188 557 OFFCURVE",
"174 490 CURVE SMOOTH",
"114 210 LINE SMOOTH",
"101 150 OFFCURVE",
"86 93 OFFCURVE",
"67 35 CURVE",
"0 35 LINE",
"-4 25 OFFCURVE",
"-8 9 OFFCURVE",
"-8 -2 CURVE"
);
},
{
closed = 1;
nodes = (
"578 -10 OFFCURVE",
"603 -7 OFFCURVE",
"646 0 CURVE",
"651 12 OFFCURVE",
"653 24 OFFCURVE",
"654 35 CURVE",
"603 39 OFFCURVE",
"589 52 OFFCURVE",
"590 107 CURVE SMOOTH",
"592 238 LINE SMOOTH",
"593 332 OFFCURVE",
"555 381 OFFCURVE",
"462 381 CURVE",
"484 386 OFFCURVE",
"513 398 OFFCURVE",
"547 442 CURVE SMOOTH",
"584 490 OFFCURVE",
"613 545 OFFCURVE",
"636 586 CURVE SMOOTH",
"659 627 OFFCURVE",
"678 650 OFFCURVE",
"693 665 CURVE",
"761 665 LINE",
"765 675 OFFCURVE",
"769 693 OFFCURVE",
"769 702 CURVE",
"712 700 OFFCURVE",
"672 700 OFFCURVE",
"646 700 CURVE SMOOTH",
"620 700 OFFCURVE",
"590 700 OFFCURVE",
"535 702 CURVE",
"531 693 OFFCURVE",
"527 676 OFFCURVE",
"527 665 CURVE",
"602 665 LINE",
"598 640 OFFCURVE",
"589 608 OFFCURVE",
"577 582 CURVE SMOOTH",
"555 534 OFFCURVE",
"529 495 OFFCURVE",
"502 459 CURVE SMOOTH",
"467 412 OFFCURVE",
"397 390 OFFCURVE",
"330 390 CURVE SMOOTH",
"268 390 LINE",
"260 350 LINE",
"339 350 LINE SMOOTH",
"422 350 OFFCURVE",
"449 315 OFFCURVE",
"447 248 CURVE SMOOTH",
"443 107 LINE SMOOTH",
"441 29 OFFCURVE",
"468 -10 OFFCURVE",
"551 -10 CURVE"
);
}
);
width = 708;
},
{
associatedMasterId = "45069982-2EFC-4B7D-8C53-1932E6EAC4CA";
backgroundImage = {
crop = "{{0, 0}, {1500, 441}}";
imagePath = "../../aniawielunska/Downloads/1928–1931_Półtawski_Antykwa-poster.png";
locked = "1";
transform = "{6.719, 0, 0, 6.719, -9151, -1116}";
};
layerId = "63E9D5DE-420E-411E-9407-CD1D96B98881";
name = "Nov 3 20, 23:01";
paths = (
{
closed = 1;
nodes = (
"624 -7 LINE",
"624 21 LINE",
"610 21 LINE SMOOTH",
"566 21 OFFCURVE",
"551 73 OFFCURVE",
"547 122 CURVE SMOOTH",
"539 217 LINE SMOOTH",
"531 314 OFFCURVE",
"436 362 OFFCURVE",
"329 375 CURVE",
"364 393 OFFCURVE",
"395 422 OFFCURVE",
"416 457 CURVE SMOOTH",
"437 490 OFFCURVE",
"449 527 OFFCURVE",
"459 565 CURVE SMOOTH",
"474 617 OFFCURVE",
"498 672 OFFCURVE",
"549 672 CURVE SMOOTH",
"582 672 LINE",
"582 700 LINE",
"409 700 LINE",
"409 672 LINE",
"453 672 LINE",
"443 640 OFFCURVE",
"434 607 OFFCURVE",
"426 574 CURVE SMOOTH",
"417 539 OFFCURVE",
"410 504 OFFCURVE",
"393 472 CURVE SMOOTH",
"360 414 OFFCURVE",
"299 378 OFFCURVE",
"232 378 CURVE SMOOTH",
"214 378 LINE",
"214 532 LINE SMOOTH",
"214 579 OFFCURVE",
"218 626 OFFCURVE",
"226 672 CURVE",
"292 672 LINE",
"292 700 LINE",
"26 700 LINE",
"26 672 LINE",
"92 672 LINE",
"100 626 OFFCURVE",
"104 579 OFFCURVE",
"104 532 CURVE SMOOTH",
"104 168 LINE SMOOTH",
"104 121 OFFCURVE",
"100 74 OFFCURVE",
"92 28 CURVE",
"26 28 LINE",
"26 0 LINE",
"292 0 LINE",
"292 28 LINE",
"226 28 LINE",
"218 74 OFFCURVE",
"214 121 OFFCURVE",
"214 168 CURVE SMOOTH",
"214 350 LINE",
"269 350 LINE SMOOTH",
"368 350 OFFCURVE",
"409 326 OFFCURVE",
"417 231 CURVE SMOOTH",
"427 112 LINE SMOOTH",
"434 24 OFFCURVE",
"463 -7 OFFCURVE",
"551 -7 CURVE SMOOTH"
);
}
);
width = 630;
},
{
associatedMasterId = "503E420B-61F7-4277-A1BE-A8852071B452";
layerId = "0C429CB5-B70F-47A5-A555-33C77D04841A";
name = "Nov 4 20, 15:32";
paths = (
{
closed = 1;
nodes = (
"660 -7 LINE",
"660 25 LINE",
"644 25 LINE SMOOTH",
"602 25 OFFCURVE",
"595 78 OFFCURVE",
"591 126 CURVE SMOOTH",
"583 221 LINE SMOOTH",
"575 320 OFFCURVE",
"516 378 OFFCURVE",
"378 379 CURVE",
"409 398 OFFCURVE",
"435 424 OFFCURVE",
"455 456 CURVE SMOOTH",
"475 489 OFFCURVE",
"487 525 OFFCURVE",
"498 562 CURVE SMOOTH",
"514 614 OFFCURVE",
"538 668 OFFCURVE",
"589 668 CURVE SMOOTH",
"622 668 LINE",
"622 700 LINE",
"441 700 LINE",
"441 668 LINE",
"485 668 LINE",
"476 637 OFFCURVE",
"467 605 OFFCURVE",
"460 574 CURVE SMOOTH",
"452 539 OFFCURVE",
"445 504 OFFCURVE",
"427 473 CURVE SMOOTH",
"397 417 OFFCURVE",
"339 382 OFFCURVE",
"275 382 CURVE SMOOTH",
"250 382 LINE",
"250 528 LINE SMOOTH",
"250 575 OFFCURVE",
"254 622 OFFCURVE",
"262 668 CURVE",
"328 668 LINE",
"328 700 LINE",
"22 700 LINE",
"22 668 LINE",
"88 668 LINE",
"96 622 OFFCURVE",
"100 575 OFFCURVE",
"100 528 CURVE SMOOTH",
"100 172 LINE SMOOTH",
"100 125 OFFCURVE",
"96 78 OFFCURVE",
"88 32 CURVE",
"22 32 LINE",
"22 0 LINE",
"328 0 LINE",
"328 32 LINE",
"262 32 LINE",
"254 78 OFFCURVE",
"250 125 OFFCURVE",
"250 172 CURVE SMOOTH",
"250 350 LINE",
"325 350 LINE SMOOTH",
"403 350 OFFCURVE",
"419 314 OFFCURVE",
"426 231 CURVE SMOOTH",
"436 112 LINE SMOOTH",
"444 21 OFFCURVE",
"488 -7 OFFCURVE",
"560 -7 CURVE SMOOTH"
);
}
);
width = 670;
}
);
leftKerningGroup = H;
rightKerningGroup = K;
unicode = 004B;
},
{
glyphname = L;
lastChange = "2020-11-29 15:05:20 +0000";
layers = (
{
anchors = (
{
name = bottom;
position = "{303, 0}";
},
{
name = center;
position = "{298, 350}";
},
{
name = top;
position = "{282, 700}";
},
{
name = topright;
position = "{592, 700}";
}
);
layerId = "45069982-2EFC-4B7D-8C53-1932E6EAC4CA";
paths = (
{
closed = 1;
nodes = (
"42 0 OFFCURVE",
"87 0 OFFCURVE",
"133 0 CURVE SMOOTH",
"503 0 LINE",
"547 205 LINE",
"536 207 OFFCURVE",
"526 207 OFFCURVE",
"515 205 CURVE",
"486 90 OFFCURVE",
"442 35 OFFCURVE",
"339 35 CURVE SMOOTH",
"206 35 LINE",
"212 103 OFFCURVE",
"223 161 OFFCURVE",
"233 210 CURVE SMOOTH",
"293 490 LINE SMOOTH",
"307 556 OFFCURVE",
"320 604 OFFCURVE",
"340 665 CURVE",
"412 665 LINE",
"416 675 OFFCURVE",
"420 693 OFFCURVE",
"420 702 CURVE",
"373 700 OFFCURVE",
"328 700 OFFCURVE",
"282 700 CURVE SMOOTH",
"236 700 OFFCURVE",
"191 700 OFFCURVE",
"146 702 CURVE",
"142 692 OFFCURVE",
"138 675 OFFCURVE",
"138 665 CURVE",
"210 665 LINE",
"203 595 OFFCURVE",
"194 541 OFFCURVE",
"183 490 CURVE SMOOTH",
"123 210 LINE SMOOTH",
"112 159 OFFCURVE",
"96 95 OFFCURVE",
"76 35 CURVE",
"4 35 LINE",
"0 25 OFFCURVE",
"-4 9 OFFCURVE",
"-4 -2 CURVE"
);
}
);
width = 577;
},
{
anchors = (
{
name = bottom;
position = "{278, 0}";
},
{
name = center;
position = "{303, 350}";
},
{
name = top;
position = "{307, 700}";
},
{
name = topright;
position = "{578, 700}";
}
);
layerId = "503E420B-61F7-4277-A1BE-A8852071B452";
paths = (
{
closed = 1;
nodes = (
"38 0 OFFCURVE",
"98 0 OFFCURVE",
"144 0 CURVE SMOOTH",
"509 0 LINE",
"554 210 LINE",
"543 212 OFFCURVE",
"533 212 OFFCURVE",
"522 210 CURVE",
"496 110 OFFCURVE",
"439 40 OFFCURVE",
"336 40 CURVE SMOOTH",
"238 40 LINE",
"244 105 OFFCURVE",
"253 158 OFFCURVE",
"264 210 CURVE SMOOTH",
"324 490 LINE SMOOTH",
"337 550 OFFCURVE",
"352 607 OFFCURVE",
"371 665 CURVE",
"438 665 LINE",
"442 675 OFFCURVE",
"446 693 OFFCURVE",
"446 702 CURVE",
"399 700 OFFCURVE",
"339 700 OFFCURVE",
"293 700 CURVE SMOOTH",
"247 700 OFFCURVE",
"187 700 OFFCURVE",
"142 702 CURVE",
"138 692 OFFCURVE",
"134 675 OFFCURVE",
"134 665 CURVE",
"201 665 LINE",
"196 610 OFFCURVE",
"188 557 OFFCURVE",
"174 490 CURVE SMOOTH",
"114 210 LINE SMOOTH",
"101 150 OFFCURVE",
"86 93 OFFCURVE",
"67 35 CURVE",
"0 35 LINE",
"-4 25 OFFCURVE",
"-8 9 OFFCURVE",
"-8 -2 CURVE"
);
}
);
width = 581;
}
);
leftKerningGroup = H;
rightKerningGroup = L;
unicode = 004C;
},
{
glyphname = Lslash;
lastChange = "2020-11-29 15:05:20 +0000";
layers = (
{
components = (
{
name = L;
transform = "{1, 0, 0, 1, 41, 0}";
}
);
layerId = "45069982-2EFC-4B7D-8C53-1932E6EAC4CA";
paths = (
{
closed = 1;
nodes = (
"78 279 OFFCURVE",
"29 228 OFFCURVE",
"14 173 CURVE",
"42 168 OFFCURVE",
"56 168 OFFCURVE",
"84 173 CURVE",
"93 220 OFFCURVE",
"115 255 OFFCURVE",
"183 275 CURVE",
"186 305 LINE"
);
},
{
closed = 1;
nodes = (
"388 325 OFFCURVE",
"524 394 OFFCURVE",
"545 520 CURVE",
"517 525 OFFCURVE",
"499 525 OFFCURVE",
"470 520 CURVE",
"460 403 OFFCURVE",
"352 350 OFFCURVE",
"294 329 CURVE",
"291 299 LINE"
);
}
);
width = 618;
},
{
components = (
{
name = L;
transform = "{1, 0, 0, 1, 45, 0}";
}
);
layerId = "503E420B-61F7-4277-A1BE-A8852071B452";
paths = (
{
closed = 1;
nodes = (
"75 280 OFFCURVE",
"19 229 OFFCURVE",
"4 173 CURVE",
"32 168 OFFCURVE",
"66 168 OFFCURVE",
"94 173 CURVE",
"103 220 OFFCURVE",
"109 249 OFFCURVE",
"178 269 CURVE",
"181 305 LINE"
);
},
{
closed = 1;
nodes = (
"423 325 OFFCURVE",
"560 394 OFFCURVE",
"581 520 CURVE",
"552 525 OFFCURVE",
"510 525 OFFCURVE",
"481 520 CURVE",
"471 403 OFFCURVE",
"387 354 OFFCURVE",
"329 333 CURVE",
"326 299 LINE"
);
}
);
width = 627;
}
);
rightKerningGroup = L;
unicode = 0141;
},
{
glyphname = M;
lastChange = "2020-11-29 15:05:20 +0000";
layers = (
{
anchors = (
{
name = bottom;
position = "{433, 0}";
},
{
name = top;
position = "{582, 700}";
}
);
guideLines = (
{
angle = 247.3287;
position = "{588, 550}";
},
{
angle = -67.2258;
position = "{276, 560}";
}
);
layerId = "45069982-2EFC-4B7D-8C53-1932E6EAC4CA";
paths = (
{
closed = 1;
nodes = (
"383 -13 OFFCURVE",
"409 -13 OFFCURVE",
"426 -10 CURVE",
"444 41 OFFCURVE",
"467 91 OFFCURVE",
"491 130 CURVE SMOOTH",
"791 614 LINE",
"790 595 OFFCURVE",
"782 539 OFFCURVE",
"772 490 CURVE SMOOTH",
"712 210 LINE SMOOTH",
"699 150 OFFCURVE",
"685 98 OFFCURVE",
"665 35 CURVE",
"593 35 LINE",
"589 25 OFFCURVE",
"585 9 OFFCURVE",
"585 -2 CURVE",
"631 0 OFFCURVE",
"676 0 OFFCURVE",
"722 0 CURVE SMOOTH",
"767 0 OFFCURVE",
"814 0 OFFCURVE",
"859 -2 CURVE",
"863 8 OFFCURVE",
"867 24 OFFCURVE",
"867 35 CURVE",
"795 35 LINE",
"801 103 OFFCURVE",
"812 161 OFFCURVE",
"822 210 CURVE SMOOTH",
"882 490 LINE SMOOTH",
"896 556 OFFCURVE",
"909 604 OFFCURVE",
"929 665 CURVE",
"1001 665 LINE",
"1005 675 OFFCURVE",
"1009 693 OFFCURVE",
"1009 702 CURVE",
"962 700 OFFCURVE",
"917 700 OFFCURVE",
"871 700 CURVE SMOOTH",
"772 700 LINE",
"745 636 OFFCURVE",
"728 603 OFFCURVE",
"691 542 CURVE SMOOTH",
"460 165 LINE",
"382 560 LINE SMOOTH",
"374 600 OFFCURVE",
"369 649 OFFCURVE",
"369 700 CURVE",
"251 700 LINE SMOOTH",
"227 700 OFFCURVE",
"192 700 OFFCURVE",
"147 702 CURVE",
"143 692 OFFCURVE",
"139 675 OFFCURVE",
"139 665 CURVE",
"206 665 LINE",
"202 595 OFFCURVE",
"194 539 OFFCURVE",
"184 490 CURVE SMOOTH",
"124 210 LINE SMOOTH",
"112 156 OFFCURVE",
"96 95 OFFCURVE",
"72 35 CURVE",
"5 35 LINE",
"1 25 OFFCURVE",
"-3 9 OFFCURVE",
"-3 -2 CURVE",
"43 0 OFFCURVE",
"78 0 OFFCURVE",
"102 0 CURVE SMOOTH",
"127 0 OFFCURVE",
"172 0 OFFCURVE",
"218 -2 CURVE",
"222 8 OFFCURVE",
"226 25 OFFCURVE",
"226 35 CURVE",
"149 35 LINE",
"151 109 OFFCURVE",
"161 161 OFFCURVE",
"171 210 CURVE SMOOTH",
"231 490 LINE SMOOTH",
"241 537 OFFCURVE",
"256 594 OFFCURVE",
"261 614 CURVE",
"352 156 LINE SMOOTH",
"364 93 OFFCURVE",
"368 41 OFFCURVE",
"366 -10 CURVE"
);
}
);
width = 951;
},
{
anchors = (
{
name = bottom;
position = "{439, 0}";
},
{
name = top;
position = "{588, 700}";
}
);
layerId = "503E420B-61F7-4277-A1BE-A8852071B452";
paths = (
{
closed = 1;
nodes = (
"383 -13 OFFCURVE",
"409 -13 OFFCURVE",
"426 -10 CURVE",
"450 52 OFFCURVE",
"466 89 OFFCURVE",
"491 130 CURVE SMOOTH",
"784 614 LINE",
"783 595 OFFCURVE",
"775 539 OFFCURVE",
"765 490 CURVE SMOOTH",
"705 210 LINE SMOOTH",
"692 150 OFFCURVE",
"677 93 OFFCURVE",
"658 35 CURVE",
"591 35 LINE",
"587 25 OFFCURVE",
"583 9 OFFCURVE",
"583 -2 CURVE",
"629 0 OFFCURVE",
"689 0 OFFCURVE",
"735 0 CURVE SMOOTH",
"780 0 OFFCURVE",
"842 0 OFFCURVE",
"887 -2 CURVE",
"891 8 OFFCURVE",
"895 24 OFFCURVE",
"895 35 CURVE",
"828 35 LINE",
"834 104 OFFCURVE",
"843 156 OFFCURVE",
"855 210 CURVE SMOOTH",
"915 490 LINE SMOOTH",
"928 550 OFFCURVE",
"943 607 OFFCURVE",
"962 665 CURVE",
"1029 665 LINE",
"1033 675 OFFCURVE",
"1037 693 OFFCURVE",
"1037 702 CURVE",
"990 700 OFFCURVE",
"930 700 OFFCURVE",
"884 700 CURVE SMOOTH",
"766 700 LINE",
"744 646 OFFCURVE",
"722 603 OFFCURVE",
"685 542 CURVE SMOOTH",
"490 218 LINE",
"413 560 LINE SMOOTH",
"403 606 OFFCURVE",
"393 656 OFFCURVE",
"392 700 CURVE",
"244 700 LINE SMOOTH",
"220 700 OFFCURVE",
"185 700 OFFCURVE",
"140 702 CURVE",
"136 692 OFFCURVE",
"132 675 OFFCURVE",
"132 665 CURVE",
"199 665 LINE",
"195 595 OFFCURVE",
"187 539 OFFCURVE",
"177 490 CURVE SMOOTH",
"117 210 LINE SMOOTH",
"105 156 OFFCURVE",
"89 95 OFFCURVE",
"65 35 CURVE",
"-2 35 LINE",
"-6 25 OFFCURVE",
"-10 9 OFFCURVE",
"-10 -2 CURVE",
"36 0 OFFCURVE",
"71 0 OFFCURVE",
"95 0 CURVE SMOOTH",
"120 0 OFFCURVE",
"165 0 OFFCURVE",
"221 -2 CURVE",
"225 8 OFFCURVE",
"229 25 OFFCURVE",
"229 35 CURVE",
"142 35 LINE",
"144 109 OFFCURVE",
"154 161 OFFCURVE",
"164 210 CURVE SMOOTH",
"224 490 LINE SMOOTH",
"235 541 OFFCURVE",
"244 573 OFFCURVE",
"250 594 CURVE",
"354 130 LINE SMOOTH",
"365 79 OFFCURVE",
"369 38 OFFCURVE",
"366 -10 CURVE"
);
}
);
width = 978;
},
{
associatedMasterId = "45069982-2EFC-4B7D-8C53-1932E6EAC4CA";
backgroundImage = {
crop = "{{0, 0}, {1500, 441}}";
imagePath = "../../aniawielunska/Downloads/1928–1931_Półtawski_Antykwa-poster.png";
transform = "{6.719, 0, 0, 6.719, -2793, -20}";
};
components = (
{
alignment = -1;
name = _COM_I_serif;
transform = "{1, 0, 0, 1, 521, 0}";
},
{
alignment = -1;
name = _COM_I_serif;
transform = "{-1, 0, 0, 1, 799, 0}";
},
{
alignment = -1;
name = _COM_I_serif;
transform = "{-1, 0, 0, -1, 799, 700}";
}
);
layerId = "600275E2-B519-48EF-8B28-D3730BC0750D";
name = "Nov 3 20, 23:13";
paths = (
{
closed = 1;
nodes = (
"605 350 LINE",
"660 350 LINE",
"660 700 LINE",
"580 700 LINE",
"570 652 OFFCURVE",
"561 607 OFFCURVE",
"537 542 CURVE SMOOTH",
"416 211 LINE",
"284 560 LINE SMOOTH",
"267 606 OFFCURVE",
"253 652 OFFCURVE",
"243 700 CURVE",
"110 700 LINE",
"136 614 LINE",
"313 140 LINE SMOOTH",
"330 94 OFFCURVE",
"343 48 OFFCURVE",
"353 0 CURVE",
"391 0 LINE",
"401 48 OFFCURVE",
"416 93 OFFCURVE",
"432 140 CURVE SMOOTH",
"598 610 LINE",
"601 584 OFFCURVE",
"602 558 OFFCURVE",
"602 532 CURVE"
);
},
{
closed = 1;
nodes = (
"51 0 OFFCURVE",
"86 0 OFFCURVE",
"110 0 CURVE SMOOTH",
"133 0 OFFCURVE",
"178 0 OFFCURVE",
"224 -2 CURVE",
"226 8 OFFCURVE",
"226 25 OFFCURVE",
"224 35 CURVE",
"147 35 LINE",
"136 95 OFFCURVE",
"132 150 OFFCURVE",
"132 210 CURVE SMOOTH",
"132 490 LINE SMOOTH",
"132 540 OFFCURVE",
"135 595 OFFCURVE",
"139 635 CURVE",
"110 700 LINE",
"86 700 OFFCURVE",
"51 700 OFFCURVE",
"5 702 CURVE",
"3 692 OFFCURVE",
"3 675 OFFCURVE",
"5 665 CURVE",
"72 665 LINE",
"83 595 OFFCURVE",
"87 540 OFFCURVE",
"87 490 CURVE SMOOTH",
"87 210 LINE SMOOTH",
"87 150 OFFCURVE",
"83 95 OFFCURVE",
"72 35 CURVE",
"5 35 LINE",
"3 25 OFFCURVE",
"3 8 OFFCURVE",
"5 -2 CURVE"
);
}
);
width = 850;
}
);
leftKerningGroup = N;
rightKerningGroup = H;
unicode = 004D;
},
{
glyphname = N;
lastChange = "2020-11-29 15:05:20 +0000";
layers = (
{
anchors = (
{
name = bottom;
position = "{388, 0}";
},
{
name = top;
position = "{487, 700}";
}
);
layerId = "45069982-2EFC-4B7D-8C53-1932E6EAC4CA";
paths = (
{
closed = 1;
nodes = (
"585 -3 OFFCURVE",
"599 -3 OFFCURVE",
"619 0 CURVE",
"614 183 LINE",
"411 591 LINE SMOOTH",
"387 639 OFFCURVE",
"376 668 OFFCURVE",
"368 702 CURVE",
"332 700 OFFCURVE",
"295 700 OFFCURVE",
"251 700 CURVE",
"268 635 LINE",
"515 142 LINE SMOOTH",
"541 90 OFFCURVE",
"555 53 OFFCURVE",
"566 0 CURVE"
);
},
{
closed = 1;
nodes = (
"43 0 OFFCURVE",
"78 0 OFFCURVE",
"102 0 CURVE SMOOTH",
"129 0 OFFCURVE",
"172 0 OFFCURVE",
"218 -2 CURVE",
"222 8 OFFCURVE",
"226 25 OFFCURVE",
"226 35 CURVE",
"149 35 LINE",
"151 109 OFFCURVE",
"161 161 OFFCURVE",
"171 210 CURVE SMOOTH",
"231 490 LINE SMOOTH",
"242 541 OFFCURVE",
"256 594 OFFCURVE",
"268 635 CURVE",
"251 700 LINE",
"227 700 OFFCURVE",
"192 700 OFFCURVE",
"147 702 CURVE",
"143 693 OFFCURVE",
"139 676 OFFCURVE",
"139 665 CURVE",
"206 665 LINE",
"202 595 OFFCURVE",
"194 539 OFFCURVE",
"184 490 CURVE SMOOTH",
"124 210 LINE SMOOTH",
"111 150 OFFCURVE",
"96 97 OFFCURVE",
"72 35 CURVE",
"5 35 LINE",
"1 25 OFFCURVE",
"-3 9 OFFCURVE",
"-3 -2 CURVE"
);
},
{
closed = 1;
nodes = (
"724 490 LINE SMOOTH",
"738 557 OFFCURVE",
"750 594 OFFCURVE",
"776 665 CURVE",
"843 665 LINE",
"847 675 OFFCURVE",
"851 693 OFFCURVE",
"851 702 CURVE",
"804 700 OFFCURVE",
"769 700 OFFCURVE",
"746 700 CURVE SMOOTH",
"720 700 OFFCURVE",
"675 700 OFFCURVE",
"630 702 CURVE",
"626 693 OFFCURVE",
"622 676 OFFCURVE",
"622 665 CURVE",
"699 665 LINE",
"695 595 OFFCURVE",
"689 548 OFFCURVE",
"677 490 CURVE SMOOTH",
"614 183 LINE",
"619 0 LINE"
);
}
);
width = 784;
},
{
anchors = (
{
name = bottom;
position = "{377, 0}";
},
{
name = top;
position = "{516, 700}";
}
);
guideLines = (
{
angle = 258.0814;
position = "{690, 490}";
}
);
layerId = "503E420B-61F7-4277-A1BE-A8852071B452";
paths = (
{
closed = 1;
nodes = (
"571 -3 OFFCURVE",
"608 -3 OFFCURVE",
"632 0 CURVE",
"626 190 LINE",
"419 591 LINE SMOOTH",
"396 636 OFFCURVE",
"385 665 OFFCURVE",
"375 702 CURVE",
"343 700 OFFCURVE",
"288 700 OFFCURVE",
"244 700 CURVE",
"250 593 LINE",
"500 115 LINE SMOOTH",
"525 68 OFFCURVE",
"536 44 OFFCURVE",
"552 0 CURVE"
);
},
{
closed = 1;
nodes = (
"36 0 OFFCURVE",
"71 0 OFFCURVE",
"95 0 CURVE SMOOTH",
"120 0 OFFCURVE",
"165 0 OFFCURVE",
"221 -2 CURVE",
"225 8 OFFCURVE",
"229 25 OFFCURVE",
"229 35 CURVE",
"142 35 LINE",
"144 109 OFFCURVE",
"154 161 OFFCURVE",
"164 210 CURVE SMOOTH",
"224 490 LINE SMOOTH",
"233 530 OFFCURVE",
"241 560 OFFCURVE",
"250 593 CURVE",
"244 700 LINE",
"220 700 OFFCURVE",
"185 700 OFFCURVE",
"140 702 CURVE",
"136 692 OFFCURVE",
"132 675 OFFCURVE",
"132 665 CURVE",
"199 665 LINE",
"195 595 OFFCURVE",
"190 549 OFFCURVE",
"177 490 CURVE SMOOTH",
"117 210 LINE SMOOTH",
"105 156 OFFCURVE",
"89 95 OFFCURVE",
"65 35 CURVE",
"-2 35 LINE",
"-6 25 OFFCURVE",
"-10 9 OFFCURVE",
"-10 -2 CURVE"
);
},
{
closed = 1;
nodes = (
"737 490 LINE SMOOTH",
"751 557 OFFCURVE",
"763 594 OFFCURVE",
"789 665 CURVE",
"856 665 LINE",
"860 675 OFFCURVE",
"864 693 OFFCURVE",
"864 702 CURVE",
"817 700 OFFCURVE",
"782 700 OFFCURVE",
"759 700 CURVE SMOOTH",
"733 700 OFFCURVE",
"688 700 OFFCURVE",
"633 702 CURVE",
"629 693 OFFCURVE",
"625 676 OFFCURVE",
"625 665 CURVE",
"712 665 LINE",
"708 595 OFFCURVE",
"703 549 OFFCURVE",
"690 490 CURVE SMOOTH",
"626 190 LINE",
"632 0 LINE"
);
}
);
width = 794;
},
{
associatedMasterId = "45069982-2EFC-4B7D-8C53-1932E6EAC4CA";
layerId = "BF957949-0343-4FF4-8FF1-492510490FCA";
name = "Nov 3 20, 00:11";
paths = (
{
closed = 1;
nodes = (
"708 672 LINE",
"708 700 LINE",
"524 700 LINE",
"524 672 LINE",
"590 672 LINE",
"598 626 OFFCURVE",
"602 579 OFFCURVE",
"602 532 CURVE SMOOTH",
"602 157 LINE",
"331 560 LINE SMOOTH",
"301 605 OFFCURVE",
"273 652 OFFCURVE",
"249 700 CURVE",
"26 700 LINE",
"26 672 LINE",
"92 672 LINE",
"100 626 OFFCURVE",
"104 579 OFFCURVE",
"104 532 CURVE SMOOTH",
"104 168 LINE SMOOTH",
"104 121 OFFCURVE",
"100 74 OFFCURVE",
"92 28 CURVE",
"26 28 LINE",
"26 0 LINE",
"210 0 LINE",
"210 28 LINE",
"144 28 LINE",
"136 74 OFFCURVE",
"132 121 OFFCURVE",
"132 168 CURVE SMOOTH",
"132 532 LINE SMOOTH",
"132 570 OFFCURVE",
"135 609 OFFCURVE",
"140 646 CURVE",
"575 0 LINE",
"630 0 LINE",
"630 532 LINE SMOOTH",
"630 579 OFFCURVE",
"634 626 OFFCURVE",
"642 672 CURVE"
);
}
);
width = 740;
},
{
associatedMasterId = "503E420B-61F7-4277-A1BE-A8852071B452";
layerId = "9695E5B7-726F-40F9-9BB5-3EF3996D3927";
name = "Nov 3 20, 00:21";
paths = (
{
closed = 1;
nodes = (
"664 668 LINE",
"664 700 LINE",
"476 700 LINE",
"476 668 LINE",
"542 668 LINE",
"550 622 OFFCURVE",
"554 575 OFFCURVE",
"554 528 CURVE SMOOTH",
"554 223 LINE",
"356 560 LINE SMOOTH",
"330 605 OFFCURVE",
"306 652 OFFCURVE",
"286 700 CURVE",
"22 700 LINE",
"22 668 LINE",
"88 668 LINE",
"96 622 OFFCURVE",
"100 575 OFFCURVE",
"100 528 CURVE SMOOTH",
"100 172 LINE SMOOTH",
"100 125 OFFCURVE",
"96 78 OFFCURVE",
"88 32 CURVE",
"22 32 LINE",
"22 0 LINE",
"210 0 LINE",
"210 32 LINE",
"144 32 LINE",
"136 78 OFFCURVE",
"132 125 OFFCURVE",
"132 172 CURVE SMOOTH",
"132 528 LINE SMOOTH",
"132 563 OFFCURVE",
"134 599 OFFCURVE",
"139 634 CURVE",
"511 0 LINE",
"586 0 LINE",
"586 528 LINE SMOOTH",
"586 575 OFFCURVE",
"590 622 OFFCURVE",
"598 668 CURVE"
);
}
);
width = 683;
}
);
leftKerningGroup = N;
rightKerningGroup = N;
unicode = 004E;
},
{
glyphname = Eng;
lastChange = "2020-11-29 15:05:20 +0000";
layers = (
{
anchors = (
{
name = bottom;
position = "{388, 0}";
},
{
name = top;
position = "{487, 700}";
}
);
layerId = "45069982-2EFC-4B7D-8C53-1932E6EAC4CA";
paths = (
{
closed = 1;
nodes = (
"720 700 OFFCURVE",
"675 700 OFFCURVE",
"630 702 CURVE",
"626 693 OFFCURVE",
"622 676 OFFCURVE",
"622 665 CURVE",
"699 665 LINE",
"695 595 OFFCURVE",
"689 548 OFFCURVE",
"677 490 CURVE SMOOTH",
"614 183 LINE",
"411 591 LINE SMOOTH",
"387 639 OFFCURVE",
"376 668 OFFCURVE",
"368 702 CURVE",
"332 700 OFFCURVE",
"295 700 OFFCURVE",
"251 700 CURVE SMOOTH",
"227 700 OFFCURVE",
"192 700 OFFCURVE",
"147 702 CURVE",
"143 693 OFFCURVE",
"139 676 OFFCURVE",
"139 665 CURVE",
"206 665 LINE",
"202 595 OFFCURVE",
"194 539 OFFCURVE",
"184 490 CURVE SMOOTH",
"124 210 LINE SMOOTH",
"111 150 OFFCURVE",
"96 97 OFFCURVE",
"72 35 CURVE",
"5 35 LINE",
"1 25 OFFCURVE",
"-3 9 OFFCURVE",
"-3 -2 CURVE",
"43 0 OFFCURVE",
"78 0 OFFCURVE",
"102 0 CURVE SMOOTH",
"129 0 OFFCURVE",
"172 0 OFFCURVE",
"218 -2 CURVE",
"222 8 OFFCURVE",
"226 25 OFFCURVE",
"226 35 CURVE",
"149 35 LINE",
"151 109 OFFCURVE",
"161 161 OFFCURVE",
"171 210 CURVE SMOOTH",
"231 490 LINE SMOOTH",
"242 541 OFFCURVE",
"256 594 OFFCURVE",
"268 635 CURVE",
"515 142 LINE SMOOTH",
"521 129 OFFCURVE",
"527 118 OFFCURVE",
"532 107 CURVE",
"491 -85 LINE SMOOTH",
"475 -161 OFFCURVE",
"453 -183 OFFCURVE",
"417 -183 CURVE SMOOTH",
"375 -183 OFFCURVE",
"366 -157 OFFCURVE",
"385 -65 CURVE",
"280 -65 LINE",
"255 -182 OFFCURVE",
"306 -225 OFFCURVE",
"405 -225 CURVE SMOOTH",
"506 -225 OFFCURVE",
"582 -175 OFFCURVE",
"603 -75 CURVE SMOOTH",
"724 490 LINE SMOOTH",
"738 557 OFFCURVE",
"750 594 OFFCURVE",
"776 665 CURVE",
"843 665 LINE",
"847 675 OFFCURVE",
"851 693 OFFCURVE",
"851 702 CURVE",
"804 700 OFFCURVE",
"769 700 OFFCURVE",
"746 700 CURVE SMOOTH"
);
}
);
width = 784;
},
{
anchors = (
{
name = bottom;
position = "{377, 0}";
},
{
name = top;
position = "{516, 700}";
}
);
layerId = "503E420B-61F7-4277-A1BE-A8852071B452";
paths = (
{
closed = 1;
nodes = (
"733 700 OFFCURVE",
"688 700 OFFCURVE",
"633 702 CURVE",
"629 693 OFFCURVE",
"625 676 OFFCURVE",
"625 665 CURVE",
"712 665 LINE",
"708 595 OFFCURVE",
"703 549 OFFCURVE",
"690 490 CURVE SMOOTH",
"626 190 LINE",
"419 591 LINE SMOOTH",
"396 636 OFFCURVE",
"385 665 OFFCURVE",
"375 702 CURVE",
"343 700 OFFCURVE",
"288 700 OFFCURVE",
"244 700 CURVE SMOOTH",
"220 700 OFFCURVE",
"185 700 OFFCURVE",
"140 702 CURVE",
"136 692 OFFCURVE",
"132 675 OFFCURVE",
"132 665 CURVE",
"199 665 LINE",
"195 595 OFFCURVE",
"190 549 OFFCURVE",
"177 490 CURVE SMOOTH",
"117 210 LINE SMOOTH",
"105 156 OFFCURVE",
"89 95 OFFCURVE",
"65 35 CURVE",
"-2 35 LINE",
"-6 25 OFFCURVE",
"-10 9 OFFCURVE",
"-10 -2 CURVE",
"36 0 OFFCURVE",
"71 0 OFFCURVE",
"95 0 CURVE SMOOTH",
"120 0 OFFCURVE",
"165 0 OFFCURVE",
"221 -2 CURVE",
"225 8 OFFCURVE",
"229 25 OFFCURVE",
"229 35 CURVE",
"142 35 LINE",
"144 109 OFFCURVE",
"154 161 OFFCURVE",
"164 210 CURVE SMOOTH",
"224 490 LINE SMOOTH",
"233 530 OFFCURVE",
"241 560 OFFCURVE",
"250 593 CURVE",
"500 115 LINE SMOOTH",
"504 107 OFFCURVE",
"508 100 OFFCURVE",
"512 93 CURVE",
"483 -40 LINE SMOOTH",
"463 -136 OFFCURVE",
"441 -158 OFFCURVE",
"405 -158 CURVE SMOOTH",
"365 -158 OFFCURVE",
"362 -115 OFFCURVE",
"374 -60 CURVE",
"239 -60 LINE",
"226 -167 OFFCURVE",
"294 -200 OFFCURVE",
"398 -200 CURVE SMOOTH",
"494 -200 OFFCURVE",
"596 -170 OFFCURVE",
"627 -20 CURVE",
"737 490 LINE",
"751 557 OFFCURVE",
"763 594 OFFCURVE",
"789 665 CURVE",
"856 665 LINE",
"860 675 OFFCURVE",
"864 693 OFFCURVE",
"864 702 CURVE",
"817 700 OFFCURVE",
"782 700 OFFCURVE",
"759 700 CURVE SMOOTH"
);
}
);
width = 794;
}
);
leftKerningGroup = N;
rightKerningGroup = N;
unicode = 014A;
},
{
glyphname = O;
lastChange = "2020-11-29 15:05:20 +0000";
layers = (
{
anchors = (
{
name = bottom;
position = "{366, 0}";
},
{
name = center;
position = "{428, 350}";
},
{
name = ogonek;
position = "{684, 10}";
},
{
name = top;
position = "{490, 700}";
},
{
name = topleft;
position = "{115, 700}";
},
{
name = topright;
position = "{865, 700}";
}
);
layerId = "45069982-2EFC-4B7D-8C53-1932E6EAC4CA";
paths = (
{
closed = 1;
nodes = (
"226 715 OFFCURVE",
"75 505 OFFCURVE",
"75 282 CURVE SMOOTH",
"75 80 OFFCURVE",
"198 -15 OFFCURVE",
"372 -15 CURVE SMOOTH",
"630 -15 OFFCURVE",
"781 195 OFFCURVE",
"781 418 CURVE SMOOTH",
"781 620 OFFCURVE",
"658 715 OFFCURVE",
"484 715 CURVE SMOOTH"
);
},
{
closed = 1;
nodes = (
"244 27 OFFCURVE",
"200 132 OFFCURVE",
"200 273 CURVE SMOOTH",
"200 506 OFFCURVE",
"320 673 OFFCURVE",
"483 673 CURVE SMOOTH",
"611 673 OFFCURVE",
"656 569 OFFCURVE",
"656 427 CURVE SMOOTH",
"656 194 OFFCURVE",
"536 27 OFFCURVE",
"373 27 CURVE SMOOTH"
);
}
);
width = 802;
},
{
anchors = (
{
name = bottom;
position = "{375, 0}";
},
{
name = center;
position = "{437, 350}";
},
{
name = ogonek;
position = "{693, 10}";
},
{
name = top;
position = "{498, 700}";
},
{
name = topleft;
position = "{123, 700}";
},
{
name = topright;
position = "{873, 700}";
}
);
layerId = "503E420B-61F7-4277-A1BE-A8852071B452";
paths = (
{
closed = 1;
nodes = (
"235 715 OFFCURVE",
"69 519 OFFCURVE",
"69 289 CURVE SMOOTH",
"69 104 OFFCURVE",
"177 -15 OFFCURVE",
"379 -15 CURVE SMOOTH",
"637 -15 OFFCURVE",
"804 180 OFFCURVE",
"804 411 CURVE SMOOTH",
"804 596 OFFCURVE",
"696 715 OFFCURVE",
"494 715 CURVE SMOOTH"
);
},
{
closed = 1;
nodes = (
"267 27 OFFCURVE",
"239 131 OFFCURVE",
"239 260 CURVE SMOOTH",
"239 502 OFFCURVE",
"337 673 OFFCURVE",
"488 673 CURVE SMOOTH",
"606 673 OFFCURVE",
"634 569 OFFCURVE",
"634 439 CURVE SMOOTH",
"634 197 OFFCURVE",
"536 27 OFFCURVE",
"385 27 CURVE SMOOTH"
);
}
);
width = 822;
}
);
leftKerningGroup = O;
rightKerningGroup = O;
unicode = 004F;
},
{
glyphname = Oslash;
lastChange = "2020-11-29 15:05:20 +0000";
layers = (
{
components = (
{
name = O;
transform = "{1, 0, 0, 1, 7, 0}";
}
);
layerId = "45069982-2EFC-4B7D-8C53-1932E6EAC4CA";
paths = (
{
closed = 1;
nodes = (
"686 435 OFFCURVE",
"113 277 OFFCURVE",
"18 -30 CURVE",
"38 -33 OFFCURVE",
"59 -33 OFFCURVE",
"79 -30 CURVE",
"162 266 OFFCURVE",
"735 423 OFFCURVE",
"830 730 CURVE",
"810 733 OFFCURVE",
"789 733 OFFCURVE",
"769 730 CURVE"
);
}
);
width = 810;
},
{
components = (
{
name = O;
transform = "{1, 0, 0, 1, 3, 0}";
}
);
layerId = "503E420B-61F7-4277-A1BE-A8852071B452";
paths = (
{
closed = 1;
nodes = (
"683 435 OFFCURVE",
"110 277 OFFCURVE",
"15 -30 CURVE",
"35 -33 OFFCURVE",
"56 -33 OFFCURVE",
"76 -30 CURVE",
"159 266 OFFCURVE",
"732 423 OFFCURVE",
"827 730 CURVE",
"807 733 OFFCURVE",
"786 733 OFFCURVE",
"766 730 CURVE"
);
}
);
width = 825;
}
);
leftKerningGroup = O;
rightKerningGroup = O;
unicode = 00D8;
},
{
glyphname = OE;
lastChange = "2020-11-29 15:05:20 +0000";
layers = (
{
anchors = (
{
name = bottom;
position = "{466, 0}";
},
{
name = top;
position = "{615, 700}";
}
);
layerId = "45069982-2EFC-4B7D-8C53-1932E6EAC4CA";
paths = (
{
closed = 1;
nodes = (
"542 0 LINE",
"927 0 LINE",
"967 185 LINE",
"956 187 OFFCURVE",
"946 187 OFFCURVE",
"935 185 CURVE",
"911 95 OFFCURVE",
"868 40 OFFCURVE",
"764 40 CURVE SMOOTH",
"616 40 LINE",
"622 105 OFFCURVE",
"631 158 OFFCURVE",
"642 210 CURVE SMOOTH",
"702 490 LINE SMOOTH",
"716 557 OFFCURVE",
"728 599 OFFCURVE",
"748 660 CURVE",
"861 660 LINE SMOOTH",
"950 660 OFFCURVE",
"989 630 OFFCURVE",
"970 515 CURVE",
"981 513 OFFCURVE",
"991 513 OFFCURVE",
"1002 515 CURVE",
"1041 700 LINE",
"691 700 LINE",
"579 700 LINE",
"619 665 LINE",
"612 595 OFFCURVE",
"603 541 OFFCURVE",
"592 490 CURVE SMOOTH",
"532 210 LINE SMOOTH",
"521 159 OFFCURVE",
"505 95 OFFCURVE",
"485 35 CURVE",
"461 0 LINE"
);
},
{
closed = 1;
nodes = (
"863 258 OFFCURVE",
"871 258 OFFCURVE",
"883 260 CURVE",
"925 460 LINE",
"913 462 OFFCURVE",
"905 462 OFFCURVE",
"893 460 CURVE",
"878 398 OFFCURVE",
"859 380 OFFCURVE",
"813 380 CURVE SMOOTH",
"623 380 LINE",
"615 340 LINE",
"805 340 LINE SMOOTH",
"851 340 OFFCURVE",
"862 322 OFFCURVE",
"851 260 CURVE"
);
},
{
closed = 1;
nodes = (
"608 701 OFFCURVE",
"550 715 OFFCURVE",
"484 715 CURVE SMOOTH",
"226 715 OFFCURVE",
"75 505 OFFCURVE",
"75 282 CURVE SMOOTH",
"75 80 OFFCURVE",
"198 -15 OFFCURVE",
"372 -15 CURVE SMOOTH",
"444 -15 OFFCURVE",
"508 1 OFFCURVE",
"562 30 CURVE",
"579 144 LINE",
"528 71 OFFCURVE",
"456 27 OFFCURVE",
"373 27 CURVE SMOOTH",
"244 27 OFFCURVE",
"200 132 OFFCURVE",
"200 273 CURVE SMOOTH",
"200 506 OFFCURVE",
"320 673 OFFCURVE",
"483 673 CURVE SMOOTH",
"567 673 OFFCURVE",
"615 628 OFFCURVE",
"639 557 CURVE",
"655 674 LINE"
);
}
);
width = 1020;
},
{
anchors = (
{
name = bottom;
position = "{447, 0}";
},
{
name = top;
position = "{596, 700}";
}
);
layerId = "503E420B-61F7-4277-A1BE-A8852071B452";
paths = (
{
closed = 1;
nodes = (
"513 0 LINE",
"898 0 LINE",
"939 190 LINE",
"928 192 OFFCURVE",
"918 192 OFFCURVE",
"907 190 CURVE",
"885 110 OFFCURVE",
"828 40 OFFCURVE",
"725 40 CURVE SMOOTH",
"607 40 LINE",
"613 105 OFFCURVE",
"622 158 OFFCURVE",
"633 210 CURVE SMOOTH",
"693 490 LINE SMOOTH",
"707 557 OFFCURVE",
"719 599 OFFCURVE",
"739 660 CURVE",
"822 660 LINE SMOOTH",
"925 660 OFFCURVE",
"954 600 OFFCURVE",
"940 510 CURVE",
"952 508 OFFCURVE",
"960 508 OFFCURVE",
"972 510 CURVE",
"1012 700 LINE",
"662 700 LINE",
"589 702 LINE",
"570 665 LINE",
"565 610 OFFCURVE",
"557 557 OFFCURVE",
"543 490 CURVE SMOOTH",
"483 210 LINE SMOOTH",
"470 150 OFFCURVE",
"455 93 OFFCURVE",
"436 35 CURVE",
"436 -2 LINE"
);
},
{
closed = 1;
nodes = (
"820 248 OFFCURVE",
"830 248 OFFCURVE",
"842 250 CURVE",
"888 470 LINE",
"876 472 OFFCURVE",
"868 472 OFFCURVE",
"856 470 CURVE",
"841 408 OFFCURVE",
"810 380 OFFCURVE",
"754 380 CURVE SMOOTH",
"594 380 LINE",
"586 340 LINE",
"746 340 LINE SMOOTH",
"801 340 OFFCURVE",
"821 312 OFFCURVE",
"810 250 CURVE"
);
},
{
closed = 1;
nodes = (
"638 697 OFFCURVE",
"573 715 OFFCURVE",
"494 715 CURVE SMOOTH",
"235 715 OFFCURVE",
"69 519 OFFCURVE",
"69 289 CURVE SMOOTH",
"69 104 OFFCURVE",
"177 -15 OFFCURVE",
"379 -15 CURVE SMOOTH",
"430 -15 OFFCURVE",
"477 -7 OFFCURVE",
"520 6 CURVE",
"548 115 LINE",
"506 59 OFFCURVE",
"450 27 OFFCURVE",
"385 27 CURVE SMOOTH",
"267 27 OFFCURVE",
"239 131 OFFCURVE",
"239 260 CURVE SMOOTH",
"239 502 OFFCURVE",
"337 673 OFFCURVE",
"488 673 CURVE SMOOTH",
"602 673 OFFCURVE",
"632 576 OFFCURVE",
"634 452 CURVE",
"688 663 LINE"
);
}
);
width = 992;
}
);
leftKerningGroup = O;
rightKerningGroup = E;
unicode = 0152;
},
{
glyphname = P;
lastChange = "2020-11-29 15:05:20 +0000";
layers = (
{
anchors = (
{
name = bottom;
position = "{248, 0}";
},
{
name = top;
position = "{397, 700}";
}
);
guideLines = (
{
angle = 90;
position = "{495, 501}";
}
);
layerId = "45069982-2EFC-4B7D-8C53-1932E6EAC4CA";
paths = (
{
closed = 1;
nodes = (
"42 0 OFFCURVE",
"87 0 OFFCURVE",
"133 0 CURVE SMOOTH",
"181 0 OFFCURVE",
"224 0 OFFCURVE",
"290 -2 CURVE",
"294 8 OFFCURVE",
"298 25 OFFCURVE",
"298 35 CURVE",
"206 35 LINE",
"212 103 OFFCURVE",
"223 161 OFFCURVE",
"233 210 CURVE SMOOTH",
"293 490 LINE SMOOTH",
"307 557 OFFCURVE",
"319 599 OFFCURVE",
"339 660 CURVE",
"404 660 LINE SMOOTH",
"489 660 OFFCURVE",
"527 622 OFFCURVE",
"527 540 CURVE SMOOTH",
"527 416 OFFCURVE",
"451 340 OFFCURVE",
"356 340 CURVE SMOOTH",
"206 340 LINE",
"197 300 LINE",
"347 300 LINE SMOOTH",
"515 300 OFFCURVE",
"652 399 OFFCURVE",
"652 538 CURVE SMOOTH",
"652 657 OFFCURVE",
"554 700 OFFCURVE",
"422 700 CURVE SMOOTH",
"282 700 LINE SMOOTH",
"236 700 OFFCURVE",
"191 700 OFFCURVE",
"146 702 CURVE",
"142 692 OFFCURVE",
"138 675 OFFCURVE",
"138 665 CURVE",
"210 665 LINE",
"203 595 OFFCURVE",
"194 541 OFFCURVE",
"183 490 CURVE SMOOTH",
"123 210 LINE SMOOTH",
"112 159 OFFCURVE",
"96 95 OFFCURVE",
"76 35 CURVE",
"4 35 LINE",
"0 25 OFFCURVE",
"-4 9 OFFCURVE",
"-4 -2 CURVE"
);
}
);
width = 621;
},
{
anchors = (
{
name = bottom;
position = "{259, 0}";
},
{
name = top;
position = "{408, 700}";
}
);
layerId = "503E420B-61F7-4277-A1BE-A8852071B452";
paths = (
{
closed = 1;
nodes = (
"38 0 OFFCURVE",
"98 0 OFFCURVE",
"144 0 CURVE SMOOTH",
"190 0 OFFCURVE",
"250 0 OFFCURVE",
"326 -2 CURVE",
"330 8 OFFCURVE",
"334 25 OFFCURVE",
"334 35 CURVE",
"237 35 LINE",
"244 117 OFFCURVE",
"255 166 OFFCURVE",
"264 210 CURVE SMOOTH",
"324 490 LINE SMOOTH",
"338 554 OFFCURVE",
"347 589 OFFCURVE",
"370 660 CURVE",
"412 660 LINE SMOOTH",
"441 660 OFFCURVE",
"513 660 OFFCURVE",
"513 537 CURVE SMOOTH",
"513 413 OFFCURVE",
"441 330 OFFCURVE",
"352 330 CURVE SMOOTH",
"222 330 LINE",
"213 290 LINE",
"363 290 LINE SMOOTH",
"542 290 OFFCURVE",
"678 390 OFFCURVE",
"678 532 CURVE SMOOTH",
"678 653 OFFCURVE",
"579 700 OFFCURVE",
"450 700 CURVE SMOOTH",
"293 700 LINE SMOOTH",
"247 700 OFFCURVE",
"187 700 OFFCURVE",
"142 702 CURVE",
"138 692 OFFCURVE",
"134 675 OFFCURVE",
"134 665 CURVE",
"201 665 LINE",
"196 606 OFFCURVE",
"186 545 OFFCURVE",
"174 490 CURVE SMOOTH",
"114 210 LINE SMOOTH",
"101 150 OFFCURVE",
"86 97 OFFCURVE",
"67 35 CURVE",
"0 35 LINE",
"-4 25 OFFCURVE",
"-8 9 OFFCURVE",
"-8 -2 CURVE"
);
}
);
width = 645;
}
);
leftKerningGroup = H;
unicode = 0050;
},
{
glyphname = Thorn;
lastChange = "2020-11-29 15:05:20 +0000";
layers = (
{
components = (
{
name = I;
}
);
layerId = "45069982-2EFC-4B7D-8C53-1932E6EAC4CA";
paths = (
{
closed = 1;
nodes = (
"294 560 LINE",
"286 520 LINE",
"406 520 LINE",
"490 520 OFFCURVE",
"529 473 OFFCURVE",
"529 395 CURVE SMOOTH",
"529 286 OFFCURVE",
"453 200 OFFCURVE",
"358 200 CURVE SMOOTH",
"193 200 LINE",
"184 160 LINE",
"339 160 LINE SMOOTH",
"511 160 OFFCURVE",
"644 260 OFFCURVE",
"644 394 CURVE SMOOTH",
"644 507 OFFCURVE",
"552 560 OFFCURVE",
"424 560 CURVE"
);
}
);
width = 654;
},
{
components = (
{
name = I;
}
);
layerId = "503E420B-61F7-4277-A1BE-A8852071B452";
paths = (
{
closed = 1;
nodes = (
"326 570 LINE",
"318 530 LINE",
"388 530 LINE",
"481 530 OFFCURVE",
"518 490 OFFCURVE",
"518 396 CURVE SMOOTH",
"518 271 OFFCURVE",
"444 180 OFFCURVE",
"354 180 CURVE SMOOTH",
"239 180 LINE",
"230 140 LINE",
"365 140 LINE SMOOTH",
"544 140 OFFCURVE",
"678 247 OFFCURVE",
"678 394 CURVE SMOOTH",
"678 516 OFFCURVE",
"583 570 OFFCURVE",
"436 570 CURVE"
);
}
);
width = 687;
}
);
leftKerningGroup = H;
unicode = 00DE;
},
{
glyphname = Q;
lastChange = "2020-11-29 15:05:20 +0000";
layers = (
{
anchors = (
{
name = bottom;
position = "{397, 0}";
},
{
name = top;
position = "{397, 700}";
}
);
components = (
{
name = O;
}
);
layerId = "45069982-2EFC-4B7D-8C53-1932E6EAC4CA";
paths = (
{
closed = 1;
nodes = (
"644 -114 OFFCURVE",
"628 -119 OFFCURVE",
"608 -119 CURVE SMOOTH",
"578 -119 OFFCURVE",
"558 -97 OFFCURVE",
"523 -54 CURVE SMOOTH",
"498 -23 OFFCURVE",
"473 -5 OFFCURVE",
"439 -5 CURVE",
"312 -10 LINE",
"361 -15 OFFCURVE",
"383 -25 OFFCURVE",
"429 -93 CURVE SMOOTH",
"460 -138 OFFCURVE",
"497 -169 OFFCURVE",
"568 -169 CURVE SMOOTH",
"632 -169 OFFCURVE",
"668 -141 OFFCURVE",
"692 -116 CURVE",
"684 -107 OFFCURVE",
"674 -101 OFFCURVE",
"662 -96 CURVE"
);
}
);
width = 802;
},
{
anchors = (
{
name = bottom;
position = "{395, 0}";
},
{
name = top;
position = "{395, 700}";
}
);
components = (
{
name = O;
}
);
layerId = "503E420B-61F7-4277-A1BE-A8852071B452";
paths = (
{
closed = 1;
nodes = (
"648 -123 OFFCURVE",
"635 -129 OFFCURVE",
"618 -129 CURVE",
"584 -129 OFFCURVE",
"568 -97 OFFCURVE",
"543 -54 CURVE SMOOTH",
"523 -20 OFFCURVE",
"485 0 OFFCURVE",
"469 0 CURVE",
"312 -10 LINE",
"353 -15 OFFCURVE",
"361 -23 OFFCURVE",
"409 -100 CURVE",
"445 -159 OFFCURVE",
"500 -179 OFFCURVE",
"568 -179 CURVE",
"631 -179 OFFCURVE",
"663 -167 OFFCURVE",
"692 -132 CURVE",
"683 -121 OFFCURVE",
"674 -113 OFFCURVE",
"663 -106 CURVE"
);
}
);
width = 822;
},
{
associatedMasterId = "503E420B-61F7-4277-A1BE-A8852071B452";
layerId = "F81ACBFB-DEDA-431D-9BCF-7F77814E8A96";
name = "Nov 4 20, 15:48";
paths = (
{
closed = 1;
nodes = (
"734 572 OFFCURVE",
"598 714 OFFCURVE",
"378 714 CURVE SMOOTH",
"158 714 OFFCURVE",
"22 572 OFFCURVE",
"22 350 CURVE SMOOTH",
"22 134 OFFCURVE",
"151 -6 OFFCURVE",
"360 -14 CURVE",
"378 -27 OFFCURVE",
"392 -48 OFFCURVE",
"404 -68 CURVE SMOOTH",
"429 -109 OFFCURVE",
"459 -152 OFFCURVE",
"506 -152 CURVE SMOOTH",
"604 -152 LINE SMOOTH",
"639 -152 OFFCURVE",
"674 -141 OFFCURVE",
"702 -120 CURVE",
"683 -94 LINE",
"670 -111 OFFCURVE",
"650 -120 OFFCURVE",
"629 -120 CURVE SMOOTH",
"583 -120 OFFCURVE",
"557 -75 OFFCURVE",
"524 -45 CURVE SMOOTH",
"505 -27 OFFCURVE",
"482 -15 OFFCURVE",
"458 -7 CURVE",
"631 24 OFFCURVE",
"734 157 OFFCURVE",
"734 350 CURVE SMOOTH"
);
},
{
closed = 1;
nodes = (
"576 187 OFFCURVE",
"520 18 OFFCURVE",
"378 18 CURVE SMOOTH",
"236 18 OFFCURVE",
"180 187 OFFCURVE",
"180 350 CURVE SMOOTH",
"180 513 OFFCURVE",
"236 682 OFFCURVE",
"378 682 CURVE SMOOTH",
"520 682 OFFCURVE",
"576 513 OFFCURVE",
"576 350 CURVE SMOOTH"
);
}
);
width = 770;
},
{
associatedMasterId = "45069982-2EFC-4B7D-8C53-1932E6EAC4CA";
layerId = "25D2AB3A-8A66-40AC-A1B7-5FD9B2BFBA3D";
name = "Nov 4 20, 15:48";
paths = (
{
closed = 1;
nodes = (
"702 568 OFFCURVE",
"577 714 OFFCURVE",
"364 714 CURVE SMOOTH",
"151 714 OFFCURVE",
"26 568 OFFCURVE",
"26 350 CURVE SMOOTH",
"26 137 OFFCURVE",
"145 -6 OFFCURVE",
"348 -14 CURVE",
"365 -27 OFFCURVE",
"378 -47 OFFCURVE",
"389 -67 CURVE SMOOTH",
"412 -107 OFFCURVE",
"441 -148 OFFCURVE",
"486 -148 CURVE SMOOTH",
"580 -148 LINE SMOOTH",
"613 -148 OFFCURVE",
"646 -138 OFFCURVE",
"674 -120 CURVE",
"659 -97 LINE",
"644 -112 OFFCURVE",
"624 -120 OFFCURVE",
"603 -120 CURVE SMOOTH",
"560 -120 OFFCURVE",
"534 -78 OFFCURVE",
"502 -48 CURVE SMOOTH",
"482 -30 OFFCURVE",
"459 -16 OFFCURVE",
"434 -8 CURVE",
"604 20 OFFCURVE",
"702 157 OFFCURVE",
"702 350 CURVE SMOOTH"
);
},
{
closed = 1;
nodes = (
"584 182 OFFCURVE",
"512 14 OFFCURVE",
"364 14 CURVE SMOOTH",
"216 14 OFFCURVE",
"144 182 OFFCURVE",
"144 350 CURVE SMOOTH",
"144 518 OFFCURVE",
"216 686 OFFCURVE",
"364 686 CURVE SMOOTH",
"512 686 OFFCURVE",
"584 518 OFFCURVE",
"584 350 CURVE SMOOTH"
);
}
);
width = 790;
}
);
leftKerningGroup = O;
rightKerningGroup = O;
unicode = 0051;
},
{
glyphname = R;
lastChange = "2020-11-29 15:05:20 +0000";
layers = (
{
anchors = (
{
name = bottom;
position = "{357, 0}";
},
{
name = top;
position = "{437, 700}";
}
);
layerId = "45069982-2EFC-4B7D-8C53-1932E6EAC4CA";
paths = (
{
closed = 1;
nodes = (
"584 39 OFFCURVE",
"568 50 OFFCURVE",
"568 107 CURVE SMOOTH",
"567 243 LINE SMOOTH",
"567 298 OFFCURVE",
"529 341 OFFCURVE",
"451 346 CURVE",
"583 369 OFFCURVE",
"668 450 OFFCURVE",
"668 548 CURVE SMOOTH",
"668 658 OFFCURVE",
"569 700 OFFCURVE",
"437 700 CURVE SMOOTH",
"282 700 LINE SMOOTH",
"236 700 OFFCURVE",
"191 700 OFFCURVE",
"146 702 CURVE",
"142 692 OFFCURVE",
"138 675 OFFCURVE",
"138 665 CURVE",
"210 665 LINE",
"203 595 OFFCURVE",
"194 541 OFFCURVE",
"183 490 CURVE SMOOTH",
"123 210 LINE SMOOTH",
"112 159 OFFCURVE",
"96 95 OFFCURVE",
"76 35 CURVE",
"4 35 LINE",
"0 25 OFFCURVE",
"-4 9 OFFCURVE",
"-4 -2 CURVE",
"42 0 OFFCURVE",
"87 0 OFFCURVE",
"133 0 CURVE SMOOTH",
"180 0 OFFCURVE",
"224 0 OFFCURVE",
"270 -2 CURVE",
"274 8 OFFCURVE",
"278 25 OFFCURVE",
"278 35 CURVE",
"206 35 LINE",
"212 103 OFFCURVE",
"223 161 OFFCURVE",
"233 210 CURVE SMOOTH",
"293 490 LINE SMOOTH",
"307 557 OFFCURVE",
"319 599 OFFCURVE",
"339 660 CURVE",
"419 660 LINE SMOOTH",
"505 660 OFFCURVE",
"543 621 OFFCURVE",
"543 547 CURVE SMOOTH",
"543 448 OFFCURVE",
"468 360 OFFCURVE",
"375 360 CURVE SMOOTH",
"210 360 LINE",
"201 320 LINE",
"353 320 LINE SMOOTH",
"421 320 OFFCURVE",
"457 292 OFFCURVE",
"457 233 CURVE SMOOTH",
"457 107 LINE SMOOTH",
"457 33 OFFCURVE",
"476 -10 OFFCURVE",
"544 -10 CURVE SMOOTH",
"568 -10 OFFCURVE",
"606 -7 OFFCURVE",
"634 0 CURVE",
"639 12 OFFCURVE",
"641 24 OFFCURVE",
"642 35 CURVE"
);
}
);
width = 694;
},
{
anchors = (
{
name = bottom;
position = "{373, 0}";
},
{
name = top;
position = "{452, 700}";
}
);
layerId = "503E420B-61F7-4277-A1BE-A8852071B452";
paths = (
{
closed = 1;
nodes = (
"605 40 OFFCURVE",
"597 56 OFFCURVE",
"595 107 CURVE SMOOTH",
"590 238 LINE SMOOTH",
"587 308 OFFCURVE",
"562 343 OFFCURVE",
"475 349 CURVE",
"591 375 OFFCURVE",
"687 432 OFFCURVE",
"687 550 CURVE SMOOTH",
"687 662 OFFCURVE",
"584 700 OFFCURVE",
"455 700 CURVE SMOOTH",
"293 700 LINE SMOOTH",
"247 700 OFFCURVE",
"187 700 OFFCURVE",
"142 702 CURVE",
"138 692 OFFCURVE",
"134 675 OFFCURVE",
"134 665 CURVE",
"201 665 LINE",
"196 610 OFFCURVE",
"188 557 OFFCURVE",
"174 490 CURVE SMOOTH",
"114 210 LINE SMOOTH",
"101 150 OFFCURVE",
"86 93 OFFCURVE",
"67 35 CURVE",
"0 35 LINE",
"-4 25 OFFCURVE",
"-8 9 OFFCURVE",
"-8 -2 CURVE",
"38 0 OFFCURVE",
"98 0 OFFCURVE",
"144 0 CURVE SMOOTH",
"190 0 OFFCURVE",
"250 0 OFFCURVE",
"296 -2 CURVE",
"300 8 OFFCURVE",
"304 25 OFFCURVE",
"304 35 CURVE",
"237 35 LINE",
"243 104 OFFCURVE",
"252 156 OFFCURVE",
"264 210 CURVE SMOOTH",
"324 490 LINE SMOOTH",
"338 557 OFFCURVE",
"350 599 OFFCURVE",
"370 660 CURVE",
"417 660 LINE SMOOTH",
"482 660 OFFCURVE",
"522 628 OFFCURVE",
"522 551 CURVE SMOOTH",
"522 450 OFFCURVE",
"450 360 OFFCURVE",
"363 360 CURVE SMOOTH",
"228 360 LINE",
"219 320 LINE",
"352 320 LINE SMOOTH",
"424 320 OFFCURVE",
"441 286 OFFCURVE",
"442 238 CURVE SMOOTH",
"446 107 LINE SMOOTH",
"448 29 OFFCURVE",
"473 -10 OFFCURVE",
"555 -10 CURVE SMOOTH",
"592 -10 OFFCURVE",
"617 -7 OFFCURVE",
"649 0 CURVE",
"654 12 OFFCURVE",
"656 24 OFFCURVE",
"657 35 CURVE"
);
}
);
width = 717;
}
);
leftKerningGroup = H;
rightKerningGroup = R;
unicode = 0052;
},
{
glyphname = S;
lastChange = "2020-11-29 15:05:20 +0000";
layers = (
{
anchors = (
{
name = bottom;
position = "{267, 0}";
},
{
name = top;
position = "{385, 700}";
}
);
layerId = "45069982-2EFC-4B7D-8C53-1932E6EAC4CA";
paths = (
{
closed = 1;
nodes = (
"433 -14 OFFCURVE",
"533 77 OFFCURVE",
"533 201 CURVE SMOOTH",
"533 427 OFFCURVE",
"226 391 OFFCURVE",
"226 550 CURVE SMOOTH",
"226 619 OFFCURVE",
"280 674 OFFCURVE",
"374 674 CURVE SMOOTH",
"467 674 OFFCURVE",
"520 605 OFFCURVE",
"510 510 CURVE",
"521 508 OFFCURVE",
"531 508 OFFCURVE",
"542 510 CURVE",
"575 667 LINE",
"531 695 OFFCURVE",
"472 714 OFFCURVE",
"380 714 CURVE SMOOTH",
"234 714 OFFCURVE",
"130 632 OFFCURVE",
"130 510 CURVE SMOOTH",
"130 296 OFFCURVE",
"426 344 OFFCURVE",
"426 168 CURVE SMOOTH",
"426 95 OFFCURVE",
"385 26 OFFCURVE",
"256 26 CURVE SMOOTH",
"157 26 OFFCURVE",
"89 107 OFFCURVE",
"102 215 CURVE",
"90 217 OFFCURVE",
"82 217 OFFCURVE",
"70 215 CURVE",
"32 35 LINE",
"86 4 OFFCURVE",
"165 -14 OFFCURVE",
"247 -14 CURVE SMOOTH"
);
}
);
width = 578;
},
{
anchors = (
{
name = bottom;
position = "{264, 0}";
},
{
name = top;
position = "{398, 700}";
}
);
layerId = "503E420B-61F7-4277-A1BE-A8852071B452";
paths = (
{
closed = 1;
nodes = (
"442 -14 OFFCURVE",
"561 79 OFFCURVE",
"561 224 CURVE SMOOTH",
"561 456 OFFCURVE",
"254 404 OFFCURVE",
"254 554 CURVE SMOOTH",
"254 622 OFFCURVE",
"317 674 OFFCURVE",
"404 674 CURVE SMOOTH",
"505 674 OFFCURVE",
"542 605 OFFCURVE",
"533 490 CURVE",
"544 488 OFFCURVE",
"554 488 OFFCURVE",
"565 490 CURVE",
"604 672 LINE",
"559 698 OFFCURVE",
"492 714 OFFCURVE",
"414 714 CURVE SMOOTH",
"227 714 OFFCURVE",
"124 623 OFFCURVE",
"124 498 CURVE SMOOTH",
"124 270 OFFCURVE",
"420 322 OFFCURVE",
"420 156 CURVE SMOOTH",
"420 79 OFFCURVE",
"356 26 OFFCURVE",
"254 26 CURVE SMOOTH",
"152 26 OFFCURVE",
"87 105 OFFCURVE",
"98 225 CURVE",
"87 227 OFFCURVE",
"77 227 OFFCURVE",
"66 225 CURVE",
"24 29 LINE",
"78 1 OFFCURVE",
"152 -14 OFFCURVE",
"245 -14 CURVE SMOOTH"
);
}
);
width = 608;
},
{
associatedMasterId = "45069982-2EFC-4B7D-8C53-1932E6EAC4CA";
backgroundImage = {
crop = "{{0, 0}, {1500, 441}}";
imagePath = "../../aniawielunska/Downloads/1928–1931_Półtawski_Antykwa-poster.png";
transform = "{6.853, 0, 0, 6.853, -6504, -14}";
};
layerId = "617EB975-BAF0-42FC-8D61-99EFBB3B238D";
name = "Nov 3 20, 23:48";
paths = (
{
closed = 1;
nodes = (
"528 462 OFFCURVE",
"160 380 OFFCURVE",
"160 567 CURVE SMOOTH",
"160 643 OFFCURVE",
"223 674 OFFCURVE",
"286 674 CURVE SMOOTH",
"375 674 OFFCURVE",
"440 612 OFFCURVE",
"440 515 CURVE",
"451 513 OFFCURVE",
"461 513 OFFCURVE",
"472 515 CURVE",
"472 672 LINE",
"418 702 OFFCURVE",
"357 714 OFFCURVE",
"301 714 CURVE SMOOTH",
"165 714 OFFCURVE",
"76 642 OFFCURVE",
"76 521 CURVE SMOOTH",
"76 274 OFFCURVE",
"431 341 OFFCURVE",
"431 149 CURVE SMOOTH",
"431 70 OFFCURVE",
"369 26 OFFCURVE",
"289 26 CURVE SMOOTH",
"182 26 OFFCURVE",
"90 109 OFFCURVE",
"90 215 CURVE",
"79 217 OFFCURVE",
"69 217 OFFCURVE",
"58 215 CURVE",
"58 35 LINE",
"120 3 OFFCURVE",
"199 -14 OFFCURVE",
"268 -14 CURVE SMOOTH",
"425 -14 OFFCURVE",
"528 72 OFFCURVE",
"528 202 CURVE SMOOTH"
);
}
);
width = 600;
}
);
leftKerningGroup = S;
rightKerningGroup = S;
unicode = 0053;
},
{
glyphname = Germandbls;
lastChange = "2020-11-29 15:05:20 +0000";
layers = (
{
layerId = "45069982-2EFC-4B7D-8C53-1932E6EAC4CA";
paths = (
{
closed = 1;
nodes = (
"42 0 OFFCURVE",
"87 0 OFFCURVE",
"133 0 CURVE",
"198 0 LINE",
"214 111 OFFCURVE",
"221 155 OFFCURVE",
"233 210 CURVE SMOOTH",
"293 490 LINE SMOOTH",
"307 557 OFFCURVE",
"319 599 OFFCURVE",
"339 660 CURVE",
"719 660 LINE",
"721 673 OFFCURVE",
"724 687 OFFCURVE",
"727 700 CURVE",
"282 700 LINE SMOOTH",
"236 700 OFFCURVE",
"191 700 OFFCURVE",
"146 702 CURVE",
"142 692 OFFCURVE",
"138 675 OFFCURVE",
"138 665 CURVE",
"210 665 LINE",
"203 595 OFFCURVE",
"194 541 OFFCURVE",
"183 490 CURVE SMOOTH",
"123 210 LINE SMOOTH",
"112 159 OFFCURVE",
"96 95 OFFCURVE",
"76 35 CURVE",
"4 35 LINE",
"0 25 OFFCURVE",
"-4 9 OFFCURVE",
"-4 -2 CURVE"
);
},
{
closed = 1;
nodes = (
"592 -14 OFFCURVE",
"702 74 OFFCURVE",
"702 182 CURVE SMOOTH",
"702 319 OFFCURVE",
"557 380 OFFCURVE",
"557 477 CURVE SMOOTH",
"557 552 OFFCURVE",
"601 615 OFFCURVE",
"719 660 CURVE",
"723 681 LINE",
"565 647 OFFCURVE",
"457 570 OFFCURVE",
"457 451 CURVE SMOOTH",
"457 330 OFFCURVE",
"594 281 OFFCURVE",
"594 169 CURVE SMOOTH",
"594 84 OFFCURVE",
"533 26 OFFCURVE",
"443 26 CURVE",
"358 26 OFFCURVE",
"320 101 OFFCURVE",
"329 169 CURVE",
"317 171 OFFCURVE",
"309 171 OFFCURVE",
"297 169 CURVE",
"268 29 LINE",
"322 -2 OFFCURVE",
"373 -14 OFFCURVE",
"453 -14 CURVE"
);
}
);
width = 742;
},
{
layerId = "503E420B-61F7-4277-A1BE-A8852071B452";
paths = (
{
closed = 1;
nodes = (
"38 0 OFFCURVE",
"98 0 OFFCURVE",
"144 0 CURVE SMOOTH",
"229 0 LINE",
"247 128 OFFCURVE",
"254 161 OFFCURVE",
"264 210 CURVE SMOOTH",
"324 490 LINE SMOOTH",
"338 557 OFFCURVE",
"350 599 OFFCURVE",
"370 660 CURVE",
"752 660 LINE",
"757 675 OFFCURVE",
"759 686 OFFCURVE",
"760 700 CURVE",
"293 700 LINE SMOOTH",
"247 700 OFFCURVE",
"187 700 OFFCURVE",
"142 702 CURVE",
"138 692 OFFCURVE",
"134 675 OFFCURVE",
"134 665 CURVE",
"201 665 LINE",
"196 610 OFFCURVE",
"188 557 OFFCURVE",
"174 490 CURVE SMOOTH",
"114 210 LINE SMOOTH",
"101 150 OFFCURVE",
"86 93 OFFCURVE",
"67 35 CURVE",
"0 35 LINE",
"-4 25 OFFCURVE",
"-8 9 OFFCURVE",
"-8 -2 CURVE"
);
},
{
closed = 1;
nodes = (
"616 -14 OFFCURVE",
"739 58 OFFCURVE",
"739 188 CURVE SMOOTH",
"739 317 OFFCURVE",
"595 389 OFFCURVE",
"595 492 CURVE SMOOTH",
"595 581 OFFCURVE",
"663 628 OFFCURVE",
"752 660 CURVE",
"757 683 LINE",
"567 646 OFFCURVE",
"446 564 OFFCURVE",
"446 440 CURVE SMOOTH",
"446 317 OFFCURVE",
"585 261 OFFCURVE",
"585 158 CURVE SMOOTH",
"585 82 OFFCURVE",
"543 26 OFFCURVE",
"471 26 CURVE",
"391 26 OFFCURVE",
"351 84 OFFCURVE",
"359 175 CURVE",
"348 177 OFFCURVE",
"338 177 OFFCURVE",
"327 175 CURVE",
"293 19 LINE",
"348 -4 OFFCURVE",
"396 -14 OFFCURVE",
"481 -14 CURVE"
);
}
);
width = 776;
}
);
leftKerningGroup = H;
unicode = 1E9E;
},
{
glyphname = T;
lastChange = "2020-11-29 15:05:20 +0000";
layers = (
{
anchors = (
{
name = bottom;
position = "{280, 0}";
},
{
name = center;
position = "{353, 350}";
},
{
name = top;
position = "{427, 700}";
}
);
layerId = "45069982-2EFC-4B7D-8C53-1932E6EAC4CA";
paths = (
{
closed = 1;
nodes = (
"187 0 OFFCURVE",
"232 0 OFFCURVE",
"278 0 CURVE SMOOTH",
"324 0 OFFCURVE",
"369 0 OFFCURVE",
"415 -2 CURVE",
"419 8 OFFCURVE",
"422 27 OFFCURVE",
"423 35 CURVE",
"351 35 LINE",
"356 95 OFFCURVE",
"367 159 OFFCURVE",
"378 210 CURVE SMOOTH",
"437 490 LINE SMOOTH",
"450 550 OFFCURVE",
"460 591 OFFCURVE",
"483 660 CURVE",
"541 660 LINE SMOOTH",
"631 660 OFFCURVE",
"663 624 OFFCURVE",
"647 498 CURVE",
"657 496 OFFCURVE",
"667 496 OFFCURVE",
"679 498 CURVE",
"722 700 LINE",
"132 700 LINE",
"89 498 LINE",
"100 496 OFFCURVE",
"110 496 OFFCURVE",
"121 498 CURVE",
"161 633 OFFCURVE",
"213 660 OFFCURVE",
"295 660 CURVE SMOOTH",
"353 660 LINE",
"348 600 OFFCURVE",
"338 543 OFFCURVE",
"327 490 CURVE SMOOTH",
"268 210 LINE SMOOTH",
"255 150 OFFCURVE",
"243 104 OFFCURVE",
"221 35 CURVE",
"149 35 LINE",
"144 25 OFFCURVE",
"141 8 OFFCURVE",
"141 -2 CURVE"
);
}
);
width = 650;
},
{
anchors = (
{
name = bottom;
position = "{289, 0}";
},
{
name = center;
position = "{353, 350}";
},
{
name = top;
position = "{428, 700}";
}
);
layerId = "503E420B-61F7-4277-A1BE-A8852071B452";
paths = (
{
closed = 1;
nodes = (
"173 0 OFFCURVE",
"233 0 OFFCURVE",
"279 0 CURVE SMOOTH",
"325 0 OFFCURVE",
"385 0 OFFCURVE",
"431 -2 CURVE",
"435 9 OFFCURVE",
"438 26 OFFCURVE",
"438 35 CURVE",
"371 35 LINE",
"376 90 OFFCURVE",
"387 152 OFFCURVE",
"399 210 CURVE SMOOTH",
"458 490 LINE SMOOTH",
"471 550 OFFCURVE",
"481 592 OFFCURVE",
"504 660 CURVE",
"537 660 LINE SMOOTH",
"633 660 OFFCURVE",
"669 598 OFFCURVE",
"649 480 CURVE",
"660 478 OFFCURVE",
"670 478 OFFCURVE",
"681 480 CURVE",
"728 700 LINE",
"128 700 LINE",
"81 480 LINE",
"92 478 OFFCURVE",
"102 478 OFFCURVE",
"113 480 CURVE",
"144 602 OFFCURVE",
"209 660 OFFCURVE",
"301 660 CURVE SMOOTH",
"334 660 LINE",
"327 585 OFFCURVE",
"318 539 OFFCURVE",
"308 490 CURVE SMOOTH",
"249 210 LINE SMOOTH",
"237 153 OFFCURVE",
"222 96 OFFCURVE",
"201 35 CURVE",
"134 35 LINE",
"130 24 OFFCURVE",
"127 7 OFFCURVE",
"127 -2 CURVE"
);
}
);
width = 656;
}
);
leftKerningGroup = T;
rightKerningGroup = T;
unicode = 0054;
},
{
glyphname = Tbar;
lastChange = "2020-11-29 15:05:20 +0000";
layers = (
{
components = (
{
name = T;
}
);
layerId = "45069982-2EFC-4B7D-8C53-1932E6EAC4CA";
paths = (
{
closed = 1;
nodes = (
"556 367 OFFCURVE",
"560 383 OFFCURVE",
"560 400 CURVE",
"180 400 LINE",
"174 383 OFFCURVE",
"170 367 OFFCURVE",
"170 350 CURVE",
"550 350 LINE"
);
}
);
width = 652;
},
{
components = (
{
name = T;
}
);
layerId = "503E420B-61F7-4277-A1BE-A8852071B452";
paths = (
{
closed = 1;
nodes = (
"570 367 OFFCURVE",
"574 383 OFFCURVE",
"574 400 CURVE",
"154 400 LINE",
"148 383 OFFCURVE",
"144 367 OFFCURVE",
"144 350 CURVE",
"564 350 LINE"
);
}
);
width = 659;
}
);
leftKerningGroup = T;
rightKerningGroup = T;
unicode = 0166;
},
{
glyphname = U;
lastChange = "2020-11-29 15:05:20 +0000";
layers = (
{
anchors = (
{
name = bottom;
position = "{318, 0}";
},
{
name = ogonek;
position = "{436, 0}";
},
{
name = top;
position = "{497, 700}";
},
{
name = topright;
position = "{782, 700}";
}
);
layerId = "45069982-2EFC-4B7D-8C53-1932E6EAC4CA";
paths = (
{
closed = 1;
nodes = (
"489 -15 OFFCURVE",
"593 68 OFFCURVE",
"622 205 CURVE SMOOTH",
"683 490 LINE SMOOTH",
"697 557 OFFCURVE",
"709 594 OFFCURVE",
"735 665 CURVE",
"802 665 LINE",
"806 675 OFFCURVE",
"810 693 OFFCURVE",
"810 702 CURVE",
"763 700 OFFCURVE",
"728 700 OFFCURVE",
"705 700 CURVE SMOOTH",
"679 700 OFFCURVE",
"634 700 OFFCURVE",
"589 702 CURVE",
"585 693 OFFCURVE",
"581 676 OFFCURVE",
"581 665 CURVE",
"658 665 LINE",
"654 595 OFFCURVE",
"648 549 OFFCURVE",
"636 490 CURVE SMOOTH",
"578 219 LINE SMOOTH",
"553 104 OFFCURVE",
"478 32 OFFCURVE",
"360 32 CURVE SMOOTH",
"249 32 OFFCURVE",
"196 84 OFFCURVE",
"227 230 CURVE SMOOTH",
"283 490 LINE SMOOTH",
"297 556 OFFCURVE",
"310 604 OFFCURVE",
"330 665 CURVE",
"402 665 LINE",
"406 675 OFFCURVE",
"410 693 OFFCURVE",
"410 702 CURVE",
"363 700 OFFCURVE",
"318 700 OFFCURVE",
"272 700 CURVE SMOOTH",
"227 700 OFFCURVE",
"181 700 OFFCURVE",
"136 702 CURVE",
"132 693 OFFCURVE",
"128 676 OFFCURVE",
"128 665 CURVE",
"200 665 LINE",
"192 584 OFFCURVE",
"183 539 OFFCURVE",
"173 490 CURVE SMOOTH",
"112 205 LINE SMOOTH",
"80 56 OFFCURVE",
"149 -15 OFFCURVE",
"341 -15 CURVE SMOOTH"
);
}
);
width = 738;
},
{
anchors = (
{
name = bottom;
position = "{321, 0}";
},
{
name = ogonek;
position = "{447, 0}";
},
{
name = top;
position = "{509, 700}";
},
{
name = topright;
position = "{819, 700}";
}
);
layerId = "503E420B-61F7-4277-A1BE-A8852071B452";
paths = (
{
closed = 1;
nodes = (
"498 -15 OFFCURVE",
"602 68 OFFCURVE",
"631 205 CURVE SMOOTH",
"692 490 LINE SMOOTH",
"703 541 OFFCURVE",
"714 585 OFFCURVE",
"744 665 CURVE",
"811 665 LINE",
"815 675 OFFCURVE",
"819 692 OFFCURVE",
"819 702 CURVE",
"772 700 OFFCURVE",
"737 700 OFFCURVE",
"714 700 CURVE SMOOTH",
"688 700 OFFCURVE",
"643 700 OFFCURVE",
"588 702 CURVE",
"584 692 OFFCURVE",
"580 675 OFFCURVE",
"580 665 CURVE",
"667 665 LINE",
"662 576 OFFCURVE",
"655 539 OFFCURVE",
"645 490 CURVE SMOOTH",
"588 221 LINE SMOOTH",
"563 102 OFFCURVE",
"483 32 OFFCURVE",
"375 32 CURVE SMOOTH",
"258 32 OFFCURVE",
"227 96 OFFCURVE",
"258 241 CURVE SMOOTH",
"312 490 LINE SMOOTH",
"325 550 OFFCURVE",
"340 608 OFFCURVE",
"359 665 CURVE",
"426 665 LINE",
"430 675 OFFCURVE",
"434 692 OFFCURVE",
"434 702 CURVE",
"387 700 OFFCURVE",
"328 700 OFFCURVE",
"281 700 CURVE SMOOTH",
"235 700 OFFCURVE",
"175 700 OFFCURVE",
"130 702 CURVE",
"126 692 OFFCURVE",
"122 675 OFFCURVE",
"122 665 CURVE",
"189 665 LINE",
"184 610 OFFCURVE",
"176 557 OFFCURVE",
"162 490 CURVE SMOOTH",
"99 195 LINE SMOOTH",
"69 55 OFFCURVE",
"160 -15 OFFCURVE",
"350 -15 CURVE SMOOTH"
);
}
);
width = 742;
},
{
associatedMasterId = "45069982-2EFC-4B7D-8C53-1932E6EAC4CA";
layerId = "CE54C865-E245-4CEE-945E-12AEB145065C";
name = "Nov 3 20, 00:22";
paths = (
{
closed = 1;
nodes = (
"647 672 LINE",
"647 700 LINE",
"463 700 LINE",
"463 672 LINE",
"529 672 LINE",
"537 626 OFFCURVE",
"541 579 OFFCURVE",
"541 532 CURVE SMOOTH",
"541 168 LINE SMOOTH",
"541 55 OFFCURVE",
"478 16 OFFCURVE",
"358 16 CURVE SMOOTH",
"272 16 OFFCURVE",
"201 83 OFFCURVE",
"201 168 CURVE SMOOTH",
"201 532 LINE SMOOTH",
"201 579 OFFCURVE",
"205 626 OFFCURVE",
"213 672 CURVE",
"279 672 LINE",
"279 700 LINE",
"13 700 LINE",
"13 672 LINE",
"79 672 LINE",
"87 626 OFFCURVE",
"91 579 OFFCURVE",
"91 532 CURVE SMOOTH",
"91 168 LINE SMOOTH",
"91 44 OFFCURVE",
"194 -12 OFFCURVE",
"330 -12 CURVE SMOOTH",
"483 -12 OFFCURVE",
"569 28 OFFCURVE",
"569 168 CURVE SMOOTH",
"569 532 LINE SMOOTH",
"569 579 OFFCURVE",
"573 626 OFFCURVE",
"581 672 CURVE"
);
}
);
width = 720;
},
{
associatedMasterId = "503E420B-61F7-4277-A1BE-A8852071B452";
layerId = "5BBE3528-29B5-417F-AFB0-AB69CC0B49AB";
name = "Nov 3 20, 00:22";
paths = (
{
closed = 1;
nodes = (
"655 668 LINE",
"655 700 LINE",
"467 700 LINE",
"467 668 LINE",
"533 668 LINE",
"541 622 OFFCURVE",
"545 575 OFFCURVE",
"545 528 CURVE SMOOTH",
"545 172 LINE SMOOTH",
"545 62 OFFCURVE",
"486 20 OFFCURVE",
"371 20 CURVE SMOOTH",
"294 20 OFFCURVE",
"239 92 OFFCURVE",
"239 172 CURVE SMOOTH",
"239 528 LINE SMOOTH",
"239 575 OFFCURVE",
"243 622 OFFCURVE",
"251 668 CURVE",
"317 668 LINE",
"317 700 LINE",
"11 700 LINE",
"11 668 LINE",
"77 668 LINE",
"85 622 OFFCURVE",
"89 575 OFFCURVE",
"89 528 CURVE SMOOTH",
"89 172 LINE SMOOTH",
"89 45 OFFCURVE",
"194 -12 OFFCURVE",
"333 -12 CURVE SMOOTH",
"489 -12 OFFCURVE",
"577 29 OFFCURVE",
"577 172 CURVE SMOOTH",
"577 528 LINE SMOOTH",
"577 575 OFFCURVE",
"581 622 OFFCURVE",
"589 668 CURVE"
);
}
);
width = 600;
}
);
leftKerningGroup = U;
rightKerningGroup = U;
unicode = 0055;
},
{
glyphname = V;
lastChange = "2020-11-29 15:04:39 +0000";
layers = (
{
anchors = (
{
name = bottom;
position = "{269, 0}";
},
{
name = top;
position = "{417, 700}";
}
);
guideLines = (
{
angle = 110.9448;
position = "{189, 490}";
},
{
angle = 110.9448;
position = "{126, 345}";
}
);
layerId = "45069982-2EFC-4B7D-8C53-1932E6EAC4CA";
paths = (
{
closed = 1;
nodes = (
"705 700 OFFCURVE",
"680 700 OFFCURVE",
"651 700 CURVE SMOOTH",
"628 700 OFFCURVE",
"583 700 OFFCURVE",
"529 702 CURVE",
"525 692 OFFCURVE",
"521 676 OFFCURVE",
"521 665 CURVE",
"602 665 LINE",
"583 597 OFFCURVE",
"559 550 OFFCURVE",
"527 490 CURVE SMOOTH",
"346 155 LINE",
"254 -20 LINE",
"272 -23 OFFCURVE",
"294 -23 OFFCURVE",
"314 -20 CURVE",
"343 58 OFFCURVE",
"387 137 OFFCURVE",
"411 181 CURVE SMOOTH",
"579 490 LINE SMOOTH",
"610 547 OFFCURVE",
"645 605 OFFCURVE",
"688 665 CURVE",
"745 665 LINE",
"749 675 OFFCURVE",
"753 692 OFFCURVE",
"753 702 CURVE"
);
},
{
closed = 1;
nodes = (
"159 598 OFFCURVE",
"169 548 OFFCURVE",
"179 490 CURVE SMOOTH",
"228 200 LINE SMOOTH",
"238 141 OFFCURVE",
"259 48 OFFCURVE",
"254 -20 CURVE",
"346 155 LINE",
"291 490 LINE SMOOTH",
"281 551 OFFCURVE",
"276 605 OFFCURVE",
"276 665 CURVE",
"345 665 LINE",
"349 675 OFFCURVE",
"353 692 OFFCURVE",
"353 702 CURVE",
"307 700 OFFCURVE",
"257 700 OFFCURVE",
"211 700 CURVE SMOOTH",
"170 700 OFFCURVE",
"140 700 OFFCURVE",
"94 702 CURVE",
"90 692 OFFCURVE",
"86 676 OFFCURVE",
"86 665 CURVE",
"140 665 LINE"
);
}
);
width = 653;
},
{
anchors = (
{
name = bottom;
position = "{275, 0}";
},
{
name = top;
position = "{423, 700}";
}
);
layerId = "503E420B-61F7-4277-A1BE-A8852071B452";
paths = (
{
closed = 1;
nodes = (
"717 700 OFFCURVE",
"692 700 OFFCURVE",
"663 700 CURVE SMOOTH",
"640 700 OFFCURVE",
"585 700 OFFCURVE",
"531 702 CURVE",
"527 694 OFFCURVE",
"523 672 OFFCURVE",
"523 665 CURVE",
"614 665 LINE",
"595 593 OFFCURVE",
"569 540 OFFCURVE",
"542 490 CURVE SMOOTH",
"373 181 LINE",
"239 -20 LINE",
"257 -23 OFFCURVE",
"309 -23 OFFCURVE",
"329 -20 CURVE",
"354 51 OFFCURVE",
"397 129 OFFCURVE",
"425 181 CURVE SMOOTH",
"594 490 LINE SMOOTH",
"624 544 OFFCURVE",
"658 605 OFFCURVE",
"700 665 CURVE",
"757 665 LINE",
"761 675 OFFCURVE",
"765 692 OFFCURVE",
"765 702 CURVE"
);
},
{
closed = 1;
nodes = (
"147 609 OFFCURVE",
"154 563 OFFCURVE",
"166 490 CURVE SMOOTH",
"214 200 LINE SMOOTH",
"227 121 OFFCURVE",
"241 49 OFFCURVE",
"239 -20 CURVE",
"373 181 LINE",
"324 490 LINE SMOOTH",
"314 552 OFFCURVE",
"306 606 OFFCURVE",
"308 665 CURVE",
"374 665 LINE",
"378 675 OFFCURVE",
"382 692 OFFCURVE",
"382 702 CURVE",
"336 700 OFFCURVE",
"290 700 OFFCURVE",
"224 700 CURVE SMOOTH",
"158 700 OFFCURVE",
"138 700 OFFCURVE",
"92 702 CURVE",
"88 692 OFFCURVE",
"84 677 OFFCURVE",
"84 665 CURVE",
"126 665 LINE"
);
}
);
width = 658;
}
);
unicode = 0056;
},
{
glyphname = W;
lastChange = "2020-11-29 15:05:20 +0000";
layers = (
{
anchors = (
{
name = bottom;
position = "{462, 0}";
},
{
name = top;
position = "{622, 700}";
}
);
layerId = "45069982-2EFC-4B7D-8C53-1932E6EAC4CA";
paths = (
{
closed = 1;
nodes = (
"167 587 OFFCURVE",
"174 537 OFFCURVE",
"181 490 CURVE SMOOTH",
"223 200 LINE SMOOTH",
"232 138 OFFCURVE",
"243 40 OFFCURVE",
"242 -20 CURVE",
"341 169 LINE",
"296 490 LINE SMOOTH",
"288 550 OFFCURVE",
"282 596 OFFCURVE",
"285 665 CURVE",
"355 665 LINE",
"359 675 OFFCURVE",
"363 692 OFFCURVE",
"363 702 CURVE",
"315 700 OFFCURVE",
"267 700 OFFCURVE",
"221 700 CURVE SMOOTH",
"178 700 OFFCURVE",
"149 700 OFFCURVE",
"101 702 CURVE",
"97 692 OFFCURVE",
"93 676 OFFCURVE",
"93 665 CURVE",
"146 665 LINE"
);
},
{
closed = 1;
nodes = (
"1082 700 OFFCURVE",
"1056 700 OFFCURVE",
"1031 700 CURVE SMOOTH",
"1001 700 OFFCURVE",
"956 700 OFFCURVE",
"899 702 CURVE",
"895 692 OFFCURVE",
"891 677 OFFCURVE",
"891 665 CURVE",
"975 665 LINE",
"953 588 OFFCURVE",
"928 539 OFFCURVE",
"902 490 CURVE SMOOTH",
"730 169 LINE",
"631 -20 LINE",
"652 -23 OFFCURVE",
"668 -23 OFFCURVE",
"689 -20 CURVE",
"718 56 OFFCURVE",
"759 130 OFFCURVE",
"787 181 CURVE SMOOTH",
"956 490 LINE SMOOTH",
"998 567 OFFCURVE",
"1021 605 OFFCURVE",
"1065 665 CURVE",
"1124 665 LINE",
"1130 678 OFFCURVE",
"1132 695 OFFCURVE",
"1132 702 CURVE"
);
},
{
closed = 1;
nodes = (
"558 601 OFFCURVE",
"561 551 OFFCURVE",
"570 490 CURVE SMOOTH",
"611 200 LINE SMOOTH",
"624 107 OFFCURVE",
"631 49 OFFCURVE",
"631 -20 CURVE",
"730 169 LINE",
"685 490 LINE SMOOTH",
"677 546 OFFCURVE",
"672 608 OFFCURVE",
"673 665 CURVE",
"745 665 LINE",
"750 679 OFFCURVE",
"751 694 OFFCURVE",
"753 702 CURVE",
"704 700 OFFCURVE",
"656 700 OFFCURVE",
"611 700 CURVE SMOOTH",
"572 700 OFFCURVE",
"539 700 OFFCURVE",
"491 702 CURVE",
"486 692 OFFCURVE",
"483 675 OFFCURVE",
"483 665 CURVE",
"541 665 LINE"
);
},
{
closed = 1;
nodes = (
"564 563 LINE",
"341 169 LINE",
"242 -20 LINE",
"260 -23 OFFCURVE",
"279 -23 OFFCURVE",
"300 -20 CURVE",
"326 48 OFFCURVE",
"368 126 OFFCURVE",
"399 181 CURVE SMOOTH",
"618 563 LINE"
);
}
);
width = 1027;
},
{
anchors = (
{
name = bottom;
position = "{482, 0}";
},
{
name = top;
position = "{630, 700}";
}
);
layerId = "503E420B-61F7-4277-A1BE-A8852071B452";
paths = (
{
closed = 1;
nodes = (
"140 622 OFFCURVE",
"155 560 OFFCURVE",
"166 490 CURVE SMOOTH",
"213 200 LINE SMOOTH",
"224 132 OFFCURVE",
"237 56 OFFCURVE",
"233 -20 CURVE",
"374 200 LINE",
"324 490 LINE SMOOTH",
"314 546 OFFCURVE",
"307 603 OFFCURVE",
"309 665 CURVE",
"376 665 LINE",
"380 675 OFFCURVE",
"384 691 OFFCURVE",
"384 702 CURVE",
"338 700 OFFCURVE",
"292 700 OFFCURVE",
"231 700 CURVE SMOOTH",
"160 700 OFFCURVE",
"140 700 OFFCURVE",
"94 702 CURVE",
"90 692 OFFCURVE",
"86 676 OFFCURVE",
"86 665 CURVE",
"123 665 LINE"
);
},
{
closed = 1;
nodes = (
"1104 700 OFFCURVE",
"1079 700 OFFCURVE",
"1055 700 CURVE SMOOTH",
"1032 700 OFFCURVE",
"977 700 OFFCURVE",
"923 702 CURVE",
"919 694 OFFCURVE",
"915 672 OFFCURVE",
"915 665 CURVE",
"1001 665 LINE",
"984 593 OFFCURVE",
"952 536 OFFCURVE",
"927 490 CURVE SMOOTH",
"769 200 LINE",
"629 -20 LINE",
"649 -23 OFFCURVE",
"699 -23 OFFCURVE",
"719 -20 CURVE",
"743 48 OFFCURVE",
"783 125 OFFCURVE",
"813 181 CURVE SMOOTH",
"979 490 LINE SMOOTH",
"1000 529 OFFCURVE",
"1041 600 OFFCURVE",
"1087 665 CURVE",
"1144 665 LINE",
"1148 675 OFFCURVE",
"1152 692 OFFCURVE",
"1152 702 CURVE"
);
},
{
closed = 1;
nodes = (
"543 613 OFFCURVE",
"551 574 OFFCURVE",
"564 490 CURVE SMOOTH",
"609 200 LINE SMOOTH",
"621 121 OFFCURVE",
"633 53 OFFCURVE",
"629 -20 CURVE",
"769 200 LINE",
"722 490 LINE SMOOTH",
"712 552 OFFCURVE",
"705 603 OFFCURVE",
"706 665 CURVE",
"772 665 LINE",
"776 675 OFFCURVE",
"780 692 OFFCURVE",
"780 702 CURVE",
"734 700 OFFCURVE",
"688 700 OFFCURVE",
"627 700 CURVE SMOOTH",
"556 700 OFFCURVE",
"536 700 OFFCURVE",
"490 702 CURVE",
"486 692 OFFCURVE",
"482 676 OFFCURVE",
"482 665 CURVE",
"528 665 LINE"
);
},
{
closed = 1;
nodes = (
"576 559 LINE",
"374 200 LINE",
"233 -20 LINE",
"253 -23 OFFCURVE",
"303 -23 OFFCURVE",
"323 -20 CURVE",
"349 55 OFFCURVE",
"399 148 OFFCURVE",
"417 181 CURVE SMOOTH",
"628 559 LINE"
);
}
);
width = 1043;
},
{
associatedMasterId = "503E420B-61F7-4277-A1BE-A8852071B452";
layerId = "D6BE94A4-0B32-4F72-BCB0-D63B2DF79324";
name = "Nov 3 20, 18:13";
paths = (
{
closed = 1;
nodes = (
"1032 668 LINE",
"1032 700 LINE",
"897 700 LINE",
"897 668 LINE",
"935 668 LINE",
"927 620 OFFCURVE",
"915 574 OFFCURVE",
"899 528 CURVE SMOOTH",
"784 193 LINE",
"669 528 LINE SMOOTH",
"654 574 OFFCURVE",
"642 620 OFFCURVE",
"633 668 CURVE",
"672 668 LINE",
"672 700 LINE",
"412 700 LINE",
"412 668 LINE",
"451 668 LINE",
"470 631 OFFCURVE",
"487 592 OFFCURVE",
"502 553 CURVE",
"494 528 LINE",
"379 193 LINE",
"264 528 LINE SMOOTH",
"248 574 OFFCURVE",
"236 620 OFFCURVE",
"228 668 CURVE",
"266 668 LINE",
"266 700 LINE",
"7 700 LINE",
"7 668 LINE",
"45 668 LINE",
"69 623 OFFCURVE",
"89 576 OFFCURVE",
"105 528 CURVE SMOOTH",
"228 172 LINE SMOOTH",
"249 111 OFFCURVE",
"266 49 OFFCURVE",
"280 -14 CURVE",
"354 -14 LINE",
"367 49 OFFCURVE",
"385 111 OFFCURVE",
"405 172 CURVE SMOOTH",
"519 503 LINE",
"633 172 LINE SMOOTH",
"654 111 OFFCURVE",
"671 49 OFFCURVE",
"685 -14 CURVE",
"759 -14 LINE",
"773 49 OFFCURVE",
"790 111 OFFCURVE",
"811 172 CURVE SMOOTH",
"933 528 LINE SMOOTH",
"950 576 OFFCURVE",
"970 623 OFFCURVE",
"993 668 CURVE"
);
}
);
width = 1034;
},
{
associatedMasterId = "45069982-2EFC-4B7D-8C53-1932E6EAC4CA";
layerId = "D29F2EC6-169B-4A0E-B7D7-EAB4EC064959";
name = "Nov 3 20, 18:13";
paths = (
{
closed = 1;
nodes = (
"1001 672 LINE",
"1001 700 LINE",
"871 700 LINE",
"871 672 LINE",
"909 672 LINE",
"901 624 OFFCURVE",
"889 578 OFFCURVE",
"874 532 CURVE SMOOTH",
"744 147 LINE",
"614 532 LINE SMOOTH",
"598 578 OFFCURVE",
"587 624 OFFCURVE",
"579 672 CURVE",
"617 672 LINE",
"617 700 LINE",
"400 700 LINE",
"400 672 LINE",
"438 672 LINE",
"458 634 OFFCURVE",
"475 594 OFFCURVE",
"490 554 CURVE",
"483 532 LINE",
"353 147 LINE",
"223 532 LINE SMOOTH",
"207 578 OFFCURVE",
"196 624 OFFCURVE",
"188 672 CURVE",
"226 672 LINE",
"226 700 LINE",
"9 700 LINE",
"9 672 LINE",
"47 672 LINE",
"71 627 OFFCURVE",
"90 580 OFFCURVE",
"107 532 CURVE SMOOTH",
"230 168 LINE SMOOTH",
"250 108 OFFCURVE",
"266 48 OFFCURVE",
"279 -14 CURVE",
"340 -14 LINE",
"353 48 OFFCURVE",
"369 108 OFFCURVE",
"389 168 CURVE SMOOTH",
"505 510 LINE",
"621 168 LINE SMOOTH",
"641 108 OFFCURVE",
"657 48 OFFCURVE",
"670 -14 CURVE",
"731 -14 LINE",
"744 48 OFFCURVE",
"760 108 OFFCURVE",
"780 168 CURVE SMOOTH",
"903 532 LINE SMOOTH",
"920 580 OFFCURVE",
"940 627 OFFCURVE",
"963 672 CURVE"
);
}
);
width = 1030;
}
);
leftKerningGroup = W;
rightKerningGroup = W;
unicode = 0057;
},
{
glyphname = X;
lastChange = "2020-11-29 15:04:39 +0000";
layers = (
{
anchors = (
{
name = bottom;
position = "{307, 0}";
},
{
name = top;
position = "{456, 700}";
}
);
layerId = "45069982-2EFC-4B7D-8C53-1932E6EAC4CA";
paths = (
{
closed = 1;
nodes = (
"587 35 LINE",
"556 93 OFFCURVE",
"527 153 OFFCURVE",
"501 212 CURVE SMOOTH",
"377 490 LINE SMOOTH",
"351 549 OFFCURVE",
"326 604 OFFCURVE",
"313 665 CURVE",
"382 665 LINE",
"386 675 OFFCURVE",
"390 693 OFFCURVE",
"390 702 CURVE",
"345 700 OFFCURVE",
"298 700 OFFCURVE",
"248 700 CURVE SMOOTH",
"202 700 OFFCURVE",
"172 700 OFFCURVE",
"125 702 CURVE",
"121 693 OFFCURVE",
"117 676 OFFCURVE",
"117 665 CURVE",
"171 665 LINE",
"204 609 OFFCURVE",
"232 549 OFFCURVE",
"258 490 CURVE SMOOTH",
"383 212 LINE SMOOTH",
"409 153 OFFCURVE",
"427 98 OFFCURVE",
"442 35 CURVE",
"373 35 LINE",
"369 25 OFFCURVE",
"365 9 OFFCURVE",
"365 -2 CURVE",
"409 0 OFFCURVE",
"464 0 OFFCURVE",
"509 0 CURVE SMOOTH",
"554 0 OFFCURVE",
"586 0 OFFCURVE",
"633 -2 CURVE",
"637 8 OFFCURVE",
"641 24 OFFCURVE",
"641 35 CURVE"
);
},
{
closed = 1;
nodes = (
"414 345 LINE",
"541 490 LINE SMOOTH",
"606 564 OFFCURVE",
"646 604 OFFCURVE",
"707 665 CURVE",
"762 665 LINE",
"766 675 OFFCURVE",
"770 693 OFFCURVE",
"770 702 CURVE",
"721 700 OFFCURVE",
"697 700 OFFCURVE",
"673 700 CURVE SMOOTH",
"650 700 OFFCURVE",
"604 700 OFFCURVE",
"551 702 CURVE",
"547 693 OFFCURVE",
"543 676 OFFCURVE",
"543 665 CURVE",
"615 665 LINE",
"575 596 OFFCURVE",
"524 537 OFFCURVE",
"483 490 CURVE SMOOTH",
"355 345 LINE"
);
},
{
closed = 1;
nodes = (
"335 365 LINE",
"201 210 LINE SMOOTH",
"149 150 OFFCURVE",
"111 110 OFFCURVE",
"36 35 CURVE",
"-19 35 LINE",
"-23 25 OFFCURVE",
"-27 9 OFFCURVE",
"-27 -2 CURVE",
"21 0 OFFCURVE",
"45 0 OFFCURVE",
"69 0 CURVE SMOOTH",
"92 0 OFFCURVE",
"146 0 OFFCURVE",
"200 -2 CURVE",
"204 8 OFFCURVE",
"208 25 OFFCURVE",
"208 35 CURVE",
"130 35 LINE",
"166 98 OFFCURVE",
"210 151 OFFCURVE",
"261 210 CURVE SMOOTH",
"396 365 LINE"
);
}
);
width = 696;
},
{
anchors = (
{
name = bottom;
position = "{303, 0}";
},
{
name = top;
position = "{452, 700}";
}
);
layerId = "503E420B-61F7-4277-A1BE-A8852071B452";
paths = (
{
closed = 1;
nodes = (
"595 35 LINE",
"564 82 OFFCURVE",
"544 132 OFFCURVE",
"512 210 CURVE SMOOTH",
"397 490 LINE SMOOTH",
"372 550 OFFCURVE",
"350 602 OFFCURVE",
"338 665 CURVE",
"407 665 LINE",
"411 675 OFFCURVE",
"415 693 OFFCURVE",
"415 702 CURVE",
"369 700 OFFCURVE",
"315 700 OFFCURVE",
"253 700 CURVE SMOOTH",
"182 700 OFFCURVE",
"163 700 OFFCURVE",
"117 702 CURVE",
"113 693 OFFCURVE",
"109 676 OFFCURVE",
"109 665 CURVE",
"151 665 LINE",
"179 623 OFFCURVE",
"207 560 OFFCURVE",
"235 490 CURVE SMOOTH",
"349 210 LINE SMOOTH",
"373 150 OFFCURVE",
"392 99 OFFCURVE",
"406 35 CURVE",
"339 35 LINE",
"335 25 OFFCURVE",
"331 9 OFFCURVE",
"331 -2 CURVE",
"376 0 OFFCURVE",
"420 0 OFFCURVE",
"491 0 CURVE SMOOTH",
"563 0 OFFCURVE",
"582 0 OFFCURVE",
"629 -2 CURVE",
"633 8 OFFCURVE",
"637 24 OFFCURVE",
"637 35 CURVE"
);
},
{
closed = 1;
nodes = (
"410 334 LINE",
"553 490 LINE SMOOTH",
"590 530 OFFCURVE",
"663 605 OFFCURVE",
"725 665 CURVE",
"782 665 LINE",
"786 677 OFFCURVE",
"789 688 OFFCURVE",
"790 702 CURVE",
"741 700 OFFCURVE",
"716 700 OFFCURVE",
"692 700 CURVE SMOOTH",
"669 700 OFFCURVE",
"607 700 OFFCURVE",
"554 702 CURVE",
"549 690 OFFCURVE",
"546 676 OFFCURVE",
"546 665 CURVE",
"630 665 LINE",
"594 603 OFFCURVE",
"542 544 OFFCURVE",
"493 490 CURVE SMOOTH",
"351 334 LINE"
);
},
{
closed = 1;
nodes = (
"332 366 LINE",
"197 210 LINE SMOOTH",
"153 159 OFFCURVE",
"101 103 OFFCURVE",
"36 35 CURVE",
"-26 35 LINE",
"-31 21 OFFCURVE",
"-33 11 OFFCURVE",
"-34 -2 CURVE",
"14 0 OFFCURVE",
"39 0 OFFCURVE",
"63 0 CURVE SMOOTH",
"86 0 OFFCURVE",
"148 0 OFFCURVE",
"202 -2 CURVE",
"207 12 OFFCURVE",
"209 23 OFFCURVE",
"210 35 CURVE",
"128 35 LINE",
"168 107 OFFCURVE",
"214 160 OFFCURVE",
"257 210 CURVE SMOOTH",
"391 366 LINE"
);
}
);
width = 700;
},
{
associatedMasterId = "45069982-2EFC-4B7D-8C53-1932E6EAC4CA";
layerId = "083BF821-9E36-44C3-8C02-B9CEF5444806";
name = "Nov 3 20, 21:24";
paths = (
{
closed = 1;
nodes = (
"647 0 LINE",
"647 28 LINE",
"581 28 LINE",
"549 73 OFFCURVE",
"519 120 OFFCURVE",
"492 168 CURVE SMOOTH",
"364 403 LINE",
"446 532 LINE SMOOTH",
"478 581 OFFCURVE",
"511 627 OFFCURVE",
"548 672 CURVE",
"614 672 LINE",
"614 700 LINE",
"425 700 LINE",
"425 672 LINE",
"491 672 LINE",
"468 624 OFFCURVE",
"442 577 OFFCURVE",
"413 532 CURVE SMOOTH",
"349 431 LINE",
"293 532 LINE SMOOTH",
"268 577 OFFCURVE",
"247 624 OFFCURVE",
"228 672 CURVE",
"294 672 LINE",
"294 700 LINE",
"13 700 LINE",
"13 672 LINE",
"79 672 LINE",
"111 627 OFFCURVE",
"141 580 OFFCURVE",
"168 532 CURVE SMOOTH",
"281 325 LINE",
"181 168 LINE SMOOTH",
"149 119 OFFCURVE",
"116 73 OFFCURVE",
"79 28 CURVE",
"13 28 LINE",
"13 0 LINE",
"202 0 LINE",
"202 28 LINE",
"136 28 LINE",
"159 76 OFFCURVE",
"185 123 OFFCURVE",
"214 168 CURVE SMOOTH",
"296 297 LINE",
"367 168 LINE SMOOTH",
"392 123 OFFCURVE",
"413 76 OFFCURVE",
"432 28 CURVE",
"366 28 LINE",
"366 0 LINE"
);
}
);
width = 640;
},
{
associatedMasterId = "503E420B-61F7-4277-A1BE-A8852071B452";
layerId = "308EC262-DACE-4639-9379-A7B993C50382";
name = "Nov 3 20, 21:24";
paths = (
{
closed = 1;
nodes = (
"655 0 LINE",
"655 32 LINE",
"589 32 LINE",
"558 77 OFFCURVE",
"531 124 OFFCURVE",
"507 172 CURVE SMOOTH",
"382 420 LINE",
"452 528 LINE SMOOTH",
"484 577 OFFCURVE",
"519 623 OFFCURVE",
"556 668 CURVE",
"622 668 LINE",
"622 700 LINE",
"428 700 LINE",
"428 668 LINE",
"494 668 LINE",
"470 620 OFFCURVE",
"443 573 OFFCURVE",
"414 528 CURVE SMOOTH",
"365 453 LINE",
"327 528 LINE SMOOTH",
"305 573 OFFCURVE",
"285 620 OFFCURVE",
"269 668 CURVE",
"335 668 LINE",
"335 700 LINE",
"11 700 LINE",
"11 668 LINE",
"77 668 LINE",
"108 623 OFFCURVE",
"135 576 OFFCURVE",
"159 528 CURVE SMOOTH",
"270 308 LINE",
"181 172 LINE SMOOTH",
"149 123 OFFCURVE",
"114 77 OFFCURVE",
"77 32 CURVE",
"11 32 LINE",
"11 0 LINE",
"205 0 LINE",
"205 32 LINE",
"139 32 LINE",
"163 80 OFFCURVE",
"190 127 OFFCURVE",
"219 172 CURVE SMOOTH",
"287 275 LINE",
"339 172 LINE SMOOTH",
"361 127 OFFCURVE",
"381 80 OFFCURVE",
"397 32 CURVE",
"331 32 LINE",
"331 0 LINE"
);
}
);
width = 600;
}
);
unicode = 0058;
},
{
glyphname = Y;
lastChange = "2020-11-29 15:05:20 +0000";
layers = (
{
anchors = (
{
name = bottom;
position = "{272, 0}";
},
{
name = top;
position = "{433, 700}";
},
{
name = topleft;
position = "{120, 700}";
}
);
backgroundImage = {
crop = "{{0, 0}, {1500, 441}}";
imagePath = "../../aniawielunska/Downloads/1928–1931_Półtawski_Antykwa-poster.png";
locked = "1";
transform = "{6.853, 0, 0, 6.853, -9584, -14}";
};
layerId = "45069982-2EFC-4B7D-8C53-1932E6EAC4CA";
paths = (
{
closed = 1;
nodes = (
"183 0 OFFCURVE",
"228 0 OFFCURVE",
"274 0 CURVE SMOOTH",
"318 0 OFFCURVE",
"365 0 OFFCURVE",
"410 -2 CURVE",
"414 8 OFFCURVE",
"418 25 OFFCURVE",
"418 35 CURVE",
"346 35 LINE",
"352 95 OFFCURVE",
"359 147 OFFCURVE",
"369 190 CURVE SMOOTH",
"372 203 LINE SMOOTH",
"398 316 OFFCURVE",
"497 521 OFFCURVE",
"663 665 CURVE",
"581 665 LINE",
"575 653 OFFCURVE",
"563 633 OFFCURVE",
"537 603 CURVE SMOOTH",
"477 534 OFFCURVE",
"413 436 OFFCURVE",
"375 350 CURVE",
"374 528 OFFCURVE",
"304 618 OFFCURVE",
"301 665 CURVE",
"155 665 LINE",
"226 589 OFFCURVE",
"304 383 OFFCURVE",
"262 203 CURVE SMOOTH",
"259 190 LINE SMOOTH",
"250 150 OFFCURVE",
"234 91 OFFCURVE",
"216 35 CURVE",
"144 35 LINE",
"140 25 OFFCURVE",
"136 8 OFFCURVE",
"136 -2 CURVE"
);
},
{
closed = 1;
nodes = (
"355 665 LINE",
"359 675 OFFCURVE",
"363 692 OFFCURVE",
"363 702 CURVE",
"306 700 OFFCURVE",
"241 700 OFFCURVE",
"215 700 CURVE SMOOTH",
"189 700 OFFCURVE",
"144 700 OFFCURVE",
"99 702 CURVE",
"95 692 OFFCURVE",
"91 676 OFFCURVE",
"91 665 CURVE"
);
},
{
closed = 1;
nodes = (
"720 665 LINE",
"724 675 OFFCURVE",
"728 692 OFFCURVE",
"728 702 CURVE",
"681 700 OFFCURVE",
"655 700 OFFCURVE",
"629 700 CURVE SMOOTH",
"603 700 OFFCURVE",
"563 700 OFFCURVE",
"508 702 CURVE",
"504 692 OFFCURVE",
"500 676 OFFCURVE",
"500 665 CURVE"
);
}
);
width = 639;
},
{
anchors = (
{
name = bottom;
position = "{281, 0}";
},
{
name = top;
position = "{455, 700}";
},
{
name = topleft;
position = "{117, 700}";
}
);
layerId = "503E420B-61F7-4277-A1BE-A8852071B452";
paths = (
{
closed = 1;
nodes = (
"176 0 OFFCURVE",
"236 0 OFFCURVE",
"282 0 CURVE SMOOTH",
"328 0 OFFCURVE",
"388 0 OFFCURVE",
"433 -2 CURVE",
"437 8 OFFCURVE",
"441 25 OFFCURVE",
"441 35 CURVE",
"374 35 LINE",
"379 90 OFFCURVE",
"386 143 OFFCURVE",
"401 210 CURVE SMOOTH",
"404 223 LINE SMOOTH",
"430 337 OFFCURVE",
"531 522 OFFCURVE",
"700 665 CURVE",
"603 665 LINE",
"595 650 OFFCURVE",
"585 628 OFFCURVE",
"549 582 CURVE SMOOTH",
"512 535 OFFCURVE",
"446 448 OFFCURVE",
"400 355 CURVE",
"392 543 OFFCURVE",
"331 620 OFFCURVE",
"328 665 CURVE",
"143 665 LINE",
"221 578 OFFCURVE",
"290 375 OFFCURVE",
"248 193 CURVE SMOOTH",
"245 180 LINE SMOOTH",
"238 150 OFFCURVE",
"223 92 OFFCURVE",
"204 35 CURVE",
"137 35 LINE",
"133 25 OFFCURVE",
"129 8 OFFCURVE",
"129 -2 CURVE"
);
},
{
closed = 1;
nodes = (
"382 665 LINE",
"386 675 OFFCURVE",
"390 691 OFFCURVE",
"390 702 CURVE",
"333 700 OFFCURVE",
"269 700 OFFCURVE",
"243 700 CURVE SMOOTH",
"179 700 OFFCURVE",
"144 700 OFFCURVE",
"99 702 CURVE",
"95 692 OFFCURVE",
"91 676 OFFCURVE",
"91 665 CURVE"
);
},
{
closed = 1;
nodes = (
"753 665 LINE",
"757 675 OFFCURVE",
"761 692 OFFCURVE",
"761 702 CURVE",
"714 700 OFFCURVE",
"688 700 OFFCURVE",
"662 700 CURVE SMOOTH",
"636 700 OFFCURVE",
"586 700 OFFCURVE",
"531 702 CURVE",
"527 692 OFFCURVE",
"523 676 OFFCURVE",
"523 665 CURVE"
);
}
);
width = 660;
},
{
associatedMasterId = "45069982-2EFC-4B7D-8C53-1932E6EAC4CA";
backgroundImage = {
crop = "{{0, 0}, {1500, 441}}";
imagePath = "../../aniawielunska/Downloads/1928–1931_Półtawski_Antykwa-poster.png";
locked = "1";
transform = "{6.853, 0, 0, 6.853, -9538, -14}";
};
guideLines = (
{
position = "{534, 625}";
}
);
layerId = "ED2B5FC9-B7D3-440C-B501-88F4FB380913";
name = "Nov 4 20, 00:15";
paths = (
{
closed = 1;
nodes = (
"501 665 LINE",
"500 652 OFFCURVE",
"491 640 OFFCURVE",
"469 606 CURVE SMOOTH",
"428 543 OFFCURVE",
"383 451 OFFCURVE",
"363 373 CURVE",
"339 464 OFFCURVE",
"281 580 OFFCURVE",
"210 665 CURVE",
"13 665 LINE",
"63 665 OFFCURVE",
"79 654 OFFCURVE",
"114 611 CURVE SMOOTH",
"168 543 OFFCURVE",
"272 383 OFFCURVE",
"272 223 CURVE",
"382 223 LINE",
"382 351 OFFCURVE",
"442 524 OFFCURVE",
"534 625 CURVE SMOOTH",
"565 659 OFFCURVE",
"579 665 OFFCURVE",
"616 665 CURVE"
);
},
{
closed = 1;
nodes = (
"327 223 LINE",
"272 223 LINE",
"272 210 LINE SMOOTH",
"272 150 OFFCURVE",
"269 95 OFFCURVE",
"262 35 CURVE",
"190 35 LINE",
"188 25 OFFCURVE",
"188 8 OFFCURVE",
"190 -2 CURVE",
"236 0 OFFCURVE",
"281 0 OFFCURVE",
"327 0 CURVE"
);
},
{
closed = 1;
nodes = (
"373 0 OFFCURVE",
"418 0 OFFCURVE",
"464 -2 CURVE",
"466 8 OFFCURVE",
"466 25 OFFCURVE",
"464 35 CURVE",
"392 35 LINE",
"385 95 OFFCURVE",
"382 150 OFFCURVE",
"382 210 CURVE SMOOTH",
"382 223 LINE",
"327 223 LINE",
"327 0 LINE"
);
},
{
closed = 1;
nodes = (
"297 665 LINE",
"299 675 OFFCURVE",
"299 692 OFFCURVE",
"297 702 CURVE",
"241 700 OFFCURVE",
"176 700 OFFCURVE",
"150 700 CURVE SMOOTH",
"124 700 OFFCURVE",
"59 700 OFFCURVE",
"3 702 CURVE",
"1 692 OFFCURVE",
"1 675 OFFCURVE",
"3 665 CURVE"
);
},
{
closed = 1;
nodes = (
"651 665 LINE",
"653 675 OFFCURVE",
"653 692 OFFCURVE",
"651 702 CURVE",
"605 700 OFFCURVE",
"570 700 OFFCURVE",
"544 700 CURVE SMOOTH",
"518 700 OFFCURVE",
"483 700 OFFCURVE",
"427 702 CURVE",
"425 692 OFFCURVE",
"425 675 OFFCURVE",
"427 665 CURVE"
);
}
);
width = 660;
},
{
associatedMasterId = "503E420B-61F7-4277-A1BE-A8852071B452";
layerId = "8BA5FA6B-431C-4205-AD1B-5C9ADE995262";
name = "Nov 4 20, 15:08";
paths = (
{
closed = 1;
nodes = (
"651 668 LINE",
"651 700 LINE",
"452 700 LINE",
"452 668 LINE",
"525 668 LINE",
"525 636 OFFCURVE",
"503 602 OFFCURVE",
"483 573 CURVE SMOOTH",
"461 538 OFFCURVE",
"441 502 OFFCURVE",
"424 464 CURVE SMOOTH",
"410 431 OFFCURVE",
"398 397 OFFCURVE",
"390 362 CURVE",
"378 410 LINE SMOOTH",
"362 464 OFFCURVE",
"340 516 OFFCURVE",
"313 566 CURVE SMOOTH",
"296 597 OFFCURVE",
"286 632 OFFCURVE",
"285 668 CURVE",
"351 668 LINE",
"351 700 LINE",
"7 700 LINE",
"7 668 LINE",
"51 668 LINE",
"102 617 OFFCURVE",
"146 558 OFFCURVE",
"181 494 CURVE SMOOTH",
"225 414 OFFCURVE",
"254 325 OFFCURVE",
"254 233 CURVE SMOOTH",
"254 172 LINE SMOOTH",
"254 125 OFFCURVE",
"250 78 OFFCURVE",
"242 32 CURVE",
"176 32 LINE",
"176 0 LINE",
"482 0 LINE",
"482 32 LINE",
"416 32 LINE",
"408 78 OFFCURVE",
"404 125 OFFCURVE",
"404 172 CURVE SMOOTH",
"404 233 LINE SMOOTH",
"404 308 OFFCURVE",
"423 382 OFFCURVE",
"453 451 CURVE SMOOTH",
"489 532 OFFCURVE",
"539 605 OFFCURVE",
"602 668 CURVE"
);
}
);
width = 600;
}
);
leftKerningGroup = Y;
rightKerningGroup = Y;
unicode = 0059;
},
{
glyphname = Z;
lastChange = "2020-11-29 15:05:20 +0000";
layers = (
{
anchors = (
{
name = bottom;
position = "{262, 0}";
},
{
name = center;
position = "{336, 350}";
},
{
name = top;
position = "{401, 700}";
}
);
guideLines = (
{
position = "{162, 210}";
}
);
layerId = "45069982-2EFC-4B7D-8C53-1932E6EAC4CA";
paths = (
{
closed = 1;
nodes = (
"127 510 LINE",
"138 508 OFFCURVE",
"148 508 OFFCURVE",
"159 510 CURVE",
"188 621 OFFCURVE",
"248 660 OFFCURVE",
"331 660 CURVE SMOOTH",
"544 660 LINE",
"675 650 LINE",
"680 669 OFFCURVE",
"682 682 OFFCURVE",
"683 700 CURVE",
"168 700 LINE"
);
},
{
closed = 1;
nodes = (
"589 190 LINE",
"578 192 OFFCURVE",
"569 192 OFFCURVE",
"557 190 CURVE",
"529 79 OFFCURVE",
"479 40 OFFCURVE",
"386 40 CURVE SMOOTH",
"138 40 LINE",
"0 50 LINE",
"-4 33 OFFCURVE",
"-5 16 OFFCURVE",
"-7 0 CURVE",
"549 0 LINE"
);
},
{
closed = 1;
nodes = (
"511 643 OFFCURVE",
"480 602 OFFCURVE",
"414 520 CURVE SMOOTH",
"143 180 LINE SMOOTH",
"108 136 OFFCURVE",
"42 67 OFFCURVE",
"0 50 CURVE",
"138 40 LINE",
"176 57 OFFCURVE",
"215 105 OFFCURVE",
"275 180 CURVE SMOOTH",
"546 520 LINE SMOOTH",
"579 561 OFFCURVE",
"624 623 OFFCURVE",
"675 650 CURVE",
"544 660 LINE"
);
}
);
width = 644;
},
{
anchors = (
{
name = bottom;
position = "{260, 0}";
},
{
name = center;
position = "{334, 350}";
},
{
name = top;
position = "{399, 700}";
}
);
layerId = "503E420B-61F7-4277-A1BE-A8852071B452";
paths = (
{
closed = 1;
nodes = (
"121 500 LINE",
"132 498 OFFCURVE",
"142 498 OFFCURVE",
"153 500 CURVE",
"188 638 OFFCURVE",
"262 660 OFFCURVE",
"337 660 CURVE SMOOTH",
"487 660 LINE",
"676 650 LINE",
"681 667 OFFCURVE",
"684 684 OFFCURVE",
"682 700 CURVE",
"164 700 LINE"
);
},
{
closed = 1;
nodes = (
"580 190 LINE",
"569 192 OFFCURVE",
"560 192 OFFCURVE",
"548 190 CURVE",
"526 110 OFFCURVE",
"471 40 OFFCURVE",
"367 40 CURVE SMOOTH",
"182 40 LINE",
"-9 50 LINE",
"-14 33 OFFCURVE",
"-16 16 OFFCURVE",
"-15 0 CURVE",
"540 0 LINE"
);
},
{
closed = 1;
nodes = (
"464 643 OFFCURVE",
"437 616 OFFCURVE",
"414 584 CURVE SMOOTH",
"124 180 LINE SMOOTH",
"92 136 OFFCURVE",
"33 67 OFFCURVE",
"-9 50 CURVE",
"182 40 LINE",
"214 59 OFFCURVE",
"234 84 OFFCURVE",
"251 108 CURVE SMOOTH",
"547 520 LINE SMOOTH",
"579 564 OFFCURVE",
"627 623 OFFCURVE",
"676 650 CURVE",
"487 660 LINE"
);
}
);
width = 635;
},
{
associatedMasterId = "45069982-2EFC-4B7D-8C53-1932E6EAC4CA";
layerId = "E027E6B9-DBC9-4CF2-87C8-D3090DECD659";
name = "Nov 3 20, 21:08";
paths = (
{
closed = 1;
nodes = (
"26 28 LINE",
"26 0 LINE",
"584 0 LINE",
"584 175 LINE",
"556 175 LINE",
"556 99 OFFCURVE",
"513 28 OFFCURVE",
"444 28 CURVE SMOOTH"
);
},
{
closed = 1;
nodes = (
"464 683 LINE",
"430 651 OFFCURVE",
"399 619 OFFCURVE",
"376 578 CURVE SMOOTH",
"154 175 LINE SMOOTH",
"121 114 OFFCURVE",
"72 64 OFFCURVE",
"12 28 CURVE",
"159 18 LINE",
"195 47 OFFCURVE",
"227 80 OFFCURVE",
"251 122 CURVE SMOOTH",
"472 525 LINE SMOOTH",
"503 579 OFFCURVE",
"538 630 OFFCURVE",
"581 675 CURVE"
);
},
{
closed = 1;
nodes = (
"570 700 LINE",
"54 700 LINE",
"54 525 LINE",
"82 525 LINE",
"82 601 OFFCURVE",
"125 672 OFFCURVE",
"194 672 CURVE SMOOTH",
"570 672 LINE"
);
}
);
width = 620;
},
{
associatedMasterId = "503E420B-61F7-4277-A1BE-A8852071B452";
layerId = "D4D88E59-8924-493D-B3CA-E11EFC59C935";
name = "Nov 3 20, 21:08";
paths = (
{
closed = 1;
nodes = (
"22 32 LINE",
"22 0 LINE",
"582 0 LINE",
"582 175 LINE",
"550 175 LINE",
"550 102 OFFCURVE",
"509 32 OFFCURVE",
"442 32 CURVE SMOOTH"
);
},
{
closed = 1;
nodes = (
"403 679 LINE",
"373 652 OFFCURVE",
"349 622 OFFCURVE",
"333 586 CURVE SMOOTH",
"151 175 LINE SMOOTH",
"123 112 OFFCURVE",
"71 62 OFFCURVE",
"7 37 CURVE",
"220 21 LINE",
"247 47 OFFCURVE",
"272 78 OFFCURVE",
"288 114 CURVE SMOOTH",
"470 525 LINE SMOOTH",
"494 580 OFFCURVE",
"532 629 OFFCURVE",
"578 668 CURVE"
);
},
{
closed = 1;
nodes = (
"566 700 LINE",
"50 700 LINE",
"50 525 LINE",
"82 525 LINE",
"82 598 OFFCURVE",
"123 668 OFFCURVE",
"190 668 CURVE SMOOTH",
"566 668 LINE"
);
}
);
width = 600;
}
);
leftKerningGroup = Z;
rightKerningGroup = Z;
unicode = 005A;
},
{
color = 3;
glyphname = K.ss01;
lastChange = "2020-11-29 15:05:20 +0000";
layers = (
{
anchors = (
{
name = bottom;
position = "{358, 0}";
},
{
name = top;
position = "{507, 700}";
}
);
components = (
{
name = I;
}
);
layerId = "45069982-2EFC-4B7D-8C53-1932E6EAC4CA";
paths = (
{
closed = 1;
nodes = (
"458 0 OFFCURVE",
"505 0 OFFCURVE",
"548 0 CURVE SMOOTH",
"584 0 OFFCURVE",
"618 0 OFFCURVE",
"666 -2 CURVE",
"671 12 OFFCURVE",
"673 23 OFFCURVE",
"674 35 CURVE",
"624 35 LINE",
"585 95 OFFCURVE",
"550 159 OFFCURVE",
"519 224 CURVE SMOOTH",
"415 440 LINE",
"337 355 LINE",
"401 222 LINE SMOOTH",
"430 161 OFFCURVE",
"461 100 OFFCURVE",
"482 35 CURVE",
"423 35 LINE",
"418 21 OFFCURVE",
"416 11 OFFCURVE",
"415 -2 CURVE"
);
},
{
closed = 1;
nodes = (
"237 252 LINE",
"509 494 LINE SMOOTH",
"617 590 OFFCURVE",
"635 604 OFFCURVE",
"707 665 CURVE",
"772 665 LINE",
"776 676 OFFCURVE",
"779 690 OFFCURVE",
"780 702 CURVE",
"731 700 OFFCURVE",
"697 700 OFFCURVE",
"673 700 CURVE SMOOTH",
"650 700 OFFCURVE",
"598 700 OFFCURVE",
"545 702 CURVE",
"540 690 OFFCURVE",
"537 676 OFFCURVE",
"537 665 CURVE",
"609 665 LINE",
"560 601 OFFCURVE",
"501 544 OFFCURVE",
"444 494 CURVE SMOOTH",
"170 252 LINE"
);
}
);
width = 720;
},
{
anchors = (
{
name = bottom;
position = "{373, 0}";
},
{
name = top;
position = "{522, 700}";
}
);
components = (
{
name = I;
}
);
layerId = "503E420B-61F7-4277-A1BE-A8852071B452";
paths = (
{
closed = 1;
nodes = (
"468 0 OFFCURVE",
"510 0 OFFCURVE",
"576 0 CURVE SMOOTH",
"633 0 OFFCURVE",
"654 0 OFFCURVE",
"701 -2 CURVE",
"705 10 OFFCURVE",
"708 23 OFFCURVE",
"708 35 CURVE",
"666 35 LINE",
"637 83 OFFCURVE",
"617 149 OFFCURVE",
"594 210 CURVE SMOOTH",
"497 470 LINE",
"381 352 LINE",
"433 210 LINE SMOOTH",
"454 153 OFFCURVE",
"473 95 OFFCURVE",
"482 35 CURVE",
"430 35 LINE",
"426 23 OFFCURVE",
"423 10 OFFCURVE",
"423 -2 CURVE"
);
},
{
closed = 1;
nodes = (
"212 193 LINE",
"542 490 LINE SMOOTH",
"604 546 OFFCURVE",
"681 615 OFFCURVE",
"757 665 CURVE",
"814 665 LINE",
"819 677 OFFCURVE",
"822 691 OFFCURVE",
"822 702 CURVE",
"774 700 OFFCURVE",
"739 700 OFFCURVE",
"715 700 CURVE SMOOTH",
"692 700 OFFCURVE",
"625 700 OFFCURVE",
"571 702 CURVE",
"567 691 OFFCURVE",
"564 677 OFFCURVE",
"563 665 CURVE",
"642 665 LINE",
"602 605 OFFCURVE",
"536 544 OFFCURVE",
"475 490 CURVE SMOOTH",
"144 193 LINE"
);
}
);
width = 753;
}
);
leftKerningGroup = H;
rightKerningGroup = K.ss01;
},
{
color = 3;
glyphname = R.ss01;
lastChange = "2020-11-29 15:05:20 +0000";
layers = (
{
anchors = (
{
name = bottom;
position = "{317, 0}";
},
{
name = top;
position = "{437, 700}";
}
);
layerId = "45069982-2EFC-4B7D-8C53-1932E6EAC4CA";
paths = (
{
closed = 1;
nodes = (
"236 700 OFFCURVE",
"191 700 OFFCURVE",
"146 702 CURVE",
"142 692 OFFCURVE",
"138 675 OFFCURVE",
"138 665 CURVE",
"210 665 LINE",
"203 595 OFFCURVE",
"194 541 OFFCURVE",
"183 490 CURVE SMOOTH",
"123 210 LINE SMOOTH",
"112 159 OFFCURVE",
"96 95 OFFCURVE",
"76 35 CURVE",
"4 35 LINE",
"0 25 OFFCURVE",
"-4 9 OFFCURVE",
"-4 -2 CURVE",
"42 0 OFFCURVE",
"87 0 OFFCURVE",
"133 0 CURVE SMOOTH",
"180 0 OFFCURVE",
"224 0 OFFCURVE",
"270 -2 CURVE",
"274 8 OFFCURVE",
"278 25 OFFCURVE",
"278 35 CURVE",
"206 35 LINE",
"212 103 OFFCURVE",
"223 161 OFFCURVE",
"233 210 CURVE SMOOTH",
"293 490 LINE SMOOTH",
"307 557 OFFCURVE",
"319 599 OFFCURVE",
"339 660 CURVE",
"419 660 LINE SMOOTH",
"505 660 OFFCURVE",
"543 621 OFFCURVE",
"543 547 CURVE SMOOTH",
"543 448 OFFCURVE",
"468 360 OFFCURVE",
"375 360 CURVE SMOOTH",
"210 360 LINE",
"201 320 LINE",
"373 320 LINE",
"426 324 LINE",
"567 348 OFFCURVE",
"668 445 OFFCURVE",
"668 548 CURVE SMOOTH",
"668 658 OFFCURVE",
"570 700 OFFCURVE",
"437 700 CURVE SMOOTH",
"282 700 LINE SMOOTH"
);
},
{
closed = 1;
nodes = (
"428 0 OFFCURVE",
"453 0 OFFCURVE",
"499 0 CURVE SMOOTH",
"549 0 OFFCURVE",
"581 0 OFFCURVE",
"628 -2 CURVE",
"633 12 OFFCURVE",
"635 23 OFFCURVE",
"636 35 CURVE",
"582 35 LINE",
"553 94 OFFCURVE",
"530 156 OFFCURVE",
"508 212 CURVE SMOOTH",
"455 347 LINE",
"345 338 LINE",
"394 212 LINE SMOOTH",
"417 152 OFFCURVE",
"435 97 OFFCURVE",
"444 35 CURVE",
"392 35 LINE",
"387 21 OFFCURVE",
"385 11 OFFCURVE",
"384 -2 CURVE"
);
}
);
width = 682;
},
{
anchors = (
{
name = bottom;
position = "{333, 0}";
},
{
name = top;
position = "{452, 700}";
}
);
layerId = "503E420B-61F7-4277-A1BE-A8852071B452";
paths = (
{
closed = 1;
nodes = (
"247 700 OFFCURVE",
"187 700 OFFCURVE",
"142 702 CURVE",
"138 692 OFFCURVE",
"134 675 OFFCURVE",
"134 665 CURVE",
"201 665 LINE",
"196 610 OFFCURVE",
"188 557 OFFCURVE",
"174 490 CURVE SMOOTH",
"114 210 LINE SMOOTH",
"101 150 OFFCURVE",
"86 93 OFFCURVE",
"67 35 CURVE",
"0 35 LINE",
"-4 25 OFFCURVE",
"-8 9 OFFCURVE",
"-8 -2 CURVE",
"38 0 OFFCURVE",
"98 0 OFFCURVE",
"144 0 CURVE SMOOTH",
"190 0 OFFCURVE",
"250 0 OFFCURVE",
"296 -2 CURVE",
"300 8 OFFCURVE",
"304 25 OFFCURVE",
"304 35 CURVE",
"237 35 LINE",
"243 104 OFFCURVE",
"252 156 OFFCURVE",
"264 210 CURVE SMOOTH",
"324 490 LINE SMOOTH",
"338 557 OFFCURVE",
"350 599 OFFCURVE",
"370 660 CURVE",
"417 660 LINE SMOOTH",
"482 660 OFFCURVE",
"521 628 OFFCURVE",
"521 551 CURVE SMOOTH",
"521 450 OFFCURVE",
"450 360 OFFCURVE",
"363 360 CURVE SMOOTH",
"228 360 LINE",
"219 320 LINE",
"391 320 LINE",
"462 336 LINE SMOOTH",
"601 367 OFFCURVE",
"687 453 OFFCURVE",
"687 550 CURVE SMOOTH",
"687 662 OFFCURVE",
"584 700 OFFCURVE",
"455 700 CURVE SMOOTH",
"293 700 LINE SMOOTH"
);
},
{
closed = 1;
nodes = (
"420 0 OFFCURVE",
"457 0 OFFCURVE",
"520 0 CURVE SMOOTH",
"587 0 OFFCURVE",
"608 0 OFFCURVE",
"654 -2 CURVE",
"659 12 OFFCURVE",
"661 23 OFFCURVE",
"662 35 CURVE",
"620 35 LINE",
"598 81 OFFCURVE",
"577 132 OFFCURVE",
"553 210 CURVE SMOOTH",
"499 385 LINE",
"358 340 LINE",
"397 210 LINE SMOOTH",
"415 151 OFFCURVE",
"433 92 OFFCURVE",
"440 35 CURVE",
"383 35 LINE",
"381 31 OFFCURVE",
"375 12 OFFCURVE",
"375 -2 CURVE"
);
}
);
width = 703;
}
);
leftKerningGroup = H;
rightKerningGroup = R.ss01;
},
{
glyphname = a;
lastChange = "2020-11-29 15:05:20 +0000";
layers = (
{
anchors = (
{
name = bottom;
position = "{235, 0}";
},
{
name = ogonek;
position = "{447, 0}";
},
{
name = top;
position = "{309, 440}";
}
);
layerId = "45069982-2EFC-4B7D-8C53-1932E6EAC4CA";
paths = (
{
closed = 1;
nodes = (
"444 -15 OFFCURVE",
"498 26 OFFCURVE",
"530 86 CURVE",
"520 95 OFFCURVE",
"512 101 OFFCURVE",
"500 106 CURVE",
"469 58 OFFCURVE",
"446 40 OFFCURVE",
"428 40 CURVE SMOOTH",
"408 40 OFFCURVE",
"408 62 OFFCURVE",
"414 92 CURVE SMOOTH",
"450 260 LINE SMOOTH",
"461 311 OFFCURVE",
"480 386 OFFCURVE",
"499 440 CURVE",
"488 442 OFFCURVE",
"478 442 OFFCURVE",
"467 440 CURVE",
"385 375 LINE",
"375 241 LINE",
"340 172 LINE",
"323 92 LINE SMOOTH",
"310 29 OFFCURVE",
"330 -15 OFFCURVE",
"388 -15 CURVE SMOOTH"
);
},
{
closed = 1;
nodes = (
"294 -15 OFFCURVE",
"406 163 OFFCURVE",
"406 313 CURVE",
"459 345 LINE",
"449 412 OFFCURVE",
"391 455 OFFCURVE",
"306 455 CURVE SMOOTH",
"139 455 OFFCURVE",
"35 288 OFFCURVE",
"35 139 CURVE SMOOTH",
"35 40 OFFCURVE",
"79 -15 OFFCURVE",
"156 -15 CURVE SMOOTH"
);
},
{
closed = 1;
nodes = (
"157 45 OFFCURVE",
"131 77 OFFCURVE",
"131 142 CURVE SMOOTH",
"131 252 OFFCURVE",
"215 415 OFFCURVE",
"306 415 CURVE SMOOTH",
"351 415 OFFCURVE",
"369 376 OFFCURVE",
"369 316 CURVE SMOOTH",
"369 204 OFFCURVE",
"295 45 OFFCURVE",
"200 45 CURVE SMOOTH"
);
}
);
width = 550;
},
{
anchors = (
{
name = bottom;
position = "{251, 0}";
},
{
name = ogonek;
position = "{474, 0}";
},
{
name = top;
position = "{339, 460}";
}
);
layerId = "503E420B-61F7-4277-A1BE-A8852071B452";
paths = (
{
closed = 1;
nodes = (
"471 -15 OFFCURVE",
"529 26 OFFCURVE",
"566 85 CURVE",
"557 94 OFFCURVE",
"547 100 OFFCURVE",
"536 105 CURVE",
"508 67 OFFCURVE",
"490 50 OFFCURVE",
"471 50 CURVE SMOOTH",
"450 50 OFFCURVE",
"450 73 OFFCURVE",
"458 110 CURVE SMOOTH",
"492 270 LINE SMOOTH",
"505 330 OFFCURVE",
"524 406 OFFCURVE",
"543 460 CURVE",
"532 462 OFFCURVE",
"522 462 OFFCURVE",
"511 460 CURVE",
"393 392 LINE",
"390 258 LINE",
"343 154 LINE",
"331 100 LINE SMOOTH",
"317 38 OFFCURVE",
"339 -15 OFFCURVE",
"409 -15 CURVE SMOOTH"
);
},
{
closed = 1;
nodes = (
"314 -15 OFFCURVE",
"414 164 OFFCURVE",
"414 329 CURVE",
"492 387 LINE",
"466 442 OFFCURVE",
"405 475 OFFCURVE",
"319 475 CURVE SMOOTH",
"133 475 OFFCURVE",
"33 320 OFFCURVE",
"33 161 CURVE SMOOTH",
"33 48 OFFCURVE",
"84 -15 OFFCURVE",
"170 -15 CURVE SMOOTH"
);
},
{
closed = 1;
nodes = (
"193 58 OFFCURVE",
"173 92 OFFCURVE",
"173 155 CURVE SMOOTH",
"173 264 OFFCURVE",
"237 435 OFFCURVE",
"322 435 CURVE SMOOTH",
"364 435 OFFCURVE",
"376 394 OFFCURVE",
"376 331 CURVE SMOOTH",
"376 208 OFFCURVE",
"315 58 OFFCURVE",
"232 58 CURVE SMOOTH"
);
}
);
width = 585;
},
{
associatedMasterId = "45069982-2EFC-4B7D-8C53-1932E6EAC4CA";
layerId = "32DEE42D-1858-4AEB-A29B-4103D10B3F7F";
name = "Nov 3 20, 18:57";
paths = (
{
closed = 1;
nodes = (
"452 0 LINE",
"452 28 LINE",
"414 28 OFFCURVE",
"392 36 OFFCURVE",
"392 70 CURVE SMOOTH",
"392 308 LINE SMOOTH",
"392 402 OFFCURVE",
"323 452 OFFCURVE",
"224 452 CURVE SMOOTH",
"139 452 OFFCURVE",
"56 412 OFFCURVE",
"56 336 CURVE",
"128 336 LINE",
"128 392 OFFCURVE",
"167 424 OFFCURVE",
"224 424 CURVE SMOOTH",
"274 424 OFFCURVE",
"302 388 OFFCURVE",
"302 336 CURVE SMOOTH",
"302 232 LINE",
"270 257 OFFCURVE",
"232 270 OFFCURVE",
"192 270 CURVE SMOOTH",
"95 270 OFFCURVE",
"26 221 OFFCURVE",
"26 129 CURVE SMOOTH",
"26 37 OFFCURVE",
"95 -12 OFFCURVE",
"192 -12 CURVE SMOOTH",
"233 -12 OFFCURVE",
"280 9 OFFCURVE",
"310 40 CURVE",
"323 16 OFFCURVE",
"350 0 OFFCURVE",
"380 0 CURVE SMOOTH"
);
},
{
closed = 1;
nodes = (
"302 73 LINE",
"282 41 OFFCURVE",
"238 16 OFFCURVE",
"200 16 CURVE SMOOTH",
"147 16 OFFCURVE",
"116 71 OFFCURVE",
"116 129 CURVE SMOOTH",
"116 187 OFFCURVE",
"147 242 OFFCURVE",
"200 242 CURVE SMOOTH",
"237 242 OFFCURVE",
"274 229 OFFCURVE",
"302 204 CURVE"
);
}
);
width = 472;
},
{
associatedMasterId = "503E420B-61F7-4277-A1BE-A8852071B452";
layerId = "7453FD27-2B63-47B3-8720-54D9E0BD8A48";
name = "Nov 3 20, 18:57";
paths = (
{
closed = 1;
nodes = (
"482 0 LINE",
"482 32 LINE",
"445 32 OFFCURVE",
"422 37 OFFCURVE",
"422 70 CURVE SMOOTH",
"422 308 LINE SMOOTH",
"422 406 OFFCURVE",
"343 452 OFFCURVE",
"237 452 CURVE SMOOTH",
"146 452 OFFCURVE",
"52 420 OFFCURVE",
"52 340 CURVE",
"148 340 LINE",
"148 391 OFFCURVE",
"184 420 OFFCURVE",
"237 420 CURVE SMOOTH",
"280 420 OFFCURVE",
"302 386 OFFCURVE",
"302 340 CURVE SMOOTH",
"302 232 LINE",
"271 259 OFFCURVE",
"231 274 OFFCURVE",
"190 274 CURVE SMOOTH",
"92 274 OFFCURVE",
"22 224 OFFCURVE",
"22 131 CURVE SMOOTH",
"22 38 OFFCURVE",
"92 -12 OFFCURVE",
"190 -12 CURVE SMOOTH",
"232 -12 OFFCURVE",
"280 9 OFFCURVE",
"313 39 CURVE",
"331 13 OFFCURVE",
"370 0 OFFCURVE",
"410 0 CURVE SMOOTH"
);
},
{
closed = 1;
nodes = (
"302 73 LINE",
"286 44 OFFCURVE",
"248 20 OFFCURVE",
"214 20 CURVE SMOOTH",
"165 20 OFFCURVE",
"142 76 OFFCURVE",
"142 131 CURVE SMOOTH",
"142 186 OFFCURVE",
"165 242 OFFCURVE",
"214 242 CURVE SMOOTH",
"248 242 OFFCURVE",
"281 227 OFFCURVE",
"302 200 CURVE"
);
}
);
width = 600;
},
{
associatedMasterId = "45069982-2EFC-4B7D-8C53-1932E6EAC4CA";
layerId = "FAB570E5-D279-49FE-9D2A-7D1AB6A7D119";
name = "Nov 4 20, 16:18";
paths = (
{
closed = 1;
nodes = (
"401 407 OFFCURVE",
"346 455 OFFCURVE",
"232 455 CURVE SMOOTH",
"118 455 OFFCURVE",
"43 391 OFFCURVE",
"43 325 CURVE",
"143 325 LINE",
"138 386 OFFCURVE",
"172 418 OFFCURVE",
"227 418 CURVE SMOOTH",
"285 418 OFFCURVE",
"306 375 OFFCURVE",
"306 294 CURVE",
"306 80 LINE",
"312 45 LINE",
"324 -1 OFFCURVE",
"352 -22 OFFCURVE",
"461 -2 CURVE",
"463 10 OFFCURVE",
"463 23 OFFCURVE",
"461 35 CURVE",
"419 35 OFFCURVE",
"401 46 OFFCURVE",
"401 85 CURVE",
"401 304 LINE SMOOTH"
);
},
{
closed = 1;
nodes = (
"234 -15 OFFCURVE",
"273 -1 OFFCURVE",
"312 45 CURVE",
"306 80 LINE",
"276.896 48.828 OFFCURVE",
"243 25 OFFCURVE",
"202 25 CURVE",
"148 25 OFFCURVE",
"118 68 OFFCURVE",
"118 121 CURVE",
"118 181 OFFCURVE",
"147 210 OFFCURVE",
"233 210 CURVE",
"306 210 LINE",
"306 245 LINE",
"228 245 LINE",
"101 245 OFFCURVE",
"18 216 OFFCURVE",
"18 120 CURVE",
"18 30 OFFCURVE",
"91 -15 OFFCURVE",
"177 -15 CURVE"
);
}
);
width = 487;
},
{
associatedMasterId = "45069982-2EFC-4B7D-8C53-1932E6EAC4CA";
layerId = "7E6794BB-B6FD-4058-A03A-7EA869E5BF9B";
name = "Nov 18 20, 00:16";
paths = (
{
closed = 1;
nodes = (
"498 58 OFFCURVE",
"480 40 OFFCURVE",
"458 40 CURVE SMOOTH",
"437 40 OFFCURVE",
"434 61 OFFCURVE",
"441 92 CURVE SMOOTH",
"477 260 LINE SMOOTH",
"488 311 OFFCURVE",
"507 387 OFFCURVE",
"526 440 CURVE",
"515 442 OFFCURVE",
"505 442 OFFCURVE",
"494 440 CURVE",
"412 375 LINE",
"351 92 LINE SMOOTH",
"338 30 OFFCURVE",
"358 -15 OFFCURVE",
"426 -15 CURVE SMOOTH",
"492 -15 OFFCURVE",
"525 26 OFFCURVE",
"557 86 CURVE",
"547 95 OFFCURVE",
"539 101 OFFCURVE",
"527 106 CURVE"
);
},
{
closed = 1;
nodes = (
"304 -15 OFFCURVE",
"392 124 OFFCURVE",
"425 269 CURVE SMOOTH",
"447 367 OFFCURVE",
"407 455 OFFCURVE",
"306 455 CURVE SMOOTH",
"143 455 OFFCURVE",
"34 303 OFFCURVE",
"34 147 CURVE SMOOTH",
"34 42 OFFCURVE",
"90 -15 OFFCURVE",
"177 -15 CURVE SMOOTH"
);
},
{
closed = 1;
nodes = (
"166 45 OFFCURVE",
"131 70 OFFCURVE",
"131 156 CURVE SMOOTH",
"131 253 OFFCURVE",
"205 410 OFFCURVE",
"309 410 CURVE SMOOTH",
"381 410 OFFCURVE",
"405 348 OFFCURVE",
"388 269 CURVE SMOOTH",
"358 131 OFFCURVE",
"277 45 OFFCURVE",
"209 45 CURVE SMOOTH"
);
}
);
width = 589;
}
);
leftKerningGroup = a;
rightKerningGroup = a;
unicode = 0061;
},
{
glyphname = aogonek;
lastChange = "2020-11-29 15:05:20 +0000";
layers = (
{
anchors = (
{
name = _ogonek;
position = "{447, 0}";
}
);
components = (
{
name = a;
}
);
layerId = "45069982-2EFC-4B7D-8C53-1932E6EAC4CA";
paths = (
{
closed = 1;
nodes = (
"350 -225 OFFCURVE",
"396 -203 OFFCURVE",
"430 -178 CURVE",
"429 -166 OFFCURVE",
"424 -156 OFFCURVE",
"418 -149 CURVE",
"391 -164 OFFCURVE",
"370 -169 OFFCURVE",
"354 -169 CURVE SMOOTH",
"325 -169 OFFCURVE",
"310 -153 OFFCURVE",
"310 -130 CURVE SMOOTH",
"310 -76 OFFCURVE",
"362 -27 OFFCURVE",
"447 0 CURVE",
"433 17 LINE",
"326 -12 OFFCURVE",
"222 -58 OFFCURVE",
"222 -151 CURVE SMOOTH",
"222 -193 OFFCURVE",
"260 -225 OFFCURVE",
"307 -225 CURVE SMOOTH"
);
}
);
width = 550;
},
{
anchors = (
{
name = _ogonek;
position = "{474, 0}";
}
);
components = (
{
name = a;
}
);
layerId = "503E420B-61F7-4277-A1BE-A8852071B452";
paths = (
{
closed = 1;
nodes = (
"383 -225 OFFCURVE",
"429 -203 OFFCURVE",
"457 -178 CURVE",
"456 -172 OFFCURVE",
"453 -158 OFFCURVE",
"445 -149 CURVE",
"419 -164 OFFCURVE",
"401 -169 OFFCURVE",
"386 -169 CURVE SMOOTH",
"361 -169 OFFCURVE",
"348 -154 OFFCURVE",
"348 -133 CURVE SMOOTH",
"348 -79 OFFCURVE",
"394 -28 OFFCURVE",
"474 0 CURVE",
"459 16 LINE",
"344 -14 OFFCURVE",
"239 -59 OFFCURVE",
"239 -150 CURVE SMOOTH",
"239 -195 OFFCURVE",
"283 -225 OFFCURVE",
"339 -225 CURVE SMOOTH"
);
}
);
width = 585;
}
);
leftKerningGroup = a;
rightKerningGroup = a;
unicode = 0105;
},
{
glyphname = ae;
lastChange = "2020-11-29 15:05:20 +0000";
layers = (
{
anchors = (
{
name = bottom;
position = "{300, 0}";
},
{
name = top;
position = "{394, 440}";
}
);
background = {
anchors = (
{
name = bottom;
position = "{655, 0}";
},
{
name = ogonek;
position = "{676, 0}";
},
{
name = top;
position = "{665, 440}";
}
);
paths = (
{
closed = 1;
nodes = (
"324 119 CURVE SMOOTH",
"335 166 LINE",
"377 174 LINE",
"402 284 LINE SMOOTH",
"430 406 OFFCURVE",
"383 455 OFFCURVE",
"285 455 CURVE SMOOTH",
"175 455 OFFCURVE",
"92 391 OFFCURVE",
"78 325 CURVE",
"178 325 LINE",
"186 386 OFFCURVE",
"221 418 OFFCURVE",
"273 418 CURVE SMOOTH",
"325 418 OFFCURVE",
"342 377 OFFCURVE",
"324 294 CURVE SMOOTH",
"299 178 LINE SMOOTH",
"277 77 OFFCURVE",
"207 30 OFFCURVE",
"168 30 CURVE SMOOTH",
"126 30 OFFCURVE",
"106 54 OFFCURVE",
"106 92 CURVE SMOOTH",
"106 208 OFFCURVE",
"232 209 OFFCURVE",
"318 195 CURVE",
"326 236 LINE",
"208 259 OFFCURVE",
"5 235 OFFCURVE",
"5 86 CURVE SMOOTH",
"5 21 OFFCURVE",
"62 -15 OFFCURVE",
"139 -15 CURVE SMOOTH",
"216 -15 OFFCURVE",
"304 34 OFFCURVE"
);
},
{
closed = 1;
nodes = (
"422 40 OFFCURVE",
"391 69 OFFCURVE",
"391 145 CURVE SMOOTH",
"391 249 OFFCURVE",
"448 415 OFFCURVE",
"562 415 CURVE SMOOTH",
"601 415 OFFCURVE",
"614 388 OFFCURVE",
"614 360 CURVE SMOOTH",
"614 283 OFFCURVE",
"497 181 OFFCURVE",
"371 224 CURVE",
"364 189 LINE",
"509 146 OFFCURVE",
"707 253 OFFCURVE",
"707 370 CURVE SMOOTH",
"707 412 OFFCURVE",
"677 455 OFFCURVE",
"580 455 CURVE SMOOTH",
"422 455 OFFCURVE",
"311 315 OFFCURVE",
"311 155 CURVE SMOOTH",
"311 49 OFFCURVE",
"364 -15 OFFCURVE",
"460 -15 CURVE SMOOTH",
"531 -15 OFFCURVE",
"608 22 OFFCURVE",
"669 110 CURVE",
"659 119 OFFCURVE",
"651 125 OFFCURVE",
"639 130 CURVE",
"580 61 OFFCURVE",
"518 40 OFFCURVE",
"480 40 CURVE SMOOTH"
);
}
);
};
guideLines = (
{
angle = 260.4258;
position = "{329, 274}";
}
);
layerId = "45069982-2EFC-4B7D-8C53-1932E6EAC4CA";
paths = (
{
closed = 1;
nodes = (
"538 -15 OFFCURVE",
"614 22 OFFCURVE",
"675 110 CURVE",
"665 119 OFFCURVE",
"657 125 OFFCURVE",
"645 130 CURVE",
"586 61 OFFCURVE",
"526 40 OFFCURVE",
"481 40 CURVE SMOOTH",
"429 40 OFFCURVE",
"397 69 OFFCURVE",
"397 146 CURVE SMOOTH",
"397 250 OFFCURVE",
"456 415 OFFCURVE",
"565 415 CURVE SMOOTH",
"607 415 OFFCURVE",
"620 388 OFFCURVE",
"620 360 CURVE SMOOTH",
"620 281 OFFCURVE",
"533 211 OFFCURVE",
"358 229 CURVE",
"354 193 LINE",
"542 171 OFFCURVE",
"713 251 OFFCURVE",
"713 367 CURVE SMOOTH",
"713 412 OFFCURVE",
"682 455 OFFCURVE",
"591 455 CURVE SMOOTH",
"427 455 OFFCURVE",
"316 315 OFFCURVE",
"316 159 CURVE SMOOTH",
"316 49 OFFCURVE",
"369 -15 OFFCURVE",
"462 -15 CURVE SMOOTH"
);
},
{
closed = 1;
nodes = (
"248 -15 OFFCURVE",
"294 33 OFFCURVE",
"334 125 CURVE",
"315 191 LINE",
"297 88 OFFCURVE",
"235 35 OFFCURVE",
"176 35 CURVE SMOOTH",
"134 35 OFFCURVE",
"110 61 OFFCURVE",
"110 96 CURVE SMOOTH",
"110 167 OFFCURVE",
"174 217 OFFCURVE",
"351 195 CURVE",
"355 232 LINE",
"99 263 OFFCURVE",
"13 178 OFFCURVE",
"13 91 CURVE SMOOTH",
"13 23 OFFCURVE",
"65 -15 OFFCURVE",
"143 -15 CURVE SMOOTH"
);
},
{
closed = 1;
nodes = (
"415 304 LINE",
"430 381 OFFCURVE",
"409 455 OFFCURVE",
"282 455 CURVE SMOOTH",
"176 455 OFFCURVE",
"100 391 OFFCURVE",
"86 325 CURVE",
"181 325 LINE",
"188 386 OFFCURVE",
"228 418 OFFCURVE",
"274 418 CURVE SMOOTH",
"354 418 OFFCURVE",
"337 319 OFFCURVE",
"329 274 CURVE SMOOTH",
"315 191 LINE",
"334 125 LINE"
);
}
);
width = 729;
},
{
anchors = (
{
name = bottom;
position = "{323, 0}";
},
{
name = top;
position = "{421, 460}";
}
);
background = {
anchors = (
{
name = bottom;
position = "{567, 0}";
},
{
name = ogonek;
position = "{581, 0}";
},
{
name = top;
position = "{577, 460}";
}
);
paths = (
{
closed = 1;
nodes = (
"405 -10 OFFCURVE",
"431 -8 OFFCURVE",
"464 -2 CURVE",
"468 10 OFFCURVE",
"471 21 OFFCURVE",
"472 35 CURVE",
"413 35 OFFCURVE",
"405 52 OFFCURVE",
"414 95 CURVE SMOOTH",
"456 289 LINE SMOOTH",
"480 401 OFFCURVE",
"457 475 OFFCURVE",
"311 475 CURVE SMOOTH",
"164 475 OFFCURVE",
"88 409 OFFCURVE",
"69 320 CURVE",
"199 320 LINE",
"205 389 OFFCURVE",
"243 438 OFFCURVE",
"295 438 CURVE SMOOTH",
"348 438 OFFCURVE",
"356 382 OFFCURVE",
"339 304 CURVE SMOOTH",
"293 85 LINE",
"293 40 LINE SMOOTH",
"293 7 OFFCURVE",
"324 -10 OFFCURVE",
"381 -10 CURVE SMOOTH"
);
},
{
closed = 1;
nodes = (
"203 -15 OFFCURVE",
"252 8 OFFCURVE",
"293 40 CURVE",
"293 85 LINE",
"262 56 OFFCURVE",
"227 40 OFFCURVE",
"197 40 CURVE SMOOTH",
"158 40 OFFCURVE",
"135 62 OFFCURVE",
"135 101 CURVE SMOOTH",
"135 196 OFFCURVE",
"223 246 OFFCURVE",
"319 205 CURVE",
"327 247 LINE",
"183 299 OFFCURVE",
"3 242 OFFCURVE",
"3 87 CURVE SMOOTH",
"3 18 OFFCURVE",
"60 -15 OFFCURVE",
"136 -15 CURVE SMOOTH"
);
},
{
closed = 1;
nodes = (
"483 48 OFFCURVE",
"452 79 OFFCURVE",
"452 152 CURVE SMOOTH",
"452 264 OFFCURVE",
"514 436 OFFCURVE",
"595 436 CURVE SMOOTH",
"615 436 OFFCURVE",
"634 421 OFFCURVE",
"634 379 CURVE SMOOTH",
"634 311 OFFCURVE",
"560 235 OFFCURVE",
"431 228 CURVE",
"430 189 LINE",
"641 218 OFFCURVE",
"764 285 OFFCURVE",
"764 384 CURVE SMOOTH",
"764 433 OFFCURVE",
"722 475 OFFCURVE",
"613 475 CURVE SMOOTH",
"437 475 OFFCURVE",
"330 340 OFFCURVE",
"330 160 CURVE SMOOTH",
"330 52 OFFCURVE",
"393 -16 OFFCURVE",
"490 -16 CURVE SMOOTH",
"570 -16 OFFCURVE",
"657 24 OFFCURVE",
"729 125 CURVE",
"719 133 OFFCURVE",
"711 139 OFFCURVE",
"699 145 CURVE",
"633 64 OFFCURVE",
"577 48 OFFCURVE",
"539 48 CURVE SMOOTH"
);
}
);
};
layerId = "503E420B-61F7-4277-A1BE-A8852071B452";
paths = (
{
closed = 1;
nodes = (
"576 -15 OFFCURVE",
"648 24 OFFCURVE",
"720 125 CURVE",
"710 133 OFFCURVE",
"702 139 OFFCURVE",
"690 145 CURVE",
"624 64 OFFCURVE",
"568 48 OFFCURVE",
"530 48 CURVE SMOOTH",
"474 48 OFFCURVE",
"444 79 OFFCURVE",
"444 155 CURVE SMOOTH",
"444 263 OFFCURVE",
"507 436 OFFCURVE",
"585 436 CURVE SMOOTH",
"606 436 OFFCURVE",
"626 421 OFFCURVE",
"626 379 CURVE SMOOTH",
"626 311 OFFCURVE",
"575 215 OFFCURVE",
"377 249 CURVE",
"376 210 LINE",
"630 167 OFFCURVE",
"756 285 OFFCURVE",
"756 379 CURVE SMOOTH",
"756 434 OFFCURVE",
"712 475 OFFCURVE",
"613 475 CURVE SMOOTH",
"434 475 OFFCURVE",
"317 340 OFFCURVE",
"317 173 CURVE SMOOTH",
"317 46 OFFCURVE",
"370 -15 OFFCURVE",
"485 -15 CURVE SMOOTH"
);
},
{
closed = 1;
nodes = (
"227 -15 OFFCURVE",
"318 22 OFFCURVE",
"350 156 CURVE",
"316 205 LINE",
"294 84 OFFCURVE",
"242 40 OFFCURVE",
"189 40 CURVE SMOOTH",
"152 40 OFFCURVE",
"127 63 OFFCURVE",
"127 102 CURVE SMOOTH",
"127 163 OFFCURVE",
"189 234 OFFCURVE",
"373 207 CURVE",
"374 246 LINE",
"105 282 OFFCURVE",
"7 197 OFFCURVE",
"7 92 CURVE SMOOTH",
"7 13 OFFCURVE",
"75 -15 OFFCURVE",
"148 -15 CURVE"
);
},
{
closed = 1;
nodes = (
"448 309 LINE",
"461 399 OFFCURVE",
"437 475 OFFCURVE",
"300 475 CURVE SMOOTH",
"167 475 OFFCURVE",
"92 403 OFFCURVE",
"76 320 CURVE",
"196 320 LINE",
"202 389 OFFCURVE",
"240 438 OFFCURVE",
"292 438 CURVE SMOOTH",
"348 438 OFFCURVE",
"352 378 OFFCURVE",
"336 304 CURVE",
"316 205 LINE",
"350 156 LINE"
);
}
);
width = 767;
}
);
rightKerningGroup = e;
unicode = 00E6;
},
{
glyphname = b;
lastChange = "2020-11-29 15:05:20 +0000";
layers = (
{
associatedMasterId = "45069982-2EFC-4B7D-8C53-1932E6EAC4CA";
layerId = "ED4DBE24-BDF4-4E18-90CB-0EA147BD6606";
name = "Nov 2 20, 15:05";
paths = (
{
closed = 1;
nodes = (
"508 359 OFFCURVE",
"428 452 OFFCURVE",
"292 452 CURVE SMOOTH",
"250 452 OFFCURVE",
"209 437 OFFCURVE",
"176 410 CURVE",
"176 532 LINE SMOOTH",
"176 592 OFFCURVE",
"180 652 OFFCURVE",
"188 712 CURVE",
"134 704 OFFCURVE",
"80 700 OFFCURVE",
"26 700 CURVE",
"26 672 LINE",
"74 672 LINE",
"82 626 OFFCURVE",
"86 579 OFFCURVE",
"86 532 CURVE SMOOTH",
"86 168 LINE SMOOTH",
"86 121 OFFCURVE",
"82 74 OFFCURVE",
"74 28 CURVE",
"26 28 LINE",
"26 0 LINE",
"79 0 OFFCURVE",
"131 -4 OFFCURVE",
"183 -12 CURVE",
"177 42 LINE",
"204 9 OFFCURVE",
"246 -12 OFFCURVE",
"292 -12 CURVE SMOOTH",
"428 -12 OFFCURVE",
"508 81 OFFCURVE",
"508 220 CURVE SMOOTH"
);
},
{
closed = 1;
nodes = (
"412 108 OFFCURVE",
"382 16 OFFCURVE",
"283 16 CURVE SMOOTH",
"224 16 OFFCURVE",
"176 65 OFFCURVE",
"176 124 CURVE SMOOTH",
"176 377 LINE",
"200 407 OFFCURVE",
"236 424 OFFCURVE",
"274 424 CURVE SMOOTH",
"375 424 OFFCURVE",
"412 334 OFFCURVE",
"412 220 CURVE SMOOTH"
);
}
);
width = 600;
},
{
associatedMasterId = "503E420B-61F7-4277-A1BE-A8852071B452";
layerId = "591D6FAD-CD7B-4128-BA7C-FA6BE4957CD5";
name = "Nov 2 20, 15:07";
paths = (
{
closed = 1;
nodes = (
"540 360 OFFCURVE",
"456 452 OFFCURVE",
"318 452 CURVE SMOOTH",
"274 452 OFFCURVE",
"233 435 OFFCURVE",
"202 404 CURVE",
"202 528 LINE SMOOTH",
"202 590 OFFCURVE",
"206 651 OFFCURVE",
"214 712 CURVE",
"150 704 OFFCURVE",
"86 700 OFFCURVE",
"22 700 CURVE",
"22 668 LINE",
"70 668 LINE",
"78 622 OFFCURVE",
"82 575 OFFCURVE",
"82 528 CURVE SMOOTH",
"82 172 LINE SMOOTH",
"82 125 OFFCURVE",
"78 78 OFFCURVE",
"70 32 CURVE",
"22 32 LINE",
"22 0 LINE",
"84 0 OFFCURVE",
"146 -4 OFFCURVE",
"208 -12 CURVE",
"202 39 LINE",
"230 8 OFFCURVE",
"272 -12 OFFCURVE",
"318 -12 CURVE SMOOTH",
"456 -12 OFFCURVE",
"540 80 OFFCURVE",
"540 220 CURVE SMOOTH"
);
},
{
closed = 1;
nodes = (
"414 112 OFFCURVE",
"399 20 OFFCURVE",
"306 20 CURVE SMOOTH",
"248 20 OFFCURVE",
"202 67 OFFCURVE",
"202 124 CURVE SMOOTH",
"202 370 LINE",
"222 401 OFFCURVE",
"257 420 OFFCURVE",
"294 420 CURVE SMOOTH",
"389 420 OFFCURVE",
"414 329 OFFCURVE",
"414 220 CURVE SMOOTH"
);
}
);
width = 600;
},
{
anchors = (
{
name = bottom;
position = "{425, 0}";
},
{
name = top;
position = "{425, 800}";
}
);
associatedMasterId = "45069982-2EFC-4B7D-8C53-1932E6EAC4CA";
guideLines = (
{
angle = 257.9052;
position = "{138, 520}";
},
{
angle = 257.9052;
position = "{229, 520}";
}
);
layerId = "A4418793-6506-4625-8D79-A81BA5A043B1";
name = "Nov 20 20, 14:00";
paths = (
{
closed = 1;
nodes = (
"348 -15 OFFCURVE",
"458 81 OFFCURVE",
"490 231 CURVE SMOOTH",
"520 370 OFFCURVE",
"468 455 OFFCURVE",
"368 455 CURVE SMOOTH",
"286 455 OFFCURVE",
"221 398 OFFCURVE",
"175 325 CURVE",
"184 307 LINE",
"228 520 LINE SMOOTH",
"238 570 OFFCURVE",
"261 661 OFFCURVE",
"284 713 CURVE",
"220 702 OFFCURVE",
"156 700 OFFCURVE",
"109 700 CURVE",
"105 691 OFFCURVE",
"101 674 OFFCURVE",
"101 663 CURVE",
"158 663 LINE",
"154 609 OFFCURVE",
"149 566 OFFCURVE",
"138 520 CURVE SMOOTH",
"63 195 LINE SMOOTH",
"28 45 OFFCURVE",
"99 -15 OFFCURVE",
"209 -15 CURVE SMOOTH"
);
},
{
closed = 1;
nodes = (
"171 30 OFFCURVE",
"136 82 OFFCURVE",
"160 197 CURVE SMOOTH",
"186 320 OFFCURVE",
"257 395 OFFCURVE",
"328 395 CURVE SMOOTH",
"382 395 OFFCURVE",
"417 344 OFFCURVE",
"395 240 CURVE SMOOTH",
"371 125 OFFCURVE",
"297 30 OFFCURVE",
"225 30 CURVE SMOOTH"
);
}
);
width = 533;
},
{
anchors = (
{
name = bottom;
position = "{417, 0}";
},
{
name = top;
position = "{417, 800}";
}
);
guideLines = (
{
angle = 257.9052;
position = "{130, 520}";
},
{
angle = 257.9052;
position = "{221, 520}";
}
);
layerId = "45069982-2EFC-4B7D-8C53-1932E6EAC4CA";
paths = (
{
closed = 1;
nodes = (
"372 -15 OFFCURVE",
"490 133 OFFCURVE",
"490 304 CURVE SMOOTH",
"490 399 OFFCURVE",
"441 455 OFFCURVE",
"360 455 CURVE SMOOTH",
"278 455 OFFCURVE",
"211 408 OFFCURVE",
"155 307 CURVE",
"176 307 LINE",
"220 520 LINE SMOOTH",
"230 570 OFFCURVE",
"253 661 OFFCURVE",
"276 713 CURVE",
"212 702 OFFCURVE",
"148 700 OFFCURVE",
"101 700 CURVE",
"97 691 OFFCURVE",
"93 674 OFFCURVE",
"93 663 CURVE",
"150 663 LINE",
"146 609 OFFCURVE",
"140 566 OFFCURVE",
"130 520 CURVE SMOOTH",
"59 191 LINE SMOOTH",
"33 72 OFFCURVE",
"67 -15 OFFCURVE",
"201 -15 CURVE SMOOTH"
);
},
{
closed = 1;
nodes = (
"177 30 OFFCURVE",
"146 62 OFFCURVE",
"146 127 CURVE SMOOTH",
"146 237 OFFCURVE",
"227 400 OFFCURVE",
"323 400 CURVE SMOOTH",
"368 400 OFFCURVE",
"394 363 OFFCURVE",
"394 297 CURVE SMOOTH",
"394 190 OFFCURVE",
"320 30 OFFCURVE",
"220 30 CURVE SMOOTH"
);
}
);
width = 525;
},
{
anchors = (
{
name = bottom;
position = "{269, 0}";
},
{
name = top;
position = "{269, 800}";
}
);
associatedMasterId = "503E420B-61F7-4277-A1BE-A8852071B452";
guideLines = (
{
angle = 258.0644;
position = "{108, 510}";
},
{
angle = 258.0644;
position = "{234, 510}";
}
);
layerId = "44FD0FA3-001D-486D-A929-58C3B92CD45C";
name = "Nov 20 20, 14:00";
paths = (
{
closed = 1;
nodes = (
"344 -15 OFFCURVE",
"472 68 OFFCURVE",
"506 228 CURVE SMOOTH",
"536 373 OFFCURVE",
"484 475 OFFCURVE",
"370 475 CURVE SMOOTH",
"287 475 OFFCURVE",
"228 422 OFFCURVE",
"191 357 CURVE",
"198 338 LINE",
"233 510 LINE SMOOTH",
"245 570 OFFCURVE",
"270 667 OFFCURVE",
"292 715 CURVE",
"227 704 OFFCURVE",
"163 700 OFFCURVE",
"87 700 CURVE",
"83 690 OFFCURVE",
"79 673 OFFCURVE",
"79 663 CURVE",
"131 663 LINE",
"128 606 OFFCURVE",
"119 559 OFFCURVE",
"108 510 CURVE SMOOTH",
"45 239 LINE SMOOTH",
"9 88 OFFCURVE",
"65 -15 OFFCURVE",
"219 -15 CURVE SMOOTH"
);
},
{
closed = 1;
nodes = (
"175 30 OFFCURVE",
"149 105 OFFCURVE",
"174 226 CURVE SMOOTH",
"195 330 OFFCURVE",
"244 402 OFFCURVE",
"309 402 CURVE SMOOTH",
"370 402 OFFCURVE",
"393 340 OFFCURVE",
"366 215 CURVE SMOOTH",
"344 115 OFFCURVE",
"302 30 OFFCURVE",
"237 30 CURVE SMOOTH"
);
}
);
width = 544;
},
{
anchors = (
{
name = bottom;
position = "{276, 0}";
},
{
name = top;
position = "{276, 800}";
}
);
guideLines = (
{
angle = 258.0198;
position = "{240, 510}";
},
{
angle = 258.0198;
position = "{115, 510}";
}
);
layerId = "503E420B-61F7-4277-A1BE-A8852071B452";
paths = (
{
closed = 1;
nodes = (
"395 -15 OFFCURVE",
"521 126 OFFCURVE",
"521 305 CURVE SMOOTH",
"521 408 OFFCURVE",
"470 475 OFFCURVE",
"377 475 CURVE SMOOTH",
"294 475 OFFCURVE",
"225 426 OFFCURVE",
"186 338 CURVE",
"204 338 LINE",
"240 510 LINE SMOOTH",
"253 570 OFFCURVE",
"277 667 OFFCURVE",
"299 715 CURVE",
"234 704 OFFCURVE",
"170 700 OFFCURVE",
"94 700 CURVE",
"90 690 OFFCURVE",
"86 673 OFFCURVE",
"86 663 CURVE",
"138 663 LINE",
"135 606 OFFCURVE",
"125 559 OFFCURVE",
"115 510 CURVE SMOOTH",
"57 237 LINE SMOOTH",
"28 102 OFFCURVE",
"62 -15 OFFCURVE",
"226 -15 CURVE SMOOTH"
);
},
{
closed = 1;
nodes = (
"191 25 OFFCURVE",
"168 60 OFFCURVE",
"168 125 CURVE SMOOTH",
"168 229 OFFCURVE",
"228 402 OFFCURVE",
"317 402 CURVE SMOOTH",
"362 402 OFFCURVE",
"381 360 OFFCURVE",
"381 291 CURVE SMOOTH",
"381 181 OFFCURVE",
"320 25 OFFCURVE",
"235 25 CURVE SMOOTH"
);
}
);
width = 553;
}
);
rightKerningGroup = b;
unicode = 0062;
},
{
glyphname = c;
lastChange = "2020-11-29 15:05:20 +0000";
layers = (
{
anchors = (
{
name = bottom;
position = "{194, 0}";
},
{
name = top;
position = "{307, 440}";
}
);
layerId = "45069982-2EFC-4B7D-8C53-1932E6EAC4CA";
paths = (
{
closed = 1;
nodes = (
"272 -15 OFFCURVE",
"343 22 OFFCURVE",
"395 110 CURVE",
"385 119 OFFCURVE",
"377 125 OFFCURVE",
"365 130 CURVE",
"315 61 OFFCURVE",
"259 40 OFFCURVE",
"218 40 CURVE SMOOTH",
"167 40 OFFCURVE",
"134 72 OFFCURVE",
"134 144 CURVE SMOOTH",
"134 255 OFFCURVE",
"199 415 OFFCURVE",
"302 415 CURVE SMOOTH",
"354 415 OFFCURVE",
"378 368 OFFCURVE",
"377 280 CURVE",
"388 278 OFFCURVE",
"398 278 OFFCURVE",
"409 280 CURVE",
"438 415 LINE",
"405 440 OFFCURVE",
"360 455 OFFCURVE",
"310 455 CURVE SMOOTH",
"154 455 OFFCURVE",
"37 310 OFFCURVE",
"37 154 CURVE SMOOTH",
"37 52 OFFCURVE",
"98 -15 OFFCURVE",
"198 -15 CURVE SMOOTH"
);
}
);
width = 454;
},
{
anchors = (
{
name = bottom;
position = "{217, 0}";
},
{
name = top;
position = "{325, 460}";
}
);
guideLines = (
{
angle = 78.0239;
position = "{461, 363}";
}
);
layerId = "503E420B-61F7-4277-A1BE-A8852071B452";
paths = (
{
closed = 1;
nodes = (
"292 -16 OFFCURVE",
"364 24 OFFCURVE",
"426 125 CURVE",
"416 133 OFFCURVE",
"408 139 OFFCURVE",
"396 145 CURVE",
"340 64 OFFCURVE",
"294 48 OFFCURVE",
"257 48 CURVE SMOOTH",
"201 48 OFFCURVE",
"171 84 OFFCURVE",
"171 157 CURVE SMOOTH",
"171 275 OFFCURVE",
"225 436 OFFCURVE",
"328 436 CURVE SMOOTH",
"388 436 OFFCURVE",
"402 374 OFFCURVE",
"406 280 CURVE",
"417 278 OFFCURVE",
"427 278 OFFCURVE",
"438 280 CURVE",
"471 435 LINE",
"440 458 OFFCURVE",
"394 476 OFFCURVE",
"329 476 CURVE SMOOTH",
"156 476 OFFCURVE",
"34 345 OFFCURVE",
"34 175 CURVE SMOOTH",
"34 58 OFFCURVE",
"107 -16 OFFCURVE",
"213 -16 CURVE SMOOTH"
);
}
);
width = 481;
},
{
associatedMasterId = "45069982-2EFC-4B7D-8C53-1932E6EAC4CA";
layerId = "0970ECF3-6F06-4BD2-8D6A-9E71005090B6";
name = "Nov 3 20, 14:15";
paths = (
{
closed = 1;
nodes = (
"427 130 LINE",
"399 130 LINE",
"399 61 OFFCURVE",
"330 16 OFFCURVE",
"256 16 CURVE SMOOTH",
"158 16 OFFCURVE",
"131 108 OFFCURVE",
"131 220 CURVE SMOOTH",
"131 332 OFFCURVE",
"158 424 OFFCURVE",
"256 424 CURVE SMOOTH",
"312 424 OFFCURVE",
"358 381 OFFCURVE",
"358 327 CURVE",
"403 327 LINE",
"403 420 LINE",
"357 441 OFFCURVE",
"307 452 OFFCURVE",
"256 452 CURVE SMOOTH",
"118 452 OFFCURVE",
"35 360 OFFCURVE",
"35 220 CURVE SMOOTH",
"35 80 OFFCURVE",
"118 -12 OFFCURVE",
"256 -12 CURVE SMOOTH",
"320 -12 OFFCURVE",
"382 14 OFFCURVE",
"427 60 CURVE"
);
}
);
width = 600;
},
{
associatedMasterId = "503E420B-61F7-4277-A1BE-A8852071B452";
layerId = "70EFE622-2A63-44FF-A8AC-5952A87834FD";
name = "Nov 3 20, 14:18";
paths = (
{
closed = 1;
nodes = (
"461 130 LINE",
"429 130 LINE",
"429 57 OFFCURVE",
"348 20 OFFCURVE",
"267 20 CURVE SMOOTH",
"173 20 OFFCURVE",
"155 112 OFFCURVE",
"155 220 CURVE SMOOTH",
"155 328 OFFCURVE",
"173 420 OFFCURVE",
"267 420 CURVE SMOOTH",
"325 420 OFFCURVE",
"377 382 OFFCURVE",
"377 327 CURVE",
"437 327 LINE",
"437 420 LINE",
"383 441 OFFCURVE",
"325 452 OFFCURVE",
"267 452 CURVE SMOOTH",
"122 452 OFFCURVE",
"29 364 OFFCURVE",
"29 220 CURVE SMOOTH",
"29 76 OFFCURVE",
"122 -12 OFFCURVE",
"267 -12 CURVE SMOOTH",
"338 -12 OFFCURVE",
"407 14 OFFCURVE",
"461 60 CURVE"
);
}
);
width = 600;
},
{
associatedMasterId = "503E420B-61F7-4277-A1BE-A8852071B452";
layerId = "C3196660-E794-4F3D-950F-267A42D8C41E";
name = "Nov 3 20, 14:18";
paths = (
{
closed = 1;
nodes = (
"461 130 LINE",
"429 130 LINE",
"429 57 OFFCURVE",
"348 20 OFFCURVE",
"267 20 CURVE SMOOTH",
"173 20 OFFCURVE",
"155 112 OFFCURVE",
"155 220 CURVE SMOOTH",
"155 328 OFFCURVE",
"173 420 OFFCURVE",
"267 420 CURVE SMOOTH",
"325 420 OFFCURVE",
"377 382 OFFCURVE",
"377 327 CURVE",
"437 327 LINE",
"437 420 LINE",
"383 441 OFFCURVE",
"325 452 OFFCURVE",
"267 452 CURVE SMOOTH",
"122 452 OFFCURVE",
"29 364 OFFCURVE",
"29 220 CURVE SMOOTH",
"29 76 OFFCURVE",
"122 -12 OFFCURVE",
"267 -12 CURVE SMOOTH",
"338 -12 OFFCURVE",
"407 14 OFFCURVE",
"461 60 CURVE"
);
}
);
width = 600;
},
{
associatedMasterId = "45069982-2EFC-4B7D-8C53-1932E6EAC4CA";
layerId = "F1F18CDF-3E0F-4FCF-8B03-8D8CFE768EBF";
name = "Nov 3 20, 14:19";
paths = (
{
closed = 1;
nodes = (
"249 455 LINE",
"116 455 OFFCURVE",
"23 371 OFFCURVE",
"23 224 CURVE SMOOTH",
"23 71 OFFCURVE",
"118 -15 OFFCURVE",
"256 -15 CURVE SMOOTH",
"338 -15 OFFCURVE",
"391 16 OFFCURVE",
"448 89 CURVE",
"439 100 OFFCURVE",
"430 108 OFFCURVE",
"419 115 CURVE",
"371 54 OFFCURVE",
"322 30 OFFCURVE",
"263 30 CURVE SMOOTH",
"182 30 OFFCURVE",
"128 97 OFFCURVE",
"128 224 CURVE SMOOTH",
"128 345 OFFCURVE",
"181 416 OFFCURVE",
"249 416 CURVE"
);
},
{
closed = 1;
nodes = (
"249 416 LINE",
"307 416 OFFCURVE",
"346 379 OFFCURVE",
"341 285 CURVE",
"352 283 OFFCURVE",
"432 283 OFFCURVE",
"443 285 CURVE",
"443 285 LINE",
"443 430 OFFCURVE",
"316 455 OFFCURVE",
"249 455 CURVE"
);
}
);
width = 440;
},
{
associatedMasterId = "503E420B-61F7-4277-A1BE-A8852071B452";
layerId = "5FB97027-74A9-41F8-8291-8AD3DD3E3388";
name = "Nov 4 20, 15:54";
paths = (
{
closed = 1;
nodes = (
"461 120 CURVE",
"429 130 LINE",
"399 77 OFFCURVE",
"348 20 OFFCURVE",
"267 20 CURVE SMOOTH",
"173 20 OFFCURVE",
"155 112 OFFCURVE",
"155 220 CURVE SMOOTH",
"155 328 OFFCURVE",
"173 420 OFFCURVE",
"257 420 CURVE SMOOTH",
"305 420 OFFCURVE",
"338 382 OFFCURVE",
"338 287 CURVE",
"457 287 LINE",
"447 438 OFFCURVE",
"325 452 OFFCURVE",
"257 452 CURVE SMOOTH",
"122 452 OFFCURVE",
"29 364 OFFCURVE",
"29 220 CURVE SMOOTH",
"29 76 OFFCURVE",
"122 -12 OFFCURVE",
"267 -12 CURVE SMOOTH",
"388 -12 OFFCURVE",
"418 53 OFFCURVE"
);
}
);
width = 600;
},
{
associatedMasterId = "45069982-2EFC-4B7D-8C53-1932E6EAC4CA";
layerId = "8334BB5F-C13A-4DD0-B9DF-60BE3324CDA4";
name = "Nov 17 20, 00:00";
paths = (
{
closed = 1;
nodes = (
"337 -15 OFFCURVE",
"391 17 OFFCURVE",
"448 85 CURVE",
"439 96 OFFCURVE",
"431 103 OFFCURVE",
"420 110 CURVE",
"372 54 OFFCURVE",
"334 35 OFFCURVE",
"288 35 CURVE SMOOTH",
"209 35 OFFCURVE",
"148 113 OFFCURVE",
"148 224 CURVE SMOOTH",
"148 345 OFFCURVE",
"193 415 OFFCURVE",
"272 415 CURVE SMOOTH",
"331 415 OFFCURVE",
"373 367 OFFCURVE",
"391 280 CURVE",
"402 278 OFFCURVE",
"412 278 OFFCURVE",
"423 280 CURVE",
"423 415 LINE",
"388 440 OFFCURVE",
"341 455 OFFCURVE",
"279 455 CURVE SMOOTH",
"136 455 OFFCURVE",
"43 368 OFFCURVE",
"43 220 CURVE SMOOTH",
"43 74 OFFCURVE",
"132 -15 OFFCURVE",
"262 -15 CURVE SMOOTH"
);
}
);
width = 478;
},
{
anchors = (
{
name = bottom;
position = "{211, 0}";
},
{
name = top;
position = "{304, 440}";
}
);
associatedMasterId = "45069982-2EFC-4B7D-8C53-1932E6EAC4CA";
layerId = "9BD7BE93-0D78-46BF-92F4-68F98286A201";
name = "Nov 18 20, 01:48";
paths = (
{
closed = 1;
nodes = (
"277 -15 OFFCURVE",
"338 22 OFFCURVE",
"390 110 CURVE",
"380 119 OFFCURVE",
"372 125 OFFCURVE",
"360 130 CURVE",
"310 61 OFFCURVE",
"274 40 OFFCURVE",
"230 40 CURVE SMOOTH",
"167 40 OFFCURVE",
"133 92 OFFCURVE",
"133 178 CURVE SMOOTH",
"133 280 OFFCURVE",
"191 415 OFFCURVE",
"295 415 CURVE SMOOTH",
"349 415 OFFCURVE",
"375 378 OFFCURVE",
"374 280 CURVE",
"385 278 OFFCURVE",
"395 278 OFFCURVE",
"406 280 CURVE",
"435 415 LINE",
"402 440 OFFCURVE",
"353 455 OFFCURVE",
"300 455 CURVE SMOOTH",
"132 455 OFFCURVE",
"36 311 OFFCURVE",
"36 166 CURVE SMOOTH",
"36 54 OFFCURVE",
"98 -15 OFFCURVE",
"203 -15 CURVE SMOOTH"
);
}
);
width = 438;
}
);
leftKerningGroup = o;
rightKerningGroup = c;
unicode = 0063;
},
{
glyphname = d;
lastChange = "2020-11-29 15:05:20 +0000";
layers = (
{
anchors = (
{
name = bottom;
position = "{273, 0}";
},
{
name = center;
position = "{273, 220}";
},
{
name = top;
position = "{273, 800}";
},
{
name = topright;
position = "{538, 440}";
}
);
components = (
{
alignment = -1;
name = _COM_brzuch_bdpq;
transform = "{1, 0, 0, 1, -2, 0}";
}
);
layerId = "45069982-2EFC-4B7D-8C53-1932E6EAC4CA";
paths = (
{
closed = 1;
nodes = (
"455 -15 OFFCURVE",
"509 26 OFFCURVE",
"541 86 CURVE",
"531 95 OFFCURVE",
"523 101 OFFCURVE",
"511 106 CURVE",
"480 58 OFFCURVE",
"457 40 OFFCURVE",
"439 40 CURVE SMOOTH",
"420 40 OFFCURVE",
"418 61 OFFCURVE",
"425 92 CURVE SMOOTH",
"515 520 LINE SMOOTH",
"525 568 OFFCURVE",
"548 659 OFFCURVE",
"571 713 CURVE",
"508 702 OFFCURVE",
"442 700 OFFCURVE",
"396 700 CURVE",
"392 690 OFFCURVE",
"388 672 OFFCURVE",
"388 663 CURVE",
"445 663 LINE",
"442 613 OFFCURVE",
"435 565 OFFCURVE",
"425 520 CURVE SMOOTH",
"381 313 LINE",
"389 233 LINE",
"347 151 LINE",
"335 92 LINE SMOOTH",
"322 29 OFFCURVE",
"341 -15 OFFCURVE",
"399 -15 CURVE SMOOTH"
);
}
);
width = 560;
},
{
anchors = (
{
name = bottom;
position = "{288, 0}";
},
{
name = center;
position = "{288, 230}";
},
{
name = top;
position = "{288, 800}";
},
{
name = topright;
position = "{654, 700}";
}
);
components = (
{
alignment = -1;
name = _COM_brzuch_bdpq;
transform = "{1, 0, 0, 1, 6, 0}";
}
);
layerId = "503E420B-61F7-4277-A1BE-A8852071B452";
paths = (
{
closed = 1;
nodes = (
"481 -15 OFFCURVE",
"539 26 OFFCURVE",
"576 85 CURVE",
"567 94 OFFCURVE",
"557 100 OFFCURVE",
"546 105 CURVE",
"518 67 OFFCURVE",
"500 50 OFFCURVE",
"481 50 CURVE SMOOTH",
"459 50 OFFCURVE",
"460 73 OFFCURVE",
"468 110 CURVE SMOOTH",
"553 510 LINE SMOOTH",
"566 571 OFFCURVE",
"590 670 OFFCURVE",
"611 715 CURVE",
"546 704 OFFCURVE",
"483 700 OFFCURVE",
"406 700 CURVE",
"402 690 OFFCURVE",
"398 672 OFFCURVE",
"398 663 CURVE",
"450 663 LINE",
"448 618 OFFCURVE",
"440 566 OFFCURVE",
"428 510 CURVE SMOOTH",
"388 323 LINE",
"388 250 LINE",
"353 155 LINE",
"341 100 LINE SMOOTH",
"327 38 OFFCURVE",
"348 -15 OFFCURVE",
"419 -15 CURVE SMOOTH"
);
}
);
width = 594;
},
{
associatedMasterId = "503E420B-61F7-4277-A1BE-A8852071B452";
layerId = "8292ED57-35F1-4911-ADD8-6ADB9E5B6E49";
name = "Nov 1 20, 23:41";
paths = (
{
closed = 1;
nodes = (
"547 32 LINE",
"499 32 LINE",
"491 78 OFFCURVE",
"487 125 OFFCURVE",
"487 172 CURVE SMOOTH",
"487 528 LINE SMOOTH",
"487 590 OFFCURVE",
"491 651 OFFCURVE",
"499 712 CURVE",
"435 704 OFFCURVE",
"371 700 OFFCURVE",
"307 700 CURVE",
"307 668 LINE",
"355 668 LINE",
"363 622 OFFCURVE",
"367 575 OFFCURVE",
"367 528 CURVE SMOOTH",
"367 404 LINE",
"336 435 OFFCURVE",
"295 452 OFFCURVE",
"251 452 CURVE SMOOTH",
"113 452 OFFCURVE",
"29 360 OFFCURVE",
"29 220 CURVE SMOOTH",
"29 80 OFFCURVE",
"113 -12 OFFCURVE",
"251 -12 CURVE SMOOTH",
"297 -12 OFFCURVE",
"339 8 OFFCURVE",
"367 39 CURVE",
"361 -12 LINE",
"423 -4 OFFCURVE",
"485 0 OFFCURVE",
"547 0 CURVE"
);
},
{
closed = 1;
nodes = (
"367 124 LINE SMOOTH",
"367 69 OFFCURVE",
"328 20 OFFCURVE",
"275 20 CURVE SMOOTH",
"180 20 OFFCURVE",
"155 111 OFFCURVE",
"155 220 CURVE SMOOTH",
"155 328 OFFCURVE",
"170 420 OFFCURVE",
"263 420 CURVE SMOOTH",
"303 420 OFFCURVE",
"342 402 OFFCURVE",
"367 370 CURVE"
);
}
);
width = 600;
},
{
anchors = (
{
name = bottom;
position = "{278, 0}";
},
{
name = center;
position = "{278, 220}";
},
{
name = top;
position = "{278, 800}";
},
{
name = topright;
position = "{543, 440}";
}
);
associatedMasterId = "45069982-2EFC-4B7D-8C53-1932E6EAC4CA";
components = (
{
alignment = -1;
name = _COM_brzuch_bdpq;
transform = "{1, 0, 0, 1, -3, 0}";
},
{
name = l;
transform = "{1, 0, 0, 1, 285, 0}";
}
);
layerId = "6A9DA483-A283-4EE4-9C3B-2A814C596584";
name = "Nov 18 20, 19:19";
width = 578;
}
);
leftKerningGroup = a;
rightKerningGroup = d;
unicode = 0064;
},
{
glyphname = eth;
lastChange = "2020-11-29 15:04:39 +0000";
layers = (
{
anchors = (
{
name = bottom;
position = "{213, 0}";
},
{
name = center;
position = "{260, 220}";
},
{
name = ogonek;
position = "{432, 10}";
},
{
name = top;
position = "{307, 440}";
},
{
name = topright;
position = "{558, 440}";
}
);
layerId = "45069982-2EFC-4B7D-8C53-1932E6EAC4CA";
paths = (
{
closed = 1;
nodes = (
"300 435 LINE",
"152 435 OFFCURVE",
"37 314 OFFCURVE",
"37 155 CURVE SMOOTH",
"37 48 OFFCURVE",
"97 -15 OFFCURVE",
"210 -15 CURVE",
"223 25 LINE",
"163 25 OFFCURVE",
"134 70 OFFCURVE",
"134 146 CURVE SMOOTH",
"134 278 OFFCURVE",
"211 395 OFFCURVE",
"292 395 CURVE"
);
},
{
closed = 1;
nodes = (
"210 -15 LINE",
"380 -15 OFFCURVE",
"491 143 OFFCURVE",
"491 375 CURVE SMOOTH",
"491 489 OFFCURVE",
"438 654 OFFCURVE",
"230 710 CURVE",
"222 698 OFFCURVE",
"218 687 OFFCURVE",
"216 673 CURVE",
"439 613 OFFCURVE",
"422 390 OFFCURVE",
"373 206 CURVE",
"349 95 OFFCURVE",
"289 25 OFFCURVE",
"223 25 CURVE"
);
},
{
closed = 1;
nodes = (
"438 206 LINE",
"448 369 OFFCURVE",
"402 435 OFFCURVE",
"300 435 CURVE",
"292 395 LINE",
"361 395 OFFCURVE",
"398 323 OFFCURVE",
"373 206 CURVE"
);
},
{
closed = 1;
nodes = (
"472 718 OFFCURVE",
"462 729 OFFCURVE",
"455 736 CURVE",
"214 538 LINE",
"219 529 OFFCURVE",
"227 518 OFFCURVE",
"237 510 CURVE",
"477 708 LINE"
);
}
);
width = 527;
},
{
anchors = (
{
name = bottom;
position = "{220, 0}";
},
{
name = center;
position = "{269, 230}";
},
{
name = ogonek;
position = "{454, 10}";
},
{
name = top;
position = "{318, 460}";
},
{
name = topright;
position = "{588, 460}";
}
);
layerId = "503E420B-61F7-4277-A1BE-A8852071B452";
paths = (
{
closed = 1;
nodes = (
"293 435 LINE",
"143 435 OFFCURVE",
"31 310 OFFCURVE",
"31 158 CURVE SMOOTH",
"31 50 OFFCURVE",
"102 -15 OFFCURVE",
"217 -15 CURVE",
"226 25 LINE",
"182 25 OFFCURVE",
"166 68 OFFCURVE",
"166 126 CURVE SMOOTH",
"166 265 OFFCURVE",
"221 395 OFFCURVE",
"299 395 CURVE"
);
},
{
closed = 1;
nodes = (
"217 -15 LINE",
"392 -15 OFFCURVE",
"517 158 OFFCURVE",
"517 376 CURVE SMOOTH",
"517 526 OFFCURVE",
"470 674 OFFCURVE",
"245 730 CURVE",
"239 719 OFFCURVE",
"236 705 OFFCURVE",
"232 690 CURVE",
"425 640 OFFCURVE",
"403 386 OFFCURVE",
"360 210 CURVE",
"340 119 OFFCURVE",
"295 25 OFFCURVE",
"226 25 CURVE"
);
},
{
closed = 1;
nodes = (
"435 210 LINE",
"464 349 OFFCURVE",
"413 435 OFFCURVE",
"293 435 CURVE",
"299 395 LINE",
"367 395 OFFCURVE",
"380 305 OFFCURVE",
"360 210 CURVE"
);
},
{
closed = 1;
nodes = (
"510 718 OFFCURVE",
"500 729 OFFCURVE",
"493 736 CURVE",
"252 538 LINE",
"259 525 OFFCURVE",
"265 519 OFFCURVE",
"275 510 CURVE",
"515 708 LINE"
);
}
);
width = 544;
}
);
unicode = 00F0;
},
{
glyphname = dcroat;
lastChange = "2020-11-29 15:05:20 +0000";
layers = (
{
components = (
{
name = d;
}
);
layerId = "45069982-2EFC-4B7D-8C53-1932E6EAC4CA";
paths = (
{
closed = 1;
nodes = (
"595 547 OFFCURVE",
"599 563 OFFCURVE",
"599 580 CURVE",
"291 580 LINE",
"285 563 OFFCURVE",
"281 547 OFFCURVE",
"281 530 CURVE",
"589 530 LINE"
);
}
);
width = 560;
},
{
components = (
{
name = d;
}
);
layerId = "503E420B-61F7-4277-A1BE-A8852071B452";
paths = (
{
closed = 1;
nodes = (
"648 557 OFFCURVE",
"652 573 OFFCURVE",
"652 590 CURVE",
"314 590 LINE",
"308 573 OFFCURVE",
"304 557 OFFCURVE",
"304 540 CURVE",
"642 540 LINE"
);
}
);
width = 594;
}
);
leftKerningGroup = a;
rightKerningGroup = d;
unicode = 0111;
},
{
glyphname = e;
lastChange = "2020-11-29 15:05:20 +0000";
layers = (
{
anchors = (
{
name = bottom;
position = "{194, 0}";
},
{
name = ogonek;
position = "{282, 0}";
},
{
name = top;
position = "{307, 440}";
}
);
layerId = "45069982-2EFC-4B7D-8C53-1932E6EAC4CA";
paths = (
{
closed = 1;
nodes = (
"160 40 OFFCURVE",
"127 69 OFFCURVE",
"127 145 CURVE SMOOTH",
"127 249 OFFCURVE",
"186 415 OFFCURVE",
"303 415 CURVE SMOOTH",
"346 415 OFFCURVE",
"360 388 OFFCURVE",
"360 360 CURVE SMOOTH",
"360 283 OFFCURVE",
"238 231 OFFCURVE",
"107 224 CURVE",
"113 189 LINE",
"257 196 OFFCURVE",
"453 253 OFFCURVE",
"453 370 CURVE SMOOTH",
"453 412 OFFCURVE",
"422 455 OFFCURVE",
"321 455 CURVE SMOOTH",
"154 455 OFFCURVE",
"37 315 OFFCURVE",
"37 155 CURVE SMOOTH",
"37 49 OFFCURVE",
"95 -15 OFFCURVE",
"201 -15 CURVE SMOOTH",
"274 -15 OFFCURVE",
"353 22 OFFCURVE",
"415 110 CURVE",
"405 119 OFFCURVE",
"397 125 OFFCURVE",
"385 130 CURVE",
"324 61 OFFCURVE",
"260 40 OFFCURVE",
"221 40 CURVE SMOOTH"
);
}
);
width = 469;
},
{
anchors = (
{
name = bottom;
position = "{217, 0}";
},
{
name = ogonek;
position = "{294, 0}";
},
{
name = top;
position = "{325, 460}";
}
);
background = {
components = (
{
name = c;
}
);
};
layerId = "503E420B-61F7-4277-A1BE-A8852071B452";
paths = (
{
closed = 1;
nodes = (
"197 48 OFFCURVE",
"165 79 OFFCURVE",
"165 152 CURVE SMOOTH",
"165 264 OFFCURVE",
"229 436 OFFCURVE",
"313 436 CURVE SMOOTH",
"335 436 OFFCURVE",
"357 421 OFFCURVE",
"357 379 CURVE SMOOTH",
"357 311 OFFCURVE",
"279 235 OFFCURVE",
"144 228 CURVE",
"143 189 LINE",
"360 218 OFFCURVE",
"487 285 OFFCURVE",
"487 384 CURVE SMOOTH",
"487 433 OFFCURVE",
"444 475 OFFCURVE",
"331 475 CURVE SMOOTH",
"146 475 OFFCURVE",
"33 340 OFFCURVE",
"33 160 CURVE SMOOTH",
"33 52 OFFCURVE",
"102 -16 OFFCURVE",
"207 -16 CURVE SMOOTH",
"289 -16 OFFCURVE",
"378 24 OFFCURVE",
"451 125 CURVE",
"441 133 OFFCURVE",
"433 139 OFFCURVE",
"421 145 CURVE",
"353 64 OFFCURVE",
"295 48 OFFCURVE",
"256 48 CURVE SMOOTH"
);
}
);
width = 497;
},
{
associatedMasterId = "45069982-2EFC-4B7D-8C53-1932E6EAC4CA";
layerId = "464CE593-00BB-4522-BCA4-E719CF42C354";
name = "Nov 3 20, 00:58";
paths = (
{
closed = 1;
nodes = (
"404 104 LINE",
"367 41 OFFCURVE",
"325 17 OFFCURVE",
"251 17 CURVE SMOOTH",
"165 17 OFFCURVE",
"131 120 OFFCURVE",
"131 220 CURVE SMOOTH",
"131 259 LINE",
"292 259 LINE SMOOTH",
"337 259 OFFCURVE",
"382 255 OFFCURVE",
"427 247 CURVE",
"427 359 OFFCURVE",
"341 452 OFFCURVE",
"231 452 CURVE SMOOTH",
"103 452 OFFCURVE",
"35 356 OFFCURVE",
"35 220 CURVE SMOOTH",
"35 84 OFFCURVE",
"103 -12 OFFCURVE",
"231 -12 CURVE SMOOTH",
"328 -12 OFFCURVE",
"370 9 OFFCURVE",
"427 88 CURVE"
);
},
{
closed = 1;
nodes = (
"133 287 LINE",
"138 365 OFFCURVE",
"158 424 OFFCURVE",
"231 424 CURVE SMOOTH",
"301 424 OFFCURVE",
"331 365 OFFCURVE",
"331 287 CURVE"
);
}
);
width = 600;
},
{
associatedMasterId = "503E420B-61F7-4277-A1BE-A8852071B452";
layerId = "6764A393-3FBC-4E51-8A8A-5B2316EC6173";
name = "Nov 3 20, 00:58";
paths = (
{
closed = 1;
nodes = (
"437 109 LINE",
"391 44 OFFCURVE",
"346 21 OFFCURVE",
"267 21 CURVE SMOOTH",
"183 21 OFFCURVE",
"155 123 OFFCURVE",
"155 220 CURVE SMOOTH",
"155 253 LINE",
"281 253 LINE SMOOTH",
"341 253 OFFCURVE",
"401 249 OFFCURVE",
"461 241 CURVE",
"461 359 OFFCURVE",
"363 452 OFFCURVE",
"245 452 CURVE SMOOTH",
"109 452 OFFCURVE",
"29 359 OFFCURVE",
"29 220 CURVE SMOOTH",
"29 81 OFFCURVE",
"109 -12 OFFCURVE",
"245 -12 CURVE SMOOTH",
"349 -12 OFFCURVE",
"394 9 OFFCURVE",
"461 88 CURVE"
);
},
{
closed = 1;
nodes = (
"156 285 LINE",
"159 361 OFFCURVE",
"174 420 OFFCURVE",
"245 420 CURVE SMOOTH",
"312 420 OFFCURVE",
"335 360 OFFCURVE",
"335 285 CURVE"
);
}
);
width = 600;
},
{
anchors = (
{
name = bottom;
position = "{251, 0}";
},
{
name = ogonek;
position = "{372, 0}";
},
{
name = top;
position = "{261, 440}";
}
);
associatedMasterId = "45069982-2EFC-4B7D-8C53-1932E6EAC4CA";
layerId = "9774698D-4763-44EA-BA86-ED11EFBDE1CF";
name = "Nov 18 20, 01:39";
paths = (
{
closed = 1;
nodes = (
"277 -15 OFFCURVE",
"348 22 OFFCURVE",
"400 110 CURVE",
"390 119 OFFCURVE",
"382 125 OFFCURVE",
"370 130 CURVE",
"320 61 OFFCURVE",
"274 40 OFFCURVE",
"230 40 CURVE SMOOTH",
"167 40 OFFCURVE",
"133 92 OFFCURVE",
"133 178 CURVE SMOOTH",
"133 280 OFFCURVE",
"201 415 OFFCURVE",
"290 415 CURVE SMOOTH",
"331 415 OFFCURVE",
"347 388 OFFCURVE",
"346 354 CURVE",
"346 283 OFFCURVE",
"238 238 OFFCURVE",
"107 218 CURVE",
"113 183 LINE",
"257 203 OFFCURVE",
"436 253 OFFCURVE",
"436 362 CURVE",
"436 406 OFFCURVE",
"407 455 OFFCURVE",
"305 455 CURVE SMOOTH",
"132 455 OFFCURVE",
"36 311 OFFCURVE",
"36 166 CURVE SMOOTH",
"36 54 OFFCURVE",
"98 -15 OFFCURVE",
"203 -15 CURVE SMOOTH"
);
}
);
width = 444;
},
{
anchors = (
{
name = bottom;
position = "{263, 0}";
},
{
name = ogonek;
position = "{284, 0}";
},
{
name = top;
position = "{273, 440}";
}
);
associatedMasterId = "45069982-2EFC-4B7D-8C53-1932E6EAC4CA";
layerId = "E3E0FE3B-0BE0-4E0A-859F-33EAFA713A2E";
name = "Nov 20 20, 13:44";
paths = (
{
closed = 1;
nodes = (
"165 40 OFFCURVE",
"129 72 OFFCURVE",
"129 155 CURVE SMOOTH",
"129 255 OFFCURVE",
"188 415 OFFCURVE",
"305 415 CURVE SMOOTH",
"348 415 OFFCURVE",
"362 388 OFFCURVE",
"362 360 CURVE SMOOTH",
"362 283 OFFCURVE",
"240 238 OFFCURVE",
"109 218 CURVE",
"115 183 LINE",
"259 203 OFFCURVE",
"455 253 OFFCURVE",
"455 370 CURVE SMOOTH",
"455 412 OFFCURVE",
"424 455 OFFCURVE",
"323 455 CURVE SMOOTH",
"153 455 OFFCURVE",
"34 314 OFFCURVE",
"39 155 CURVE SMOOTH",
"42 52 OFFCURVE",
"101 -15 OFFCURVE",
"211 -15 CURVE SMOOTH",
"289 -15 OFFCURVE",
"365 22 OFFCURVE",
"417 110 CURVE",
"407 119 OFFCURVE",
"399 125 OFFCURVE",
"387 130 CURVE",
"337 61 OFFCURVE",
"276 40 OFFCURVE",
"231 40 CURVE SMOOTH"
);
}
);
width = 461;
},
{
anchors = (
{
name = bottom;
position = "{282, 0}";
},
{
name = ogonek;
position = "{296, 0}";
},
{
name = top;
position = "{292, 460}";
}
);
associatedMasterId = "503E420B-61F7-4277-A1BE-A8852071B452";
layerId = "78395DFC-F3BB-4FFF-8B65-B5DAFC4943B1";
name = "Nov 20 20, 13:52";
paths = (
{
closed = 1;
nodes = (
"202 48 OFFCURVE",
"167 84 OFFCURVE",
"167 167 CURVE SMOOTH",
"167 273 OFFCURVE",
"226 436 OFFCURVE",
"311 436 CURVE SMOOTH",
"341 436 OFFCURVE",
"359 415 OFFCURVE",
"359 373 CURVE SMOOTH",
"359 290 OFFCURVE",
"288 251 OFFCURVE",
"146 219 CURVE",
"145 180 LINE",
"363 230 OFFCURVE",
"489 288 OFFCURVE",
"489 382 CURVE SMOOTH",
"489 450 OFFCURVE",
"424 475 OFFCURVE",
"339 475 CURVE SMOOTH",
"145 475 OFFCURVE",
"35 346 OFFCURVE",
"35 175 CURVE SMOOTH",
"35 58 OFFCURVE",
"108 -16 OFFCURVE",
"219 -16 CURVE SMOOTH",
"298 -16 OFFCURVE",
"391 24 OFFCURVE",
"453 125 CURVE",
"443 133 OFFCURVE",
"435 139 OFFCURVE",
"423 145 CURVE",
"367 64 OFFCURVE",
"305 48 OFFCURVE",
"268 48 CURVE SMOOTH"
);
}
);
width = 494;
}
);
leftKerningGroup = o;
rightKerningGroup = e;
unicode = 0065;
},
{
glyphname = eogonek;
lastChange = "2020-11-29 15:05:20 +0000";
layers = (
{
anchors = (
{
name = _ogonek;
position = "{282, 0}";
}
);
components = (
{
name = e;
}
);
layerId = "45069982-2EFC-4B7D-8C53-1932E6EAC4CA";
paths = (
{
closed = 1;
nodes = (
"185 -225 OFFCURVE",
"231 -203 OFFCURVE",
"265 -178 CURVE",
"264 -166 OFFCURVE",
"259 -156 OFFCURVE",
"253 -149 CURVE",
"226 -164 OFFCURVE",
"205 -169 OFFCURVE",
"189 -169 CURVE SMOOTH",
"160 -169 OFFCURVE",
"145 -153 OFFCURVE",
"145 -130 CURVE SMOOTH",
"145 -76 OFFCURVE",
"197 -27 OFFCURVE",
"282 0 CURVE",
"268 17 LINE",
"161 -12 OFFCURVE",
"57 -58 OFFCURVE",
"57 -151 CURVE SMOOTH",
"57 -193 OFFCURVE",
"95 -225 OFFCURVE",
"142 -225 CURVE SMOOTH"
);
}
);
width = 469;
},
{
anchors = (
{
name = _ogonek;
position = "{294, 0}";
}
);
components = (
{
name = e;
}
);
layerId = "503E420B-61F7-4277-A1BE-A8852071B452";
paths = (
{
closed = 1;
nodes = (
"203 -225 OFFCURVE",
"249 -203 OFFCURVE",
"277 -178 CURVE",
"276 -172 OFFCURVE",
"273 -158 OFFCURVE",
"265 -149 CURVE",
"239 -164 OFFCURVE",
"221 -169 OFFCURVE",
"206 -169 CURVE SMOOTH",
"181 -169 OFFCURVE",
"168 -154 OFFCURVE",
"168 -133 CURVE SMOOTH",
"168 -79 OFFCURVE",
"214 -28 OFFCURVE",
"294 0 CURVE",
"279 16 LINE",
"164 -14 OFFCURVE",
"59 -59 OFFCURVE",
"59 -150 CURVE SMOOTH",
"59 -195 OFFCURVE",
"103 -225 OFFCURVE",
"159 -225 CURVE SMOOTH"
);
}
);
width = 497;
}
);
leftKerningGroup = o;
rightKerningGroup = e;
unicode = 0119;
},
{
glyphname = f;
lastChange = "2020-11-29 15:04:39 +0000";
layers = (
{
anchors = (
{
name = bottom;
position = "{106, 0}";
},
{
name = top;
position = "{263, 800}";
}
);
layerId = "45069982-2EFC-4B7D-8C53-1932E6EAC4CA";
paths = (
{
closed = 1;
nodes = (
"190 720 OFFCURVE",
"140 634 OFFCURVE",
"127 440 CURVE SMOOTH",
"123 377 OFFCURVE",
"108 303 OFFCURVE",
"100 260 CURVE SMOOTH",
"62 60 LINE SMOOTH",
"33 -95 OFFCURVE",
"-21 -162 OFFCURVE",
"-105 -187 CURVE",
"-105 -202 OFFCURVE",
"-101 -217 OFFCURVE",
"-97 -225 CURVE",
"93 -185 OFFCURVE",
"132 -43 OFFCURVE",
"160 104 CURVE SMOOTH",
"217 400 LINE",
"220 440 LINE",
"215 463 OFFCURVE",
"211 492 OFFCURVE",
"211 534 CURVE SMOOTH",
"211 630 OFFCURVE",
"235 681 OFFCURVE",
"270 681 CURVE SMOOTH",
"297 681 OFFCURVE",
"301 652 OFFCURVE",
"285 601 CURVE",
"370 601 LINE",
"391 671 OFFCURVE",
"369 720 OFFCURVE",
"298 720 CURVE SMOOTH"
);
},
{
closed = 1;
nodes = (
"317 412 OFFCURVE",
"320 429 OFFCURVE",
"321 440 CURVE",
"61 440 LINE",
"56 428 OFFCURVE",
"53 410 OFFCURVE",
"52 400 CURVE",
"312 400 LINE"
);
}
);
width = 293;
},
{
anchors = (
{
name = bottom;
position = "{113, 0}";
},
{
name = top;
position = "{270, 800}";
}
);
layerId = "503E420B-61F7-4277-A1BE-A8852071B452";
paths = (
{
closed = 1;
nodes = (
"212 720 OFFCURVE",
"138 662 OFFCURVE",
"122 459 CURVE SMOOTH",
"116 386 OFFCURVE",
"107 327 OFFCURVE",
"98 280 CURVE SMOOTH",
"50 30 LINE SMOOTH",
"26 -94 OFFCURVE",
"-20 -166 OFFCURVE",
"-106 -187 CURVE",
"-105 -205 OFFCURVE",
"-102 -212 OFFCURVE",
"-96 -225 CURVE",
"130 -205 OFFCURVE",
"167 -10 OFFCURVE",
"191 114 CURVE SMOOTH",
"250 415 LINE",
"247 460 LINE",
"241 488 OFFCURVE",
"232 524 OFFCURVE",
"232 567 CURVE SMOOTH",
"232 634 OFFCURVE",
"249 680 OFFCURVE",
"280 680 CURVE SMOOTH",
"304 680 OFFCURVE",
"309 653 OFFCURVE",
"293 595 CURVE",
"398 595 LINE",
"418 670 OFFCURVE",
"392 720 OFFCURVE",
"311 720 CURVE SMOOTH"
);
},
{
closed = 1;
nodes = (
"353 427 OFFCURVE",
"358 447 OFFCURVE",
"358 460 CURVE",
"58 460 LINE",
"54 448 OFFCURVE",
"49 427 OFFCURVE",
"49 415 CURVE",
"349 415 LINE"
);
}
);
width = 322;
},
{
associatedMasterId = "45069982-2EFC-4B7D-8C53-1932E6EAC4CA";
layerId = "12DBD2D3-25FE-44A0-9205-AE0C724813A7";
name = "Nov 3 20, 20:07";
paths = (
{
closed = 1;
nodes = (
"342 613 LINE",
"342 658 LINE",
"306 703 OFFCURVE",
"288 712 OFFCURVE",
"230 712 CURVE SMOOTH",
"106 712 OFFCURVE",
"98 567 OFFCURVE",
"98 496 CURVE SMOOTH",
"98 440 LINE",
"26 440 LINE",
"26 412 LINE",
"98 412 LINE",
"98 168 LINE SMOOTH",
"98 121 OFFCURVE",
"94 74 OFFCURVE",
"86 28 CURVE",
"26 28 LINE",
"26 0 LINE",
"266 0 LINE",
"266 28 LINE",
"200 28 LINE",
"192 74 OFFCURVE",
"188 121 OFFCURVE",
"188 168 CURVE SMOOTH",
"188 412 LINE",
"266 412 LINE",
"266 440 LINE",
"188 440 LINE",
"188 469 OFFCURVE",
"185 498 OFFCURVE",
"182 526 CURVE SMOOTH",
"178 555 OFFCURVE",
"175 584 OFFCURVE",
"175 613 CURVE SMOOTH",
"175 649 OFFCURVE",
"196 684 OFFCURVE",
"230 684 CURVE SMOOTH",
"260 684 OFFCURVE",
"267 647 OFFCURVE",
"267 613 CURVE"
);
}
);
width = 600;
},
{
associatedMasterId = "503E420B-61F7-4277-A1BE-A8852071B452";
layerId = "AB8C816C-6AA6-4A78-B694-778A2F1C4366";
name = "Nov 3 20, 20:07";
paths = (
{
closed = 1;
nodes = (
"383 613 LINE",
"383 673 LINE",
"335 707 OFFCURVE",
"318 712 OFFCURVE",
"259 712 CURVE SMOOTH",
"135 712 OFFCURVE",
"117 574 OFFCURVE",
"117 504 CURVE SMOOTH",
"117 440 LINE",
"45 440 LINE",
"45 408 LINE",
"117 408 LINE",
"117 172 LINE SMOOTH",
"117 125 OFFCURVE",
"113 78 OFFCURVE",
"105 32 CURVE",
"45 32 LINE",
"45 0 LINE",
"315 0 LINE",
"315 32 LINE",
"249 32 LINE",
"241 78 OFFCURVE",
"237 125 OFFCURVE",
"237 172 CURVE SMOOTH",
"237 408 LINE",
"315 408 LINE",
"315 440 LINE",
"237 440 LINE",
"237 469 OFFCURVE",
"234 498 OFFCURVE",
"231 526 CURVE SMOOTH",
"228 555 OFFCURVE",
"224 584 OFFCURVE",
"224 613 CURVE SMOOTH",
"224 645 OFFCURVE",
"231 680 OFFCURVE",
"259 680 CURVE SMOOTH",
"287 680 OFFCURVE",
"283 643 OFFCURVE",
"283 613 CURVE"
);
}
);
width = 493;
},
{
anchors = (
{
name = bottom;
position = "{164, 0}";
},
{
name = top;
position = "{164, 800}";
}
);
associatedMasterId = "45069982-2EFC-4B7D-8C53-1932E6EAC4CA";
layerId = "0DB7F4D7-2667-4F49-BB0F-F3FC9FAC9933";
name = "Nov 13 20, 12:13";
paths = (
{
closed = 1;
nodes = (
"332 673 OFFCURVE",
"306 720 OFFCURVE",
"226 720 CURVE SMOOTH",
"121 720 OFFCURVE",
"81 634 OFFCURVE",
"95 420 CURVE SMOOTH",
"99 353 OFFCURVE",
"101 307 OFFCURVE",
"101 260 CURVE SMOOTH",
"101 180 LINE SMOOTH",
"101 130 OFFCURVE",
"98 85 OFFCURVE",
"91 35 CURVE",
"34 35 LINE",
"32 25 OFFCURVE",
"32 8 OFFCURVE",
"34 -2 CURVE",
"75 0 OFFCURVE",
"110 0 OFFCURVE",
"149 0 CURVE SMOOTH",
"187 0 OFFCURVE",
"222 0 OFFCURVE",
"283 -2 CURVE",
"285 8 OFFCURVE",
"285 25 OFFCURVE",
"283 35 CURVE",
"206 35 LINE",
"199 85 OFFCURVE",
"196 130 OFFCURVE",
"196 180 CURVE SMOOTH",
"196 400 LINE",
"191 440 LINE",
"176 491 OFFCURVE",
"162 535 OFFCURVE",
"162 604 CURVE SMOOTH",
"162 658 OFFCURVE",
"178 685 OFFCURVE",
"205 685 CURVE SMOOTH",
"231 685 OFFCURVE",
"241 653 OFFCURVE",
"236 611 CURVE",
"331 611 LINE"
);
},
{
closed = 1;
nodes = (
"313 412 OFFCURVE",
"313 428 OFFCURVE",
"311 440 CURVE",
"31 440 LINE",
"29 428 OFFCURVE",
"29 412 OFFCURVE",
"31 400 CURVE",
"311 400 LINE"
);
}
);
width = 338;
}
);
unicode = 0066;
},
{
glyphname = g;
lastChange = "2020-11-29 15:05:20 +0000";
layers = (
{
anchors = (
{
name = bottom;
position = "{257, 0}";
},
{
name = top;
position = "{301, 440}";
}
);
guideLines = (
{
position = "{141, 5}";
}
);
layerId = "45069982-2EFC-4B7D-8C53-1932E6EAC4CA";
paths = (
{
closed = 1;
nodes = (
"309 5 OFFCURVE",
"418 163 OFFCURVE",
"418 313 CURVE",
"463 369 LINE",
"440 417 OFFCURVE",
"393 455 OFFCURVE",
"306 455 CURVE SMOOTH",
"138 455 OFFCURVE",
"37 300 OFFCURVE",
"37 147 CURVE SMOOTH",
"37 54 OFFCURVE",
"86 5 OFFCURVE",
"167 5 CURVE SMOOTH"
);
},
{
closed = 1;
nodes = (
"164 65 OFFCURVE",
"133 91 OFFCURVE",
"133 153 CURVE SMOOTH",
"133 261 OFFCURVE",
"211 415 OFFCURVE",
"309 415 CURVE SMOOTH",
"355 415 OFFCURVE",
"381 378 OFFCURVE",
"381 312 CURVE SMOOTH",
"381 205 OFFCURVE",
"314 65 OFFCURVE",
"207 65 CURVE SMOOTH"
);
},
{
closed = 1;
nodes = (
"242 -225 OFFCURVE",
"381 -120 OFFCURVE",
"421 70 CURVE SMOOTH",
"461 260 LINE SMOOTH",
"472 311 OFFCURVE",
"491 387 OFFCURVE",
"510 440 CURVE",
"499 442 OFFCURVE",
"489 442 OFFCURVE",
"478 440 CURVE",
"396 375 LINE",
"395 248 LINE",
"345 116 LINE",
"333 64 LINE SMOOTH",
"300 -78 OFFCURVE",
"234 -185 OFFCURVE",
"125 -185 CURVE SMOOTH",
"69 -185 OFFCURVE",
"47 -157 OFFCURVE",
"47 -111 CURVE SMOOTH",
"47 -59 OFFCURVE",
"76 -21 OFFCURVE",
"133 12 CURVE",
"113 30 LINE",
"69 10 OFFCURVE",
"-34 -37 OFFCURVE",
"-34 -125 CURVE SMOOTH",
"-34 -192 OFFCURVE",
"25 -225 OFFCURVE",
"103 -225 CURVE SMOOTH"
);
}
);
width = 529;
},
{
anchors = (
{
name = bottom;
position = "{301, 0}";
},
{
name = top;
position = "{329, 460}";
}
);
guideLines = (
{
position = "{145, 5}";
}
);
layerId = "503E420B-61F7-4277-A1BE-A8852071B452";
paths = (
{
closed = 1;
nodes = (
"327 5 OFFCURVE",
"426 166 OFFCURVE",
"426 328 CURVE",
"496 388 LINE",
"461 440 OFFCURVE",
"406 475 OFFCURVE",
"314 475 CURVE SMOOTH",
"128 475 OFFCURVE",
"35 327 OFFCURVE",
"35 167 CURVE SMOOTH",
"35 63 OFFCURVE",
"90 5 OFFCURVE",
"183 5 CURVE SMOOTH"
);
},
{
closed = 1;
nodes = (
"196 68 OFFCURVE",
"175 102 OFFCURVE",
"175 164 CURVE SMOOTH",
"175 268 OFFCURVE",
"225 435 OFFCURVE",
"316 435 CURVE SMOOTH",
"363 435 OFFCURVE",
"388 395 OFFCURVE",
"388 324 CURVE SMOOTH",
"388 216 OFFCURVE",
"328 68 OFFCURVE",
"240 68 CURVE SMOOTH"
);
},
{
closed = 1;
nodes = (
"290 -225 OFFCURVE",
"422 -122 OFFCURVE",
"467 96 CURVE SMOOTH",
"503 270 LINE SMOOTH",
"515 330 OFFCURVE",
"536 410 OFFCURVE",
"554 460 CURVE",
"543 462 OFFCURVE",
"533 462 OFFCURVE",
"522 460 CURVE",
"404 392 LINE",
"404 242 LINE",
"354 131 LINE",
"334 34 LINE SMOOTH",
"305 -105 OFFCURVE",
"222 -185 OFFCURVE",
"126 -185 CURVE SMOOTH",
"73 -185 OFFCURVE",
"52 -160 OFFCURVE",
"52 -121 CURVE SMOOTH",
"52 -67 OFFCURVE",
"91 -10 OFFCURVE",
"147 13 CURVE",
"115 30 LINE",
"27 -1 OFFCURVE",
"-49 -43 OFFCURVE",
"-49 -119 CURVE SMOOTH",
"-49 -187 OFFCURVE",
"13 -225 OFFCURVE",
"115 -225 CURVE SMOOTH"
);
}
);
width = 564;
}
);
leftKerningGroup = a;
rightKerningGroup = g;
unicode = 0067;
},
{
glyphname = h;
lastChange = "2020-11-29 15:05:20 +0000";
layers = (
{
anchors = (
{
name = bottom;
position = "{209, 0}";
},
{
name = center;
position = "{294, 400}";
},
{
name = top;
position = "{379, 800}";
},
{
name = topright;
position = "{338, 700}";
}
);
components = (
{
alignment = -1;
name = _COM_noga_n;
transform = "{1, 0, 0, 1, 103, 0}";
}
);
layerId = "45069982-2EFC-4B7D-8C53-1932E6EAC4CA";
paths = (
{
closed = 1;
nodes = (
"62 -1 OFFCURVE",
"91 0 OFFCURVE",
"126 0 CURVE",
"128 34 OFFCURVE",
"134 68 OFFCURVE",
"141 102 CURVE SMOOTH",
"229 520 LINE SMOOTH",
"240 570 OFFCURVE",
"262 660 OFFCURVE",
"285 713 CURVE",
"222 702 OFFCURVE",
"156 700 OFFCURVE",
"110 700 CURVE",
"106 690 OFFCURVE",
"102 672 OFFCURVE",
"102 663 CURVE",
"159 663 LINE",
"156 613 OFFCURVE",
"148 565 OFFCURVE",
"139 520 CURVE SMOOTH",
"51 102 LINE SMOOTH",
"44 68 OFFCURVE",
"36 34 OFFCURVE",
"27 -5 CURVE"
);
}
);
width = 551;
},
{
anchors = (
{
name = bottom;
position = "{327, 0}";
},
{
name = center;
position = "{327, 400}";
},
{
name = top;
position = "{327, 800}";
},
{
name = topright;
position = "{308, 700}";
}
);
components = (
{
alignment = -1;
name = _COM_noga_n;
transform = "{1, 0, 0, 1, -23, 0}";
}
);
layerId = "503E420B-61F7-4277-A1BE-A8852071B452";
paths = (
{
closed = 1;
nodes = (
"64 -1 OFFCURVE",
"108 0 OFFCURVE",
"156 0 CURVE",
"158 37 OFFCURVE",
"161 73 OFFCURVE",
"169 110 CURVE SMOOTH",
"254 510 LINE SMOOTH",
"267 571 OFFCURVE",
"291 670 OFFCURVE",
"312 715 CURVE",
"247 704 OFFCURVE",
"184 700 OFFCURVE",
"107 700 CURVE",
"103 690 OFFCURVE",
"99 672 OFFCURVE",
"99 663 CURVE",
"151 663 LINE",
"149 618 OFFCURVE",
"141 566 OFFCURVE",
"129 510 CURVE SMOOTH",
"45 112 LINE SMOOTH",
"37 75 OFFCURVE",
"30 42 OFFCURVE",
"16 -5 CURVE"
);
}
);
width = 586;
}
);
leftKerningGroup = h;
rightKerningGroup = n;
unicode = 0068;
},
{
glyphname = hbar;
lastChange = "2020-11-29 15:05:20 +0000";
layers = (
{
components = (
{
name = h;
transform = "{1, 0, 0, 1, 4, 0}";
}
);
layerId = "45069982-2EFC-4B7D-8C53-1932E6EAC4CA";
paths = (
{
closed = 1;
nodes = (
"386 547 OFFCURVE",
"390 563 OFFCURVE",
"390 580 CURVE",
"82 580 LINE",
"76 563 OFFCURVE",
"72 547 OFFCURVE",
"72 530 CURVE",
"380 530 LINE"
);
}
);
width = 555;
},
{
components = (
{
name = h;
}
);
layerId = "503E420B-61F7-4277-A1BE-A8852071B452";
paths = (
{
closed = 1;
nodes = (
"405 557 OFFCURVE",
"409 573 OFFCURVE",
"409 590 CURVE",
"71 590 LINE",
"65 573 OFFCURVE",
"61 557 OFFCURVE",
"61 540 CURVE",
"399 540 LINE"
);
}
);
width = 586;
}
);
leftKerningGroup = h;
rightKerningGroup = n;
unicode = 0127;
},
{
glyphname = idotless;
lastChange = "2020-11-29 15:05:20 +0000";
layers = (
{
anchors = (
{
name = bottom;
position = "{86, 0}";
},
{
name = ogonek;
position = "{184, 0}";
},
{
name = top;
position = "{180, 440}";
}
);
layerId = "45069982-2EFC-4B7D-8C53-1932E6EAC4CA";
paths = (
{
closed = 1;
nodes = (
"183 -15 OFFCURVE",
"237 26 OFFCURVE",
"269 86 CURVE",
"259 95 OFFCURVE",
"251 101 OFFCURVE",
"239 106 CURVE",
"208 58 OFFCURVE",
"185 40 OFFCURVE",
"167 40 CURVE SMOOTH",
"148 40 OFFCURVE",
"146 61 OFFCURVE",
"153 92 CURVE SMOOTH",
"189 260 LINE SMOOTH",
"200 310 OFFCURVE",
"222 400 OFFCURVE",
"245 453 CURVE",
"181 442 OFFCURVE",
"122 440 OFFCURVE",
"70 440 CURVE",
"66 430 OFFCURVE",
"62 413 OFFCURVE",
"62 403 CURVE",
"119 403 LINE",
"114 336 OFFCURVE",
"108 300 OFFCURVE",
"99 260 CURVE SMOOTH",
"63 92 LINE SMOOTH",
"50 29 OFFCURVE",
"69 -15 OFFCURVE",
"127 -15 CURVE SMOOTH"
);
}
);
width = 294;
},
{
anchors = (
{
name = bottom;
position = "{94, 0}";
},
{
name = ogonek;
position = "{194, 0}";
},
{
name = top;
position = "{192, 460}";
}
);
layerId = "503E420B-61F7-4277-A1BE-A8852071B452";
paths = (
{
closed = 1;
nodes = (
"196 -15 OFFCURVE",
"254 26 OFFCURVE",
"291 85 CURVE",
"282 94 OFFCURVE",
"272 100 OFFCURVE",
"261 105 CURVE",
"233 67 OFFCURVE",
"215 50 OFFCURVE",
"196 50 CURVE SMOOTH",
"174 50 OFFCURVE",
"175 73 OFFCURVE",
"183 110 CURVE SMOOTH",
"217 270 LINE SMOOTH",
"230 331 OFFCURVE",
"254 430 OFFCURVE",
"275 475 CURVE",
"210 464 OFFCURVE",
"147 460 OFFCURVE",
"70 460 CURVE",
"66 450 OFFCURVE",
"62 432 OFFCURVE",
"62 423 CURVE",
"114 423 LINE",
"112 378 OFFCURVE",
"104 325 OFFCURVE",
"92 270 CURVE SMOOTH",
"56 100 LINE SMOOTH",
"43 38 OFFCURVE",
"63 -15 OFFCURVE",
"134 -15 CURVE SMOOTH"
);
}
);
width = 314;
}
);
leftKerningGroup = i;
rightKerningGroup = i;
unicode = 0131;
},
{
glyphname = j;
lastChange = "2020-11-29 15:05:20 +0000";
layers = (
{
components = (
{
name = jdotless;
},
{
name = dotaccentcomb;
transform = "{1, 0, 0, 1, 137, 0}";
}
);
layerId = "45069982-2EFC-4B7D-8C53-1932E6EAC4CA";
width = 262;
},
{
components = (
{
name = jdotless;
},
{
name = dotaccentcomb;
transform = "{1, 0, 0, 1, 145, 0}";
}
);
layerId = "503E420B-61F7-4277-A1BE-A8852071B452";
width = 281;
},
{
associatedMasterId = "503E420B-61F7-4277-A1BE-A8852071B452";
layerId = "8B0BFA18-3464-45E4-9F7C-CCA1A6E5FB42";
name = "Nov 3 20, 19:30";
paths = (
{
closed = 1;
nodes = (
"262 408 LINE",
"262 440 LINE",
"22 440 LINE",
"22 408 LINE",
"70 408 LINE",
"78 362 OFFCURVE",
"82 315 OFFCURVE",
"82 268 CURVE SMOOTH",
"82 -65 LINE SMOOTH",
"82 -118 OFFCURVE",
"72 -177 OFFCURVE",
"26 -177 CURVE SMOOTH",
"-6 -177 OFFCURVE",
"-11 -135 OFFCURVE",
"-11 -97 CURVE",
"-71 -97 LINE",
"-71 -153 LINE",
"-59 -186 OFFCURVE",
"-28 -209 OFFCURVE",
"8 -209 CURVE SMOOTH",
"118 -209 OFFCURVE",
"202 -113 OFFCURVE",
"202 0 CURVE SMOOTH",
"202 268 LINE SMOOTH",
"202 315 OFFCURVE",
"206 362 OFFCURVE",
"214 408 CURVE"
);
},
{
closed = 1;
nodes = (
"202 567 LINE",
"202 617 LINE",
"167 652 LINE",
"117 652 LINE",
"82 617 LINE",
"82 567 LINE",
"117 532 LINE",
"167 532 LINE"
);
}
);
width = 600;
},
{
associatedMasterId = "45069982-2EFC-4B7D-8C53-1932E6EAC4CA";
layerId = "4E017742-BA0F-4C89-810E-8F2D7B76CDC3";
name = "Nov 3 20, 19:30";
paths = (
{
closed = 1;
nodes = (
"134 444 OFFCURVE",
"80 440 OFFCURVE",
"26 440 CURVE",
"26 412 LINE",
"74 412 LINE",
"82 366 OFFCURVE",
"86 319 OFFCURVE",
"86 272 CURVE SMOOTH",
"86 -74 LINE SMOOTH",
"86 -126 OFFCURVE",
"73 -181 OFFCURVE",
"28 -181 CURVE SMOOTH",
"-2 -181 OFFCURVE",
"-11 -145 OFFCURVE",
"-11 -111 CURVE",
"-56 -111 LINE",
"-56 -160 LINE",
"-48 -189 OFFCURVE",
"-22 -209 OFFCURVE",
"8 -209 CURVE SMOOTH",
"109 -209 OFFCURVE",
"176 -109 OFFCURVE",
"176 0 CURVE SMOOTH",
"176 272 LINE SMOOTH",
"176 332 OFFCURVE",
"180 392 OFFCURVE",
"188 452 CURVE"
);
},
{
closed = 1;
nodes = (
"181 555 LINE",
"181 613 LINE",
"131 642 LINE",
"81 613 LINE",
"81 555 LINE",
"131 526 LINE"
);
}
);
width = 600;
}
);
leftKerningGroup = j;
rightKerningGroup = j;
unicode = 006A;
},
{
glyphname = jdotless;
lastChange = "2020-11-29 15:05:20 +0000";
layers = (
{
anchors = (
{
name = top;
position = "{184, 440}";
}
);
layerId = "45069982-2EFC-4B7D-8C53-1932E6EAC4CA";
paths = (
{
closed = 1;
nodes = (
"97 -185 OFFCURVE",
"127 -43 OFFCURVE",
"159 104 CURVE SMOOTH",
"193 260 LINE SMOOTH",
"204 310 OFFCURVE",
"225 399 OFFCURVE",
"249 453 CURVE",
"186 442 OFFCURVE",
"125 440 OFFCURVE",
"74 440 CURVE",
"70 429 OFFCURVE",
"67 413 OFFCURVE",
"66 403 CURVE",
"123 403 LINE",
"120 353 OFFCURVE",
"113 308 OFFCURVE",
"103 260 CURVE SMOOTH",
"61 60 LINE SMOOTH",
"29 -91 OFFCURVE",
"-17 -163 OFFCURVE",
"-101 -187 CURVE",
"-101 -201 OFFCURVE",
"-97 -216 OFFCURVE",
"-92 -225 CURVE"
);
}
);
width = 262;
},
{
anchors = (
{
name = top;
position = "{195, 460}";
}
);
layerId = "503E420B-61F7-4277-A1BE-A8852071B452";
paths = (
{
closed = 1;
nodes = (
"112 -206 OFFCURVE",
"153 -40 OFFCURVE",
"186 114 CURVE SMOOTH",
"219 270 LINE SMOOTH",
"232 330 OFFCURVE",
"255 427 OFFCURVE",
"278 475 CURVE",
"212 464 OFFCURVE",
"150 460 OFFCURVE",
"73 460 CURVE",
"69 451 OFFCURVE",
"65 434 OFFCURVE",
"65 423 CURVE",
"117 423 LINE",
"114 372 OFFCURVE",
"104 319 OFFCURVE",
"94 270 CURVE SMOOTH",
"43 30 LINE SMOOTH",
"17 -90 OFFCURVE",
"-23 -167 OFFCURVE",
"-109 -187 CURVE",
"-108 -204 OFFCURVE",
"-104 -214 OFFCURVE",
"-98 -225 CURVE"
);
}
);
width = 281;
},
{
associatedMasterId = "503E420B-61F7-4277-A1BE-A8852071B452";
layerId = "7DFE533A-C31D-4595-AD02-F7928B2B8A8E";
name = "Nov 3 20, 19:34";
paths = (
{
closed = 1;
nodes = (
"262 408 LINE",
"262 440 LINE",
"22 440 LINE",
"22 408 LINE",
"70 408 LINE",
"78 362 OFFCURVE",
"82 315 OFFCURVE",
"82 268 CURVE SMOOTH",
"82 -65 LINE SMOOTH",
"82 -118 OFFCURVE",
"72 -177 OFFCURVE",
"26 -177 CURVE SMOOTH",
"-6 -177 OFFCURVE",
"-11 -135 OFFCURVE",
"-11 -97 CURVE",
"-71 -97 LINE",
"-71 -153 LINE",
"-59 -186 OFFCURVE",
"-28 -209 OFFCURVE",
"8 -209 CURVE SMOOTH",
"118 -209 OFFCURVE",
"202 -113 OFFCURVE",
"202 0 CURVE SMOOTH",
"202 268 LINE SMOOTH",
"202 315 OFFCURVE",
"206 362 OFFCURVE",
"214 408 CURVE"
);
},
{
closed = 1;
nodes = (
"202 567 LINE",
"202 617 LINE",
"167 652 LINE",
"117 652 LINE",
"82 617 LINE",
"82 567 LINE",
"117 532 LINE",
"167 532 LINE"
);
}
);
width = 600;
}
);
leftKerningGroup = j;
rightKerningGroup = j;
unicode = 0237;
},
